<svg xmlns="http://www.w3.org/2000/svg" width="26" height="32" viewBox="0 0 26 32" fill="currentColor">
  <path d="M25.7957 10.7893C25.652 10.2769 25.302 10.38 25.302 10.38H22.3055V7.30226C22.3055 5.57746 21.3806 5.80243 21.3806 5.80243V4.07764C21.7305 4.07764 21.7087 3.50271 21.7087 3.50271V3.134C21.7087 2.7653 21.2993 2.64031 21.2993 2.64031H19.5339C19.0621 2.64031 19.0809 3.11213 19.0809 3.11213V3.62457C19.0809 4.13701 19.5933 4.09639 19.5933 4.09639V5.63683L14.4033 5.4931V2.49658H14.7376C14.9407 2.49658 15.1063 2.33097 15.1063 2.12787V1.18423C15.1063 0.981133 14.9407 0.815528 14.7376 0.815528H14.4033V0H12.3004V0.815528H11.9661C11.763 0.815528 11.5974 0.981133 11.5974 1.18423V2.12787C11.5974 2.33097 11.763 2.49658 11.9661 2.49658H12.3004V5.4931L7.11041 5.63683V4.09639C7.11041 4.09639 7.62285 4.13701 7.62285 3.62457V3.11213C7.62285 3.11213 7.64472 2.64031 7.16978 2.64031H5.40436C5.40436 2.64031 4.99504 2.76217 4.99504 3.134V3.50271C4.99504 3.50271 4.97316 4.07764 5.32312 4.07764V5.80243C5.32312 5.80243 4.39823 5.57746 4.39823 7.30226V10.38H1.41109C1.41109 10.38 1.06113 10.2769 0.917397 10.7893C0.773664 11.3018 0.917397 12.4516 0.917397 12.4516C0.917397 12.4516 0.958017 12.8203 1.41109 12.7797C1.86416 12.7391 4.16076 12.6297 4.16076 12.6297C4.16076 12.6297 5.74807 17.0073 4.16076 20.0195C3.94204 20.0757 3.19525 19.7539 2.67031 20.6632C2.14225 21.5724 2.89841 22.2567 3.77018 22.2567C3.77018 22.4973 3.48584 29.1403 5.61996 30.7213C7.91969 32.2399 13.3597 31.9837 13.3597 31.9837C13.3597 31.9837 18.7996 32.2399 21.0994 30.7213C23.2335 29.1403 22.9491 22.4973 22.9491 22.2567C23.8209 22.2567 24.574 21.5724 24.049 20.6632C23.521 19.7539 22.7773 20.0757 22.5586 20.0195C20.9713 17.0073 22.5586 12.6297 22.5586 12.6297C22.5586 12.6297 24.8583 12.7391 25.3082 12.7797C25.7613 12.8203 25.8019 12.4516 25.8019 12.4516C25.8019 12.4516 25.9457 11.3018 25.8019 10.7893H25.7957Z" fill="currentColor"/>
</svg>
