<svg xmlns="http://www.w3.org/2000/svg" width="41" height="32" viewBox="0 0 41 32" fill="currentColor">
  <path d="M21.3665 2.82832C22.4557 2.75701 23.5449 2.73107 24.6406 2.80239C25.062 2.82832 25.2176 2.61438 25.0814 2.18C24.9842 1.86232 24.8739 1.55112 24.8934 1.20102C24.9323 0.44896 25.7362 -0.179918 26.4494 0.0469966C27.3635 0.338744 28.2647 0.662908 29.1464 1.03246C29.6392 1.23992 30.1448 1.23344 30.6505 1.29179C31.4934 1.38904 32.3427 1.43442 33.1855 1.51222C33.983 1.58353 34.7804 1.65485 35.5778 1.76507C36.0252 1.82342 36.4272 1.68078 36.8421 1.59002C37.445 1.46683 38.0415 1.31772 38.638 1.17509C39.2214 1.03894 39.7336 1.14267 40.1161 1.6354C40.4922 2.12813 40.5246 2.65976 40.2458 3.21084C40.0708 3.55445 40.0772 3.89807 40.168 4.26761C40.3041 4.80572 40.4144 5.35032 40.5505 5.88843C40.6802 6.39413 40.5505 6.86741 40.3949 7.3342C39.8892 8.89019 39.3835 10.4462 38.8778 11.9957C38.6704 12.6181 38.6639 13.2275 38.9102 13.8499C39.0983 14.3361 39.3057 14.8094 39.4224 15.3216C39.5521 15.8921 39.3057 16.32 38.8843 16.6701C38.4564 17.0202 37.9572 17.124 37.471 16.8776C36.7189 16.4886 35.915 16.5664 35.124 16.4951C34.9684 16.4821 34.936 16.521 34.9879 16.6831C35.2731 17.5778 34.9425 18.2909 34.0543 18.6281C33.4448 18.8615 33.2633 19.3412 33.192 19.9118C33.0105 21.2927 32.6928 22.6477 32.4205 24.0157C32.2779 24.7418 32.0963 25.455 31.7138 26.0968C31.5841 26.3108 31.435 26.5182 31.2924 26.7257C30.871 27.3416 30.7737 28.0483 30.7413 28.7744C30.7219 29.1504 30.7737 29.507 30.8839 29.8701C31.072 30.5054 30.8645 31.05 30.4042 31.4974C30.0541 31.8345 29.6067 31.8929 29.1464 31.8086C28.6278 31.7113 28.1026 31.7502 27.584 31.7697C26.6504 31.7956 25.7168 31.828 24.7897 31.8734C21.7166 32.0031 18.65 31.9577 15.5769 31.9058C13.9691 31.8799 12.3677 31.9512 10.7598 31.828C10.2736 31.7891 9.80032 31.8345 9.32056 31.9512C8.61388 32.1198 8.02391 31.841 7.60249 31.277C7.20701 30.7453 7.25239 30.1618 7.54414 29.5848C7.75808 29.1634 8.01094 28.755 8.12764 28.2882C8.26379 27.7501 8.12764 27.2573 7.84237 26.797C7.64787 26.4793 7.39503 26.2006 7.1357 25.9347C5.91036 24.6899 5.20368 23.1793 4.89897 21.4872C4.7304 20.5406 4.77578 19.5746 4.89897 18.6216C4.95731 18.1742 4.8082 17.8306 4.49052 17.5454C4.04317 17.1434 3.82274 16.6507 3.89405 16.0542C3.97185 15.3475 4.46458 14.8548 5.17126 14.7835C5.65102 14.7381 5.95573 14.4464 6.26045 14.1157C7.22646 13.0525 8.22488 12.0216 9.25572 11.0232C10.507 9.81081 11.7453 8.58548 13.0225 7.39904C13.6903 6.77664 14.2608 6.06348 14.9481 5.46054C16.2317 4.32596 17.684 3.50258 19.3567 3.10062C20.018 2.93854 20.6922 2.89316 21.373 2.84777L21.3665 2.82832ZM18.7083 30.486C20.783 30.4601 22.8512 30.5379 24.9193 30.4147C26.7995 30.3045 28.2193 29.4292 29.0168 27.6852C29.315 27.0304 29.6586 26.4339 30.1319 25.8958C30.4755 25.5068 30.845 25.1049 30.9164 24.5408C30.9423 24.3009 31.0006 24.0611 31.046 23.8277C31.3183 22.2976 31.5582 20.7546 31.8889 19.2375C31.9861 18.7966 32.1287 18.3428 32.0315 17.8825C31.9407 17.4481 31.9342 17.0332 32.0898 16.6183C32.1612 16.4367 32.1158 16.3395 31.9018 16.3265C31.3183 16.2876 30.7283 16.2422 30.1449 16.1904C29.6456 16.1515 29.1399 16.0866 28.6407 16.0737C28.0443 16.0607 27.4543 15.8986 26.8578 16.0283C26.6115 16.0801 26.3846 16.2098 26.1382 16.2357C25.5806 16.3006 25.0814 16.1515 24.7378 15.6717C24.3682 15.1595 24.3747 14.6084 24.6276 14.0574C24.8026 13.6749 24.9906 13.2988 25.2046 12.9422C25.5223 12.3976 25.6001 11.8401 25.4445 11.2242C25.3278 10.7768 25.2565 10.3165 25.1592 9.86268C24.8999 8.69569 24.6341 7.52222 24.3877 6.35523C24.3099 5.98568 24.1673 5.62262 24.1997 5.23362C24.2191 4.96132 24.1349 4.88352 23.8626 4.90297C22.929 4.96781 22.0019 4.97429 21.0683 5.01967C20.3745 5.05209 19.7262 5.24659 19.3048 5.87546C19.2076 6.02458 19.1103 6.1737 19.0066 6.31633C18.5917 6.84796 17.872 7.03597 17.2496 6.79609C16.7569 6.60159 16.2641 6.51083 15.7714 6.78312C15.4408 6.96466 15.1425 7.1786 14.8767 7.44442C14.3192 7.98901 13.982 8.61141 14.2414 9.42182C14.5137 10.2711 14.0793 11.0426 13.204 11.2566C12.8864 11.3344 12.5946 11.2242 12.2964 11.1464C11.8166 11.0167 11.3952 11.1204 11.0192 11.4381C10.3579 11.9892 9.79384 12.6375 9.17144 13.221C7.42096 14.8613 6.50033 16.9424 6.24748 19.257C6.0076 21.4742 6.55868 23.5424 8.28972 25.1308C9.0353 25.8116 9.48264 26.6479 9.46319 27.6658C9.43726 29.0921 10.7274 30.4471 12.3094 30.4665C14.4488 30.4925 16.5818 30.5119 18.7213 30.4925L18.7083 30.486ZM32.79 12.4884C32.816 11.503 32.8095 10.5953 32.7382 9.68115C32.6279 8.2678 32.0769 7.10729 31.046 6.15425C30.4625 5.61613 29.8337 5.1623 29.0297 5.03264C28.2063 4.89649 27.37 4.95484 26.5466 4.87704C26.3068 4.85759 26.2289 5.03912 26.1836 5.22714C26.1511 5.36329 26.1641 5.50592 26.1901 5.64207C26.5596 7.74265 26.9227 9.84323 27.2987 11.9438C27.3895 12.443 27.4089 12.9617 27.8498 13.3312C28.2064 13.6295 28.5305 13.9666 28.8806 14.2778C29.0168 14.401 29.1918 14.4853 29.3863 14.4982C30.3912 14.5501 31.3961 14.5955 32.4075 14.6473C32.5761 14.6538 32.6539 14.6149 32.6733 14.4269C32.7576 13.7591 32.7382 13.0849 32.79 12.4884ZM29.9568 2.66624C29.7105 2.60789 29.4058 2.71162 29.1335 2.91261C29.0557 2.97096 28.926 3.00337 28.9454 3.13304C28.9649 3.26919 29.0881 3.28215 29.1983 3.30809C30.1643 3.535 31.1433 3.7295 32.1158 3.91103C32.4918 3.98235 32.8678 4.0796 33.1726 4.32596C33.6912 4.74738 33.769 5.33087 33.7171 5.94678C33.6977 6.19963 33.6393 6.44599 33.6134 6.69236C33.5615 7.12025 33.7301 7.50925 33.8468 7.91122C34.0932 8.75404 34.2099 9.61632 34.2034 10.498C34.2034 11.088 34.4173 11.6261 34.9165 12.0086C35.7529 12.6505 35.6038 13.9666 34.6507 14.4139C34.5146 14.4788 34.3784 14.5371 34.2553 14.6149C34.2099 14.6409 34.1645 14.6992 34.1645 14.7446C34.1645 14.8159 34.2423 14.8094 34.2942 14.8159C34.7285 14.9002 35.124 14.8613 35.4676 14.5436C35.6556 14.3686 35.889 14.2324 36.0965 14.0768C36.4401 13.8175 36.8161 13.5841 36.9134 13.1303C36.9782 12.8126 37.0755 12.5014 37.1662 12.1902C37.6914 10.3424 38.2101 8.49471 38.7287 6.64698C38.8584 6.18666 38.7871 5.77822 38.424 5.44757C37.633 4.73441 36.8421 4.02773 36.0446 3.32105C35.8696 3.16545 35.6686 3.09414 35.4352 3.08765C35.0721 3.07469 34.7091 3.04227 34.346 3.00986C32.9132 2.89964 31.4804 2.78942 29.9568 2.66624ZM34.1321 13.9147C34.5276 13.9277 34.8647 13.623 34.8776 13.2405C34.8906 12.8709 34.56 12.5079 34.1904 12.4949C33.8403 12.4819 33.4643 12.845 33.4578 13.1951C33.4513 13.5646 33.769 13.9018 34.1321 13.9147ZM6.12431 16.3135C6.15672 15.9116 5.82607 15.6004 5.47598 15.5874C5.08698 15.568 4.71094 15.9181 4.71094 16.2876C4.71094 16.6247 5.06752 16.9813 5.41762 16.9878C5.79365 17.0008 6.11782 16.6896 6.12431 16.3135ZM13.6644 9.79785C13.6644 9.46072 13.3013 9.09766 12.9642 9.11062C12.6205 9.11711 12.2705 9.47369 12.264 9.8173C12.251 10.1933 12.5881 10.524 12.9771 10.524C13.3532 10.524 13.6708 10.1868 13.6708 9.79785H13.6644ZM8.12115 30.4406C8.11466 30.8166 8.40641 31.1408 8.763 31.1408C9.18441 31.1408 9.48913 30.862 9.49561 30.4665C9.49561 30.0646 9.19738 29.7599 8.78893 29.7599C8.42587 29.7599 8.12763 30.0581 8.12115 30.4406ZM17.7164 5.91437C18.1508 5.91437 18.462 5.6291 18.449 5.2401C18.4425 4.90946 18.0924 4.52694 17.7812 4.52046C17.4636 4.51398 17.0421 4.92891 17.0486 5.24659C17.0486 5.55779 17.4052 5.91437 17.7164 5.91437ZM33.5745 17.8825C33.9376 17.8955 34.2617 17.6037 34.2682 17.2601C34.2682 16.8711 33.983 16.5405 33.6134 16.5275C33.2244 16.508 32.9003 16.8192 32.8873 17.2212C32.8808 17.5713 33.192 17.876 33.5745 17.8825ZM30.1254 30.3563C30.1319 29.9803 29.8401 29.6561 29.4771 29.6497C29.1529 29.6432 28.8158 29.9933 28.8093 30.3434C28.8093 30.6805 29.1399 31.0306 29.4771 31.0306C29.8077 31.0306 30.1124 30.7129 30.1189 30.3563H30.1254ZM32.79 5.5513C32.79 5.19472 32.5113 4.85111 32.2001 4.85111C31.8694 4.85111 31.5388 5.18824 31.5388 5.52537C31.5388 5.88195 31.8305 6.16073 32.2065 6.1737C32.4594 6.18018 32.7836 5.83657 32.7836 5.55778L32.79 5.5513ZM26.4299 14.7965C26.4299 14.5177 26.1836 14.2713 25.8983 14.2713C25.6001 14.2713 25.3278 14.5306 25.3278 14.8094C25.3278 15.0688 25.6325 15.3735 25.8983 15.367C26.1706 15.367 26.4299 15.0882 26.4364 14.7965H26.4299ZM38.0026 16.0477C38.2554 16.0607 38.4888 15.8273 38.5018 15.5615C38.5148 15.2827 38.2684 15.0234 37.9831 15.0169C37.7173 15.0104 37.4774 15.2308 37.458 15.4967C37.4385 15.769 37.7044 16.0348 38.0026 16.0477ZM26.3003 2.06978C26.5466 2.06978 26.8319 1.80397 26.8254 1.58353C26.8254 1.34365 26.5337 1.07784 26.2743 1.07784C26.002 1.07784 25.7297 1.33717 25.7362 1.58353C25.7427 1.82342 26.0345 2.07626 26.3003 2.07626V2.06978ZM39.0594 2.08275C38.7611 2.0633 38.5213 2.26428 38.5083 2.54954C38.4953 2.81536 38.7611 3.08765 39.0334 3.10062C39.2603 3.11359 39.5132 2.87371 39.5326 2.62734C39.5586 2.35504 39.3381 2.1022 39.0594 2.08275Z" fill="currentColor"/>
  <path d="M0.736861 11.5097C0.704444 11.0948 0.996196 10.7447 1.19718 10.3622C1.50838 9.77218 1.85199 9.19517 2.16967 8.60519C2.33824 8.28751 2.55218 8.00873 2.818 7.77533C3.58951 7.0881 4.34157 6.38143 5.15198 5.73958C5.47615 5.48025 5.75493 5.50618 6.02074 5.83035C6.33194 6.20638 6.63666 6.58241 6.91544 6.97789C7.10345 7.2437 7.31091 7.30205 7.62859 7.25667C8.10187 7.19832 8.58812 7.07514 9.03546 7.39282C9.54764 7.75588 9.74214 8.51443 9.48281 9.08495C9.04195 10.051 8.30934 10.7965 7.66101 11.6134C6.8506 12.6313 5.75493 13.2343 4.66574 13.8566C4.43882 13.9863 4.19245 13.9604 3.95905 13.8631C3.07733 13.4806 2.19561 13.1111 1.33333 12.6961C0.892468 12.4822 0.723894 12.0673 0.736861 11.5227V11.5097ZM6.55885 9.86943C6.59775 8.89046 5.77437 8.23565 4.94451 8.23565C4.06927 8.23565 3.34314 8.99419 3.34314 9.90185C3.34314 10.7317 4.10168 11.4967 4.95099 11.4708C5.86514 11.4449 6.55885 10.7058 6.55236 9.86295L6.55885 9.86943ZM8.27044 9.05254C8.51032 9.05254 8.7502 8.83859 8.75669 8.60519C8.75669 8.34586 8.53625 8.11246 8.27692 8.11895C8.05649 8.11895 7.81661 8.37828 7.81661 8.60519C7.81661 8.83859 8.03056 9.04606 8.27044 9.05254ZM1.89089 12.0478C2.07891 12.0543 2.2734 11.8598 2.29933 11.6329C2.31878 11.4514 2.09187 11.205 1.90385 11.1985C1.72232 11.1985 1.48244 11.4189 1.47595 11.607C1.46299 11.8274 1.66398 12.0348 1.89089 12.0478ZM7.66101 9.8435C7.64156 9.69438 7.48596 9.60362 7.31091 9.5712C7.16179 9.53878 6.94785 9.77218 6.96081 9.93426C6.98026 10.1288 7.08399 10.2649 7.29146 10.2779C7.48596 10.2908 7.65453 10.1093 7.66101 9.8435Z" fill="currentColor"/>
  <path d="M12.1728 0.118777C12.6331 0.131743 13.2944 0.293825 13.9687 0.404041C14.5068 0.488324 15.0578 0.533707 15.583 0.715239C16.3221 0.968087 16.7565 1.88223 16.4518 2.60187C16.2378 3.0946 15.9007 3.50953 15.5765 3.93095C15.1356 4.50796 14.7402 5.12387 14.2085 5.62308C13.7547 6.0445 13.1907 6.31031 12.6655 6.62151C12.27 6.85491 11.894 7.14017 11.4402 7.27632C10.9669 7.41247 10.5196 7.36708 10.0917 7.13369C9.26828 6.69282 8.4838 6.20009 7.73174 5.64253C7.10286 5.18222 6.96023 4.33939 7.43999 3.71051C7.94569 3.04274 8.50325 2.42034 9.03488 1.7785C9.28772 1.48027 9.52112 1.16259 9.80639 0.903254C10.4093 0.358658 11.1419 0.112294 12.1728 0.118777ZM10.9928 6.14174C11.2003 6.10933 11.304 5.89538 11.3883 5.70088C11.4791 5.48045 11.6217 5.38968 11.8357 5.38968C12.1015 5.38968 12.3478 5.31188 12.6007 5.2276C13.5408 4.9164 14.1113 4.10599 13.9946 3.1335C13.9427 2.71857 13.9946 2.36199 14.2021 2.01838C14.3058 1.83685 14.2669 1.68125 14.1632 1.51917C13.8909 1.09775 13.651 1.0394 13.0934 1.31818C12.8665 1.4284 12.6655 1.44137 12.4645 1.31818C12.1858 1.14962 11.9264 1.20148 11.6736 1.35708C11.1484 1.67476 10.6362 2.01838 10.1176 2.34254C9.84528 2.51111 9.71562 2.73154 9.77397 3.06867C9.83232 3.42525 9.84529 3.76238 9.58596 4.09303C9.31366 4.44961 9.5276 4.90992 9.9555 5.00069C10.0787 5.02662 10.2148 5.01365 10.3445 5.01365C10.5649 5.01365 10.6687 5.12387 10.6687 5.33782C10.6687 5.45452 10.6427 5.55825 10.6103 5.66198C10.539 5.90186 10.7011 6.12878 10.9993 6.13526L10.9928 6.14174ZM9.184 4.61817C9.184 4.33939 8.92466 4.08654 8.6394 4.08654C8.38006 4.08654 8.08184 4.39126 8.08832 4.65707C8.08832 4.90344 8.35414 5.16277 8.59402 5.15629C8.93115 5.15629 9.184 4.9164 9.184 4.61817ZM15.8164 1.96651C15.8164 1.7007 15.5246 1.43488 15.2588 1.44785C15.0125 1.46082 14.7466 1.72015 14.7402 1.95355C14.7402 2.22584 14.9995 2.51759 15.2523 2.51759C15.5376 2.51759 15.8164 2.23881 15.8164 1.96651Z" fill="currentColor"/>
  <path d="M38.6962 25.6434C38.7157 26.8557 37.9247 28.0422 36.7577 28.4052C36.2585 28.5608 36.0381 28.9758 35.9019 29.4361C35.7852 29.8445 35.5194 30.1038 35.1434 30.2724C34.6312 30.5058 34.1903 30.3502 33.7949 30.026C33.3864 29.6889 33.3021 29.2221 33.4772 28.7553C33.7041 28.1653 33.6782 27.6272 33.367 27.0697C33.0428 26.4862 33.0298 25.8184 32.9974 25.1766C32.9845 24.8848 32.9002 24.5931 32.9974 24.2883C33.1206 23.9058 33.3345 23.6141 33.6911 23.4585C34.2811 23.1992 34.5534 22.7583 34.5599 22.1229C34.5599 21.6821 34.6701 21.2801 35.0267 20.9754C35.4481 20.6123 35.9214 20.5669 36.4076 20.7809C36.8744 20.9884 37.1013 21.3903 37.1273 21.8895C37.1467 22.272 37.2699 22.5768 37.62 22.7324C38.2294 22.9982 38.5406 23.4326 38.5666 24.1133C38.586 24.6255 38.6703 25.1312 38.6962 25.6434ZM33.9634 25.209C33.9958 25.4813 33.9245 25.7471 33.9829 26.0194C34.1839 26.9919 35.0202 27.705 35.9084 27.6467C36.9392 27.5819 37.7626 26.7196 37.7561 25.6887C37.7561 25.1182 37.7043 24.5542 37.6719 23.9836C37.6524 23.6984 37.4838 23.5687 37.1986 23.6206C36.2585 23.7956 35.3119 23.9771 34.3719 24.1587C34.1061 24.2105 33.9699 24.3726 33.9764 24.6514C33.9764 24.8394 33.9764 25.0274 33.9699 25.209H33.9634ZM34.696 29.7213C35.0397 29.7213 35.3444 29.4296 35.3444 29.086C35.3444 28.7488 35.0656 28.4701 34.722 28.4701C34.3784 28.4701 34.0801 28.7553 34.0801 29.1054C34.0801 29.4426 34.3654 29.7213 34.7025 29.7278L34.696 29.7213ZM35.2666 21.9608C35.2601 22.285 35.5129 22.5768 35.8112 22.5897C36.1353 22.6027 36.453 22.3045 36.466 21.9608C36.4789 21.6302 36.1937 21.332 35.863 21.3255C35.5324 21.3255 35.2731 21.5913 35.2666 21.9608Z" fill="currentColor"/>
  <path d="M16.8159 11.5486C17.918 11.568 19.0137 11.581 20.1159 11.6004C20.2131 11.6004 20.2974 11.6328 20.3752 11.6912C21.2893 12.3525 22.21 13.0073 23.1111 13.6751C23.7595 14.1548 23.8438 14.8421 23.7595 15.5812C23.5974 17.0593 23.5261 18.531 23.74 20.0092C23.8243 20.5733 23.928 21.0919 24.4273 21.4356C24.5504 21.5198 24.6801 21.5912 24.8162 21.6625C25.497 22.019 25.8212 22.5766 25.8017 23.3416C25.7887 23.9511 25.7823 24.554 25.7823 25.1634C25.7758 26.0711 25.3997 26.7454 24.5634 27.1279C24.0901 27.3483 23.8049 27.6919 23.6752 28.2041C23.4742 29.0015 22.9231 29.4165 22.1257 29.5202C19.8954 29.8184 17.6587 29.987 15.4025 29.9027C14.0216 29.8509 12.6471 29.7536 11.2792 29.5332C10.4298 29.397 9.76206 28.5347 9.88525 27.6854C10.0538 26.5444 10.0408 25.4357 9.69724 24.3206C9.32769 23.1277 9.37307 21.9153 9.67779 20.7159C9.9436 19.6851 9.96953 18.6348 9.96953 17.5845C9.96953 16.9167 9.8658 16.2684 9.75558 15.6136C9.5935 14.6346 9.8658 13.889 10.7216 13.3379C11.5126 12.8322 12.2711 12.2682 13.0361 11.7236C13.2371 11.581 13.4446 11.5032 13.7039 11.5097C14.7412 11.5356 15.7721 11.5486 16.8094 11.5615V11.5486H16.8159ZM17.6911 28.243C17.743 28.1652 17.8143 28.1717 17.8727 28.1587C18.2163 28.1004 18.5469 28.0031 18.8646 27.8734C20.453 27.2122 21.5876 26.097 22.1387 24.4503C22.774 22.5572 22.5147 20.7678 21.3347 19.147C19.8954 17.1696 17.1206 16.2749 14.6958 17.2279C12.1998 18.2069 10.6438 20.8391 11.1236 23.4843C11.5385 25.7599 12.8805 27.2705 15.0784 28.0096C15.1302 28.029 15.2015 28.0355 15.2275 28.0744C15.3507 28.2624 15.3507 28.2495 15.4933 28.3078C15.6359 28.3662 15.785 28.3467 15.9341 28.3662C16.7705 28.4634 17.6004 28.5023 18.4237 28.2495C18.8127 28.1263 19.286 27.9253 19.474 27.7438C18.884 27.9901 18.32 28.1911 17.6976 28.2365L17.6911 28.243ZM16.751 15.3737C17.7495 15.3867 18.7479 15.4126 19.7463 15.4191C20.1094 15.4191 20.4141 15.1273 20.4335 14.7772C20.453 14.3688 20.4595 13.9603 20.4465 13.5454C20.4335 13.1629 20.0964 12.8452 19.7139 12.8387C19.0267 12.8258 18.333 12.8193 17.6393 12.8128C16.3685 12.8128 15.1043 12.8063 13.8336 12.8128C13.5678 12.8128 13.3344 12.9295 13.2241 13.1823C13.0037 13.6816 13.0945 14.2067 13.1334 14.7189C13.1658 15.0884 13.3668 15.3478 13.9178 15.3802C14.8579 15.4385 15.8045 15.3996 16.7446 15.3802L16.751 15.3737ZM24.6542 24.3076C24.6542 24.3076 24.6542 24.3076 24.6477 24.3076C24.6477 23.9511 24.6671 23.601 24.6606 23.2444C24.6606 22.9202 24.4272 22.6803 24.129 22.6674C23.8567 22.6544 23.5909 22.8684 23.5585 23.1796C23.5001 23.8084 23.2992 24.3984 23.0852 24.9819C22.9555 25.3385 22.975 25.6627 23.2408 25.9414C23.5001 26.2137 23.8243 26.2656 24.1874 26.097C24.5375 25.9349 24.6866 25.6367 24.6866 25.2607C24.6866 24.943 24.6671 24.6253 24.6606 24.3076H24.6542ZM11.4542 15.8535C11.8691 15.8535 12.2841 15.458 12.297 15.0366C12.31 14.6346 11.8886 14.2132 11.4737 14.2067C11.0263 14.2067 10.6308 14.5892 10.6308 15.0366C10.6308 15.458 11.0198 15.847 11.4607 15.8535H11.4542ZM21.1986 15.0884C21.1986 15.5098 21.5811 15.9118 22.0219 15.9248C22.4369 15.9442 22.8453 15.5423 22.8518 15.1079C22.8648 14.667 22.4758 14.2845 22.009 14.278C21.6005 14.278 21.2051 14.667 21.1986 15.0884ZM22.6508 27.8021C22.6508 27.4261 22.398 27.1668 22.0284 27.1668C21.6719 27.1668 21.3542 27.465 21.3607 27.8151C21.3607 28.1457 21.6719 28.4634 22.0025 28.4634C22.3591 28.4634 22.6508 28.1717 22.6508 27.8021ZM11.6163 27.2316C11.2467 27.2316 10.968 27.4909 10.9615 27.841C10.955 28.23 11.2273 28.5218 11.6098 28.5283C11.934 28.5283 12.2646 28.2171 12.2711 27.8994C12.2711 27.5493 11.9729 27.2381 11.6228 27.2381L11.6163 27.2316ZM13.9632 17.3835C13.8141 17.2992 13.7882 17.403 13.7363 17.4354C13.6391 17.5002 13.5288 17.5326 13.4705 17.4159C13.3862 17.2603 13.3019 17.3122 13.2047 17.3835C12.7444 17.7012 12.323 18.0707 11.9664 18.5051C11.9016 18.5829 11.8043 18.7385 11.8302 18.758C12.0312 18.9719 11.8302 19.134 11.7784 19.3285C12.3813 18.544 13.1139 17.9216 13.9632 17.39V17.3835ZM22.6379 22.5377C22.6379 22.6285 22.573 22.7387 22.6703 22.7906C22.7221 22.8165 22.8259 22.797 22.8777 22.7646C22.9815 22.6998 22.9555 22.5831 22.9102 22.4923C22.8777 22.4275 22.8713 22.3756 22.8842 22.3043C23.0009 21.7597 22.7999 21.2475 22.6897 20.7289C22.6832 20.6965 22.6638 20.6576 22.6379 20.6316C22.5795 20.5603 22.5082 20.5279 22.4174 20.5733C22.3331 20.6122 22.2813 20.664 22.3202 20.7678C22.3461 20.8391 22.3591 20.9104 22.3785 20.9817C22.5147 21.4939 22.586 22.0126 22.6314 22.5377H22.6379ZM11.156 20.6316C11.0587 20.6122 11.0133 20.7678 10.9096 20.664C10.8513 20.6057 10.8253 20.677 10.8059 20.7354C10.6827 21.2022 10.5725 21.669 10.5141 22.1422C10.4817 22.3951 10.5141 22.5831 10.8577 22.5572C10.8383 21.9023 11.0522 21.2735 11.156 20.6251V20.6316ZM22.197 20.1972C22.1451 20.0935 22.3526 19.9379 22.1387 19.8731C22.0868 19.8601 22.009 19.8212 21.996 19.8861C21.9701 20.0287 22.0738 20.1194 22.197 20.1972Z" fill="currentColor"/>
  <path d="M17.651 25.4813C16.6915 25.4489 15.8357 25.2544 15.0123 24.9108C14.3575 24.6385 13.6962 24.3856 13.0414 24.1198C12.1532 23.7567 11.8096 22.9009 12.244 22.1294C12.4709 21.7275 12.8858 21.5719 13.2618 21.3774C13.8842 21.0532 14.5001 20.729 15.1355 20.4373C16.1793 19.964 17.2685 19.7955 18.4031 20.0483C19.1357 20.2104 19.8294 20.4567 20.5037 20.7809C20.8602 20.956 21.1325 21.2153 21.34 21.5395C21.6058 21.9479 21.5151 22.674 21.139 23.0436C20.387 23.7827 19.583 24.4634 18.7921 25.1571C18.4485 25.4554 18.027 25.5202 17.6445 25.4813H17.651ZM17.4176 24.5412C17.5214 24.5412 17.6251 24.5412 17.7223 24.5412C18.1308 24.5736 18.2345 24.5023 18.2929 24.0874C18.4096 23.2575 18.5003 22.4277 18.617 21.5978C18.6754 21.1958 18.6106 21.0662 18.2086 21.0078C17.7677 20.943 17.3204 20.8976 16.873 20.8652C16.6137 20.8457 16.3544 20.8198 16.095 20.9106C15.3689 21.1569 15.0318 21.7275 14.928 22.5638C14.8502 23.1927 15.3235 23.9188 15.92 24.217C16.3868 24.4504 16.8925 24.5218 17.4047 24.5282L17.4176 24.5412ZM20.8278 22.0127C20.8278 21.7275 20.5879 21.4746 20.3027 21.4681C20.0109 21.4681 19.7581 21.708 19.7581 21.9868C19.7581 22.2721 20.0045 22.5573 20.2638 22.5573C20.5426 22.5573 20.8213 22.285 20.8278 22.0063V22.0127ZM13.9102 22.8556C13.9102 22.5768 13.6249 22.311 13.3396 22.311C13.0998 22.311 12.821 22.5962 12.8275 22.8491C12.8275 23.1343 13.0933 23.4002 13.3591 23.4002C13.6184 23.4002 13.9166 23.1084 13.9166 22.862L13.9102 22.8556Z" fill="currentColor"/>
  <path d="M10.8247 21.5391C10.7275 21.2992 10.8053 21.0917 10.909 20.8843C10.8766 21.1047 10.8053 21.3122 10.8247 21.5391Z" fill="currentColor"/>
</svg>
