<svg xmlns="http://www.w3.org/2000/svg" width="39" height="32" viewBox="0 0 39 32" fill="currentColor">
  <path fill-rule="evenodd" clip-rule="evenodd" d="M30.5733 15.9862C30.5733 15.9862 31.3709 15.954 31.5965 15.9379C31.822 15.9218 32.249 15.8976 32.5068 16.4293C32.5713 16.5663 32.9741 17.8714 33.0305 18.0326C33.0788 18.1856 33.1997 18.8946 32.668 19.0235C32.5713 19.0477 31.6287 19.241 31.6287 19.241L30.5652 15.9943L30.5733 15.9862ZM28.7687 9.96814C28.7687 9.96814 29.7999 10.0487 30.0577 10.0729C30.3155 10.097 30.4927 10.2179 30.5975 10.4596C30.6619 10.6046 31.0486 11.8131 31.097 11.942C31.1372 12.0709 31.3387 12.7959 30.7667 12.812C30.678 12.812 29.6468 12.812 29.6468 12.812L28.7767 9.9762L28.7687 9.96814ZM25.1191 6.52002C25.1191 6.52002 29.4696 7.18064 29.8724 7.24509C31.6851 7.55123 32.4746 9.09806 32.6921 9.82313C32.7646 10.0568 33.2722 11.7405 33.3366 11.9258C33.8281 13.3438 32.5793 14.0769 32.5793 14.0769C32.5793 14.0769 34.0134 14.3508 34.4967 15.5754C34.4967 15.5754 35.4071 18.379 35.4957 18.661C35.5844 18.951 36.2289 21.1826 34.0214 22.0044C33.7233 22.1171 30.1785 23.1161 30.1785 23.1161L25.1191 6.52808V6.52002Z" fill="currentColor"/>
  <path d="M7.50781 3.73267L14.6377 4.86056L15.7898 8.96125L14.1301 8.80818C14.1301 8.80818 18.2308 22.6893 18.3678 23.1163C18.8834 24.6792 19.1976 26.2985 16.9499 27.08C16.6598 27.1847 14.5652 27.8212 14.3154 27.8857C13.0184 28.2079 11.3749 28.2079 10.7384 26.081L8.12815 17.501L11.3346 17.2593C11.3346 17.2593 12.6558 21.6661 12.7606 21.9884C13.0506 22.9068 13.2359 23.2613 14.1463 23.0438C14.8149 22.8826 14.7908 22.5926 14.6135 21.9884C14.541 21.7306 10.682 8.51815 10.682 8.51815L8.86128 8.37313L7.51587 3.72461L7.50781 3.73267Z" fill="currentColor"/>
  <path d="M7.50781 3.73267L14.6377 4.86056L15.7898 8.96125L14.1301 8.80818C14.1301 8.80818 18.2308 22.6893 18.3678 23.1163C18.8834 24.6792 19.1976 26.2985 16.9499 27.08C16.6598 27.1847 14.5652 27.8212 14.3154 27.8857C13.0184 28.2079 11.3749 28.2079 10.7384 26.081L8.12815 17.501L11.3346 17.2593C11.3346 17.2593 12.6558 21.6661 12.7606 21.9884C13.0506 22.9068 13.2359 23.2613 14.1463 23.0438C14.8149 22.8826 14.7908 22.5926 14.6135 21.9884C14.541 21.7306 10.682 8.51815 10.682 8.51815L8.86128 8.37313L7.51587 3.72461L7.50781 3.73267Z" fill="currentColor"/>
  <path d="M18.1426 5.36824C18.4568 5.42464 20.7448 5.80329 21.1315 5.86774C21.5182 5.93219 23.6532 6.30278 24.2171 8.38132C24.3541 8.89693 25.4819 12.5465 25.4819 12.5465L22.775 12.5223C22.775 12.5223 22.2755 10.7579 22.1627 10.4518C21.9049 9.70257 21.8888 9.50921 21.0751 9.38837C20.2534 9.29169 20.2936 9.65423 20.4789 10.2665C20.5756 10.5807 23.0328 19.201 23.1456 19.5716C23.4356 20.5545 23.5081 20.9412 24.3782 20.764C25.1275 20.5787 24.9905 20.1517 24.7972 19.4347C24.7327 19.193 23.9593 16.6069 23.9593 16.6069L26.6501 16.3974C26.6501 16.3974 28.0197 20.9734 28.0922 21.1909C28.1647 21.4004 28.7367 23.2614 27.1093 24.059C26.8999 24.1637 26.8999 24.1799 26.6823 24.2524C26.4648 24.3249 24.2896 24.9774 24.0801 25.0338C23.8707 25.0902 21.8002 25.767 21.1235 23.5998C21.059 23.3903 16.6683 8.20408 16.4346 7.45484C16.0399 6.19805 16.4588 5.11849 18.1426 5.36824Z" fill="currentColor"/>
  <path fill-rule="evenodd" clip-rule="evenodd" d="M4.6317 1.3395C5.96906 1.57314 29.2197 5.56909 30.2509 5.75439C31.2822 5.93969 33.0223 6.19749 33.7474 8.47744C33.8924 8.92054 37.0425 18.9024 37.1714 19.3294C37.3003 19.7644 38.2187 22.0363 35.6245 22.8903C35.2378 23.0192 13.3809 30.2296 12.8492 30.3908C12.3175 30.5599 10.255 31.4703 9.40107 28.3203C9.40107 28.3203 2.7304 5.96386 2.42426 4.94875C2.17451 4.127 1.99727 3.47444 1.95699 2.95883C1.82809 1.12198 2.89958 1.06559 3.78578 1.19449C4.1161 1.24283 4.41418 1.29116 4.6317 1.33145M4.02748 0.0907652C4.61559 0.179385 29.9931 4.61039 30.6457 4.72318C31.2983 4.83596 33.7957 5.11794 34.7947 8.13907C34.9881 8.71913 38.1462 18.7654 38.2993 19.2649C38.8551 21.1179 38.6134 23.0595 36.3013 23.8812C35.5359 24.1471 13.7596 31.4623 13.4856 31.5509C12.8895 31.7523 9.6911 33.2508 8.52293 29.3434C8.52293 29.3354 1.47361 5.89135 1.26414 5.18239C0.941887 4.08672 0.732422 3.16024 0.732422 2.46739C0.732422 -0.577913 3.45547 0.0263143 4.02748 0.0907652Z" fill="currentColor"/>
</svg>
