<svg xmlns="http://www.w3.org/2000/svg" width="28" height="32" viewBox="0 0 28 32" fill="none">
  <path d="M4.86409 3.4699C4.86409 3.4699 4.80626 3.48918 4.77413 3.49561C7.44724 3.88115 10.7115 4.08678 14.1622 4.08678C17.6128 4.08678 20.8771 3.87473 23.5502 3.49561C23.518 3.48918 23.4923 3.47633 23.4602 3.4699C23.9935 3.39922 24.4048 2.94942 24.4048 2.40323C24.4048 2.20403 24.347 2.02411 24.257 1.86347C23.9743 0.822496 19.5662 0 14.1622 0C8.7581 0 4.52996 0.790367 4.09301 1.79921C3.97734 1.9727 3.91309 2.17833 3.91309 2.3968C3.91309 2.94942 4.32433 3.39922 4.85767 3.46348L4.86409 3.4699Z" fill="currentColor"/>
  <path d="M23.0615 18.5572C20.6518 18.9942 17.5032 19.2383 14.1618 19.2383C10.8205 19.2383 7.67826 18.9942 5.26218 18.5508C2.60835 19.0841 0.603516 21.4295 0.603516 24.2376C0.603516 26.5508 1.96577 28.5428 3.92563 29.4681C3.92563 29.5131 3.91278 29.5517 3.91278 29.5966C3.91278 29.7958 3.97061 29.9758 4.06057 30.1364C4.3433 31.1774 8.75136 31.9999 14.1554 31.9999C19.5595 31.9999 23.7876 31.2095 24.2246 30.2007C24.3402 30.0272 24.4045 29.8215 24.4045 29.6031C24.4045 29.5581 24.3981 29.5195 24.3916 29.4746C26.3515 28.5492 27.7137 26.5573 27.7137 24.244C27.7137 21.4359 25.7089 19.0905 23.0551 18.5636L23.0615 18.5572Z" fill="currentColor"/>
  <path d="M25.1883 5.03125C22.2324 5.57101 18.3256 5.87302 14.1681 5.87302C10.0107 5.87302 6.1038 5.57101 3.14796 5.03125C1.61863 6.07222 0.616211 7.82645 0.616211 9.81201C0.616211 12.6201 2.62104 14.9655 5.27488 15.4924V16.8032C7.6524 17.253 10.8075 17.5036 14.1745 17.5036C17.5416 17.5036 20.6902 17.253 23.0742 16.8032V15.4924C25.728 14.9655 27.7329 12.6201 27.7329 9.81201C27.7329 7.82002 26.7304 6.07222 25.2011 5.03125H25.1883Z" fill="currentColor"/>
</svg>
