<svg xmlns="http://www.w3.org/2000/svg" width="46" height="32" viewBox="0 0 46 32" fill="none">
  <path d="M27.6846 28.6782C27.6846 28.6782 27.7042 28.6848 27.7173 28.6913C27.7042 28.6913 27.6977 28.6848 27.6846 28.6782Z" fill="currentColor"/>
  <path d="M27.7173 3.28809C27.7173 3.28809 27.6977 3.29464 27.6846 3.30119C27.6977 3.30119 27.7042 3.29464 27.7173 3.28809Z" fill="currentColor"/>
  <path d="M27.1008 3.53027C27.1008 3.53027 27.0746 3.54338 27.0615 3.54338L27.1008 3.53027Z" fill="currentColor"/>
  <path d="M23.5963 6.45351L25.2343 9.32333C25.3588 9.49369 25.6274 9.75577 26.0009 9.48058C26.4399 9.05469 26.9182 8.66812 27.4358 8.33396C27.5341 8.18982 27.6062 7.9867 27.5603 7.69841L26.9051 3.98992C26.8592 3.71473 26.6889 3.72783 26.6365 3.74094C25.575 4.2389 24.5922 4.86135 23.7077 5.60174C23.3997 5.91624 23.6028 6.45351 23.6028 6.45351H23.5963Z" fill="currentColor"/>
  <path d="M29.1529 21.2485C29.238 21.2813 29.3363 21.2354 29.3691 21.1503L29.9457 19.6302C29.9784 19.545 29.9326 19.4467 29.8474 19.4139C29.7622 19.3812 29.6639 19.427 29.6312 19.5122L29.0546 21.0323C29.0218 21.1175 29.0677 21.2158 29.1529 21.2485Z" fill="currentColor"/>
  <path d="M29.8609 21.6599C29.946 21.6927 30.0443 21.6468 30.0771 21.5617L30.6209 20.1267C30.6537 20.0416 30.6078 19.9433 30.5226 19.9105C30.4374 19.8778 30.3392 19.9236 30.3064 20.0088L29.7626 21.4437C29.7298 21.5289 29.7757 21.6272 29.8609 21.6599Z" fill="currentColor"/>
  <path d="M28.4585 20.6712C28.5437 20.7039 28.642 20.6581 28.6747 20.5729L29.2186 19.138C29.2513 19.0528 29.2055 18.9545 29.1203 18.9218C29.0351 18.889 28.9368 18.9349 28.9041 19.02L28.3602 20.4549C28.3275 20.5401 28.3733 20.6384 28.4585 20.6712Z" fill="currentColor"/>
  <path d="M30.6275 21.982C30.7126 22.0148 30.8109 21.9689 30.8437 21.8837L31.3351 20.5799C31.3678 20.4947 31.322 20.3964 31.2368 20.3637C31.1516 20.3309 31.0533 20.3768 31.0206 20.4619L30.5292 21.7658C30.4964 21.851 30.5423 21.9493 30.6275 21.982Z" fill="currentColor"/>
  <path d="M34.8273 10.3192C34.7421 10.2865 34.6438 10.3323 34.6111 10.4175L34.0673 11.8524C34.0345 11.9376 34.0804 12.0359 34.1655 12.0686C34.2507 12.1014 34.349 12.0555 34.3818 11.9703L34.9256 10.5354C34.9583 10.4503 34.9125 10.352 34.8273 10.3192Z" fill="currentColor"/>
  <path d="M34.06 9.99793C33.9749 9.96517 33.8766 10.011 33.8438 10.0962L33.3524 11.4001C33.3197 11.4853 33.3655 11.5835 33.4507 11.6163C33.5359 11.6491 33.6342 11.6032 33.6669 11.518L34.1583 10.2141C34.1911 10.129 34.1452 10.0307 34.06 9.99793Z" fill="currentColor"/>
  <path d="M27.7573 12.3183L29.1923 12.8621C29.2774 12.8949 29.3757 12.849 29.4085 12.7638C29.4412 12.6787 29.3954 12.5804 29.3102 12.5476L27.8753 12.0038C27.7901 11.971 27.6918 12.0169 27.6591 12.1021C27.6263 12.1872 27.6722 12.2855 27.7573 12.3183Z" fill="currentColor"/>
  <path d="M27.9737 14.8862C28.0065 14.801 27.9606 14.7028 27.8754 14.67L26.5716 14.1786C26.4864 14.1458 26.3881 14.1917 26.3554 14.2769C26.3226 14.3621 26.3685 14.4603 26.4536 14.4931L27.7575 14.9845C27.8427 15.0173 27.941 14.9714 27.9737 14.8862Z" fill="currentColor"/>
  <path d="M28.3657 11.6562L29.6696 12.1476C29.7548 12.1803 29.8531 12.1345 29.8858 12.0493C29.9186 11.9641 29.8727 11.8658 29.7875 11.8331L28.4837 11.3417C28.3985 11.3089 28.3002 11.3548 28.2675 11.44C28.2347 11.5251 28.2806 11.6234 28.3657 11.6562Z" fill="currentColor"/>
  <path d="M27.187 13.0116L28.7071 13.5882C28.7923 13.621 28.8906 13.5751 28.9233 13.49C28.9561 13.4048 28.9102 13.3065 28.8251 13.2737L27.305 12.6971C27.2198 12.6644 27.1215 12.7103 27.0887 12.7954C27.056 12.8806 27.1019 12.9789 27.187 13.0116Z" fill="currentColor"/>
  <path d="M26.7749 13.7206L28.2098 14.2645C28.295 14.2972 28.3933 14.2514 28.4261 14.1662C28.4588 14.081 28.4129 13.9827 28.3278 13.95L26.8929 13.4061C26.8077 13.3734 26.7094 13.4192 26.6766 13.5044C26.6439 13.5896 26.6897 13.6879 26.7749 13.7206Z" fill="currentColor"/>
  <path d="M27.7974 20.0626C27.8826 20.0953 27.9808 20.0495 28.0136 19.9643L28.505 18.6604C28.5378 18.5753 28.4919 18.477 28.4067 18.4442C28.3215 18.4115 28.2233 18.4573 28.1905 18.5425L27.6991 19.8464C27.6663 19.9315 27.7122 20.0298 27.7974 20.0626Z" fill="currentColor"/>
  <path d="M37.9186 18.2546L36.4837 17.7108C36.3985 17.6781 36.3002 17.7239 36.2675 17.8091C36.2347 17.8943 36.2806 17.9926 36.3657 18.0253L37.8007 18.5691C37.8858 18.6019 37.9841 18.556 38.0169 18.4709C38.0496 18.3857 38.0038 18.2874 37.9186 18.2546Z" fill="currentColor"/>
  <path d="M37.5067 18.9612L35.9866 18.3846C35.9014 18.3519 35.8032 18.3978 35.7704 18.4829C35.7376 18.5681 35.7835 18.6664 35.8687 18.6991L37.3888 19.2757C37.4739 19.3085 37.5722 19.2626 37.605 19.1775C37.6377 19.0923 37.5919 18.994 37.5067 18.9612Z" fill="currentColor"/>
  <path d="M32.3442 7.67871C27.7643 7.67871 24.0361 11.4069 24.0361 15.9868C24.0361 20.5667 27.7643 24.2948 32.3442 24.2948C36.9241 24.2948 40.6523 20.5667 40.6523 15.9868C40.6523 11.4069 36.9241 7.67871 32.3442 7.67871ZM25.8969 14.5715C25.8969 14.5715 26.1852 13.2873 26.8797 12.2717C27.6726 11.1186 28.734 10.4503 28.734 10.4503L30.6144 11.7476L27.7774 15.8688L25.8969 14.5715ZM30.9289 22.434C30.9289 22.434 29.6447 22.1458 28.6292 21.4512C27.476 20.6584 26.8077 19.597 26.8077 19.597L28.105 17.7165L32.2263 20.5536L30.9289 22.434ZM33.7595 9.54606C33.7595 9.54606 35.0437 9.83435 36.0592 10.5289C37.2124 11.3217 37.8807 12.3831 37.8807 12.3831L36.5834 14.2636L32.4621 11.4265L33.7595 9.54606ZM37.8087 19.7084C37.0158 20.8615 35.9544 21.5299 35.9544 21.5299L34.074 20.2325L36.911 16.1113L38.7915 17.4086C38.7915 17.4086 38.5032 18.6928 37.8087 19.7084Z" fill="currentColor"/>
  <path d="M38.2407 17.4879L36.9368 16.9965C36.8516 16.9637 36.7533 17.0096 36.7206 17.0947C36.6878 17.1799 36.7337 17.2782 36.8189 17.311L38.1227 17.8024C38.2079 17.8351 38.3062 17.7893 38.339 17.7041C38.3717 17.6189 38.3259 17.5206 38.2407 17.4879Z" fill="currentColor"/>
  <path d="M35.5349 10.7318C35.4497 10.6991 35.3514 10.7449 35.3187 10.8301L34.7421 12.3502C34.7093 12.4354 34.7552 12.5336 34.8403 12.5664C34.9255 12.5992 35.0238 12.5533 35.0566 12.4681L35.6332 10.948C35.6659 10.8629 35.6201 10.7646 35.5349 10.7318Z" fill="currentColor"/>
  <path d="M36.9303 19.6624L35.4954 19.1185C35.4102 19.0858 35.3119 19.1316 35.2792 19.2168C35.2464 19.302 35.2923 19.4003 35.3775 19.433L36.8124 19.9769C36.8975 20.0096 36.9958 19.9638 37.0286 19.8786C37.0613 19.7934 37.0155 19.6951 36.9303 19.6624Z" fill="currentColor"/>
  <path d="M36.3217 20.3238L35.0179 19.8324C34.9327 19.7996 34.8344 19.8455 34.8016 19.9307C34.7689 20.0159 34.8147 20.1141 34.8999 20.1469L36.2038 20.6383C36.289 20.6711 36.3872 20.6252 36.42 20.54C36.4528 20.4549 36.4069 20.3566 36.3217 20.3238Z" fill="currentColor"/>
  <path d="M36.897 11.9105C36.8118 11.8778 36.7135 11.9236 36.6807 12.0088L36.1893 13.3127C36.1566 13.3979 36.2024 13.4961 36.2876 13.5289C36.3728 13.5617 36.4711 13.5158 36.5038 13.4306L36.9952 12.1267C37.028 12.0416 36.9821 11.9433 36.897 11.9105Z" fill="currentColor"/>
  <path d="M36.2355 11.309C36.1503 11.2762 36.0521 11.3221 36.0193 11.4072L35.4755 12.8422C35.4427 12.9273 35.4886 13.0256 35.5738 13.0584C35.6589 13.0911 35.7572 13.0453 35.79 12.9601L36.3338 11.5252C36.3666 11.44 36.3207 11.3417 36.2355 11.309Z" fill="currentColor"/>
  <path d="M20.8574 10.0231L23.3734 12.1591C23.5437 12.2771 23.8713 12.4278 24.1269 12.074C24.3955 11.5039 24.7297 10.9732 25.1097 10.4752C25.149 10.3114 25.1555 10.0887 25.0114 9.83969L23.1244 6.57674C22.9868 6.34086 22.8361 6.40638 22.7902 6.43914C21.9712 7.25816 21.257 8.18856 20.6673 9.19758C20.4904 9.59726 20.8574 10.0297 20.8574 10.0297V10.0231Z" fill="currentColor"/>
  <path d="M27.3828 4.03579L27.9397 7.29219C27.9922 7.48875 28.156 7.82291 28.5818 7.71152C29.1453 7.45599 29.735 7.25287 30.3575 7.11528C30.4951 7.017 30.6327 6.84664 30.6851 6.5649L31.3403 2.84986C31.3861 2.59433 31.2486 2.54191 31.183 2.52881C30.0102 2.62709 28.8767 2.87607 27.8087 3.26264C27.3894 3.43955 27.3894 4.03579 27.3894 4.03579H27.3828Z" fill="currentColor"/>
  <path d="M21.434 22.9515L24.5462 21.8377C24.7297 21.7459 25.0376 21.5297 24.8411 21.1235C24.4938 20.6124 24.1924 20.0686 23.95 19.4855C23.8255 19.3675 23.6355 19.2627 23.3538 19.2627H19.5863C19.3046 19.2627 19.2915 19.4331 19.298 19.4855C19.5994 20.6255 20.0515 21.7001 20.6281 22.696C20.8836 23.0433 21.4405 22.945 21.4405 22.945L21.434 22.9515Z" fill="currentColor"/>
  <path d="M19.515 14.3093L22.6142 15.4559C22.8107 15.5084 23.1711 15.5346 23.2956 15.1218C23.3546 14.4797 23.4791 13.8638 23.6691 13.2675C23.6494 13.0972 23.5708 12.8941 23.3546 12.7172L20.4651 10.2929C20.2554 10.116 20.1375 10.2274 20.0982 10.2732C19.6133 11.315 19.2595 12.4289 19.0498 13.5951C19.0236 14.0276 19.515 14.3028 19.515 14.3028V14.3093Z" fill="currentColor"/>
  <path d="M31.7735 3.05872L31.1838 6.30857C31.1707 6.51168 31.2035 6.8786 31.6425 6.91791C31.8784 6.89826 32.1142 6.88515 32.3501 6.88515C32.7432 6.88515 33.1298 6.91136 33.5098 6.96378C33.6736 6.91791 33.8636 6.80653 34.0078 6.55755L35.8882 3.2946C36.0324 3.04562 35.8882 2.95389 35.8358 2.93423C34.7351 2.63939 33.5885 2.48214 32.396 2.47559C31.9635 2.52145 31.767 3.05872 31.767 3.05872H31.7735Z" fill="currentColor"/>
  <path d="M28.4647 28.3366L30.1355 25.4864C30.2207 25.3029 30.3124 24.9491 29.9193 24.7591C29.3099 24.5888 28.7268 24.3594 28.1699 24.0711C27.9995 24.058 27.7833 24.0974 27.5605 24.2808L24.6776 26.7051C24.481 26.8755 24.5466 26.9999 24.5924 27.0524C25.5294 27.7076 26.5515 28.2514 27.6391 28.6576C28.0781 28.8018 28.4647 28.3366 28.4647 28.3366Z" fill="currentColor"/>
  <path d="M36.3719 3.08468C36.3719 3.08468 36.3523 3.08468 36.3457 3.07812H36.3719V3.08468Z" fill="currentColor"/>
  <path d="M37.0083 3.30119C37.0083 3.30119 36.9887 3.29464 36.9756 3.28809C36.9887 3.28809 36.9952 3.29464 37.0083 3.30119Z" fill="currentColor"/>
  <path d="M36.2286 3.64271L34.5578 6.49287C34.4727 6.67633 34.3809 7.03014 34.7741 7.22015C35.3834 7.39051 35.9665 7.61983 36.5235 7.90813C36.6938 7.92123 36.91 7.88192 37.1328 7.69846L40.0157 5.27418C40.2123 5.10383 40.1468 4.97934 40.1009 4.92692C39.164 4.27171 38.1418 3.72788 37.0542 3.32165C36.6152 3.17751 36.2286 3.64271 36.2286 3.64271Z" fill="currentColor"/>
  <path d="M43.2535 9.02826L40.1413 10.1421C39.9578 10.2338 39.6499 10.4501 39.8464 10.8563C40.1937 11.3674 40.4951 11.9112 40.7375 12.4943C40.862 12.6123 41.052 12.7171 41.3338 12.7171H45.1012C45.383 12.7171 45.3961 12.5467 45.3895 12.4943C45.0881 11.3543 44.636 10.2797 44.0594 9.28379C43.8039 8.93653 43.247 9.03481 43.247 9.03481L43.2535 9.02826Z" fill="currentColor"/>
  <path d="M45.6567 13.686C45.5322 13.2732 44.9753 13.1749 44.9753 13.1749L41.673 13.1553C41.4699 13.1749 41.1227 13.2732 41.1489 13.6925C41.3061 14.2953 41.4044 14.9243 41.4306 15.5664C41.5092 15.7171 41.6468 15.8809 41.9155 15.9792L45.4601 17.2634C45.7091 17.3552 45.7812 17.2241 45.8009 17.1652C45.8336 16.772 45.8533 16.3789 45.8533 15.9792C45.8533 15.193 45.7812 14.4264 45.6567 13.6794V13.686Z" fill="currentColor"/>
  <path d="M40.2198 5.71243L37.6776 7.82221C37.5334 7.97291 37.3172 8.28086 37.6514 8.60191C38.1493 8.96227 38.6145 9.36851 39.0273 9.8206C39.1846 9.89267 39.4008 9.93199 39.676 9.8337L43.2141 8.54294C43.4565 8.45121 43.4369 8.30706 43.4172 8.2481C42.7423 7.28494 41.9495 6.42006 41.0585 5.66657C40.6981 5.43724 40.2198 5.71898 40.2198 5.71898V5.71243Z" fill="currentColor"/>
  <path d="M45.1794 17.6692L42.0803 16.5226C41.8837 16.4702 41.5234 16.444 41.3989 16.8568C41.3399 17.4989 41.2154 18.1148 41.0254 18.711C41.045 18.8814 41.1237 19.0845 41.3399 19.2614L44.2294 21.6857C44.439 21.8626 44.557 21.7512 44.5963 21.7053C45.0811 20.6635 45.435 19.5497 45.6446 18.3834C45.6708 17.951 45.1794 17.6758 45.1794 17.6758V17.6692Z" fill="currentColor"/>
  <path d="M24.4745 26.2675L27.0167 24.1577C27.1609 24.007 27.3771 23.699 27.0429 23.378C26.545 23.0176 26.0798 22.6114 25.6604 22.1593C25.5032 22.0872 25.287 22.0479 25.0118 22.1462L21.4736 23.437C21.2312 23.5287 21.2509 23.6728 21.2705 23.7318C21.9454 24.6884 22.7382 25.5598 23.6293 26.3133C23.9897 26.5427 24.468 26.2609 24.468 26.2609L24.4745 26.2675Z" fill="currentColor"/>
  <path d="M19.711 18.7974L23.0132 18.8171C23.2164 18.7974 23.5636 18.6991 23.5374 18.2798C23.3802 17.677 23.2819 17.048 23.2557 16.4059C23.1771 16.2552 23.0395 16.0914 22.7708 15.9931L19.2261 14.7089C18.9772 14.6172 18.9051 14.7482 18.8854 14.8072C18.8527 15.2003 18.833 15.5934 18.833 15.9931C18.833 16.7794 18.9051 17.5459 19.0296 18.2929C19.1541 18.7057 19.711 18.804 19.711 18.804V18.7974Z" fill="currentColor"/>
  <path d="M36.9756 28.684C36.9756 28.684 36.9952 28.6775 37.0083 28.6709C36.9952 28.6709 36.9887 28.6774 36.9756 28.684Z" fill="currentColor"/>
  <path d="M37.3084 27.944L36.7515 24.6876C36.6991 24.4911 36.5353 24.1569 36.1094 24.2683C35.5459 24.5238 34.9562 24.7269 34.3338 24.8645C34.1962 24.9628 34.0586 25.1332 34.0062 25.4149L33.351 29.1299C33.3051 29.3855 33.4427 29.4379 33.5082 29.451C34.6811 29.3527 35.8146 29.1037 36.8826 28.7172C37.3019 28.5403 37.3019 27.944 37.3019 27.944H37.3084Z" fill="currentColor"/>
  <path d="M28.3203 28.8945C28.3203 28.8945 28.34 28.8945 28.3465 28.9011H28.3203V28.8945Z" fill="currentColor"/>
  <path d="M43.8293 21.9557L41.3133 19.8197C41.1429 19.7018 40.8153 19.5511 40.5598 19.9049C40.2911 20.4749 39.957 21.0057 39.577 21.5036C39.5376 21.6674 39.5311 21.8902 39.6752 22.1392L41.5622 25.4021C41.6998 25.638 41.8505 25.5725 41.8964 25.5397C42.7154 24.7207 43.4296 23.7903 44.0193 22.7813C44.1962 22.3816 43.8293 21.9492 43.8293 21.9492V21.9557Z" fill="currentColor"/>
  <path d="M32.9202 28.9197L33.5099 25.6699C33.523 25.4667 33.4902 25.0998 33.0512 25.0605C32.8153 25.0802 32.5795 25.0933 32.3436 25.0933C31.9505 25.0933 31.5639 25.0671 31.1839 25.0146C31.0201 25.0605 30.83 25.1719 30.6859 25.4209L28.8054 28.6838C28.6613 28.9328 28.8054 29.0245 28.8579 29.0442C29.9586 29.339 31.1052 29.4963 32.2977 29.5028C32.7302 29.457 32.9267 28.9197 32.9267 28.9197H32.9202Z" fill="currentColor"/>
  <path d="M37.5918 28.4491C37.5918 28.4491 37.618 28.436 37.6246 28.436L37.5918 28.4491Z" fill="currentColor"/>
  <path d="M41.0973 25.5267L39.4593 22.6569C39.3348 22.4866 39.0662 22.2245 38.6927 22.4997C38.2537 22.9256 37.7754 23.3121 37.2578 23.6463C37.1595 23.7904 37.0874 23.9935 37.1333 24.2818L37.7885 27.9903C37.8344 28.2655 38.0047 28.2524 38.0571 28.2393C39.1186 27.7413 40.1014 27.1189 40.9859 26.3785C41.2939 26.064 41.0908 25.5267 41.0908 25.5267H41.0973Z" fill="currentColor"/>
  <path d="M11.4487 10.2344L11.7042 10.4703C11.9335 10.6799 11.9466 11.0403 11.737 11.2696L11.5404 11.4793L14.9737 14.6505C15.0786 14.5719 15.1834 14.5063 15.3013 14.4408L13.9188 9.97884L13.6436 10.064C13.3422 10.1558 13.0212 9.99195 12.9295 9.69055L12.8377 9.40226L12.5953 8.62256H12.5757C12.1498 8.87809 11.4618 9.27122 10.9769 9.55296L11.0425 9.61193L10.918 9.74952L11.4421 10.2344H11.4487Z" fill="currentColor"/>
  <path d="M14.993 9.64376L14.7178 9.72894L16.1003 14.1909C16.2313 14.1778 16.3624 14.1713 16.4868 14.1778L17.5286 9.62411L17.2469 9.55858C16.9389 9.48651 16.7489 9.18511 16.821 8.87717L16.8931 8.56922L17.0765 7.76331L16.9914 7.74365H15.1437L15.1699 7.82883L15.0388 7.86814L15.2682 8.60198L15.373 8.92958C15.4647 9.23098 15.2944 9.54548 14.9995 9.63721L14.993 9.64376Z" fill="currentColor"/>
  <path d="M11.1081 21.1688L11.3178 21.3654L14.5021 17.9321C14.4235 17.8273 14.358 17.7224 14.2924 17.6045L9.81736 18.9935L9.90254 19.2687C9.99426 19.5701 9.82391 19.8846 9.52907 19.9764L9.20146 20.0812L8.64453 20.2515C8.89351 20.684 9.28664 21.372 9.56838 21.8568L9.62735 21.7913L9.69942 21.8568L10.0729 21.4571L10.3088 21.2016C10.525 20.9723 10.8854 20.9592 11.1147 21.1688H11.1081Z" fill="currentColor"/>
  <path d="M17.772 23.3909L18.0472 23.3057L16.6647 18.8438C16.5336 18.8569 16.4026 18.8634 16.2781 18.8569L15.2363 23.4106L15.5181 23.4761C15.826 23.5482 16.016 23.8496 15.944 24.1575L15.8653 24.4917L15.7408 25.0355L15.8588 25.0617H17.6934L17.4903 24.3999L17.3985 24.0985C17.3068 23.7971 17.4771 23.4826 17.772 23.3909Z" fill="currentColor"/>
  <path d="M24.4609 28.9729C24.6968 29.1564 24.7689 29.4905 24.6116 29.7592C24.4413 30.0475 24.0678 30.1458 23.7795 29.9754C23.4912 29.805 23.393 29.4316 23.5633 29.1433C23.7206 28.8746 24.0482 28.7764 24.3299 28.8943C23.8713 28.6126 23.4323 28.3046 23.0064 27.9836C21.0604 29.0909 18.8196 29.733 16.4281 29.733C9.08316 29.733 3.10764 23.7575 3.10764 16.4125C3.10764 9.06764 9.0766 3.08557 16.4215 3.08557C18.5641 3.08557 20.5887 3.59663 22.3774 4.49427C22.6657 4.24529 22.9671 4.00942 23.275 3.78009C23.1309 3.66871 23.0391 3.49835 23.0391 3.30179C23.0391 2.96763 23.3143 2.69244 23.6485 2.69244C23.9237 2.69244 24.153 2.8759 24.2316 3.13143C24.5854 2.91521 24.9458 2.7121 25.3127 2.52209C20.7393 -0.43291 15.7008 0.0257371 15.7008 0.0257371C10.3084 0.182988 7.24202 2.98074 6.99304 3.8063C8.09379 4.99223 7.67445 5.98815 7.22891 6.55818C7.20925 6.57784 7.1896 6.59094 7.16994 6.6106L1.65962 10.9219C1.65962 10.9219 0.945444 13.8703 0.893028 14.7221C0.473693 14.27 0.224713 14.4404 0.0674625 15.0432C-0.496018 20.809 2.65554 25.2775 2.65554 25.2775C5.48605 29.8706 9.45007 31.1286 10.2822 30.932C10.7539 29.4119 11.7957 29.2547 12.5099 29.3464C12.5427 29.3595 12.582 29.3661 12.6147 29.3792L19.1079 32C19.1079 32 22.017 31.1482 22.7771 30.7617C22.5936 31.3513 22.8688 31.4758 23.465 31.3186C24.4151 30.8861 25.2734 30.3685 26.0334 29.8116C25.4896 29.5692 24.9589 29.294 24.4544 28.9926L24.4609 28.9729ZM21.6435 2.0962C21.8532 2.0962 22.0236 2.26656 22.0236 2.47622C22.0236 2.68589 21.8532 2.85625 21.6435 2.85625C21.4339 2.85625 21.2635 2.68589 21.2635 2.47622C21.2635 2.26656 21.4339 2.0962 21.6435 2.0962ZM8.59175 3.30834C8.92591 3.30834 9.20109 3.58353 9.20109 3.91769C9.20109 4.25184 8.92591 4.52703 8.59175 4.52703C8.25759 4.52703 7.9824 4.25184 7.9824 3.91769C7.9824 3.58353 8.25759 3.30834 8.59175 3.30834ZM0.794746 16.7926C0.630943 16.4977 0.742329 16.1308 1.03717 15.967C1.33202 15.8032 1.69894 15.9146 1.86274 16.2094C2.02654 16.5043 1.91516 16.8712 1.62031 17.035C1.32547 17.1988 0.958549 17.0874 0.794746 16.7926ZM1.7448 19.0006C1.56134 19.0989 1.33202 19.0334 1.22718 18.8499C1.1289 18.6665 1.19442 18.4371 1.37788 18.3323C1.56134 18.234 1.79067 18.2996 1.8955 18.483C1.99378 18.6665 1.92826 18.8958 1.7448 19.0006ZM9.37145 29.9688C9.0766 30.1327 8.70969 30.0213 8.54588 29.7264C8.38208 29.4316 8.49347 29.0647 8.78831 28.9009C9.08316 28.7371 9.45007 28.8484 9.61388 29.1433C9.77768 29.4381 9.66629 29.805 9.37145 29.9688Z" fill="currentColor"/>
  <path d="M11.9399 23.1806L11.5664 23.5803L11.6188 23.6262C12.0447 23.8752 12.7327 24.2683 13.2175 24.55L13.2372 24.4649H13.27L13.401 23.9079L13.4731 23.6C13.5451 23.292 13.8465 23.102 14.1545 23.1741L14.4362 23.2396L15.478 18.6859C15.3601 18.6335 15.2421 18.5745 15.1308 18.5024L11.9464 21.9357L12.1561 22.1323C12.3854 22.342 12.3985 22.7023 12.1889 22.9317L11.953 23.1806H11.9399Z" fill="currentColor"/>
  <path d="M3.85449 16.4057C3.85449 23.3378 9.49585 28.9792 16.428 28.9792C18.5836 28.9792 20.6082 28.4354 22.3838 27.4722C21.46 26.686 20.6344 25.7883 19.9268 24.799L17.8236 25.4476L17.7974 25.369V25.867C17.7974 25.9718 17.7122 26.0635 17.6008 26.0635H17.3584C17.2535 26.0635 17.1618 25.9783 17.1618 25.867V25.749C17.1618 25.7097 17.1291 25.6704 17.0832 25.6704H16.2314C16.1921 25.6704 16.1593 25.7032 16.1593 25.7425V25.867C16.1593 25.9718 16.0742 26.0635 15.9628 26.0635H15.7204C15.6155 26.0635 15.5238 25.9783 15.5238 25.867V25.4869L13.1061 24.9366L13.1257 24.8579L12.8767 25.2904C12.8243 25.3821 12.6998 25.4149 12.6081 25.3624L12.3984 25.2445C12.3067 25.1921 12.2739 25.0676 12.3264 24.9759L12.3853 24.871C12.405 24.8317 12.3919 24.7859 12.3591 24.7662L11.6253 24.3403C11.5925 24.3207 11.5467 24.3338 11.527 24.3665L11.468 24.4714C11.4156 24.5631 11.2911 24.5958 11.1994 24.5434L10.9897 24.4255C10.898 24.3731 10.8652 24.2486 10.9177 24.1569L11.1077 23.8293L9.28619 22.1388L9.3386 22.0798L8.90616 22.3288C8.81444 22.3812 8.68995 22.3485 8.63753 22.2567L8.51959 22.0471C8.46717 21.9554 8.49993 21.8309 8.59166 21.7784L8.6965 21.7195C8.73581 21.6998 8.74236 21.654 8.72271 21.6146L8.29682 20.8808C8.27716 20.848 8.2313 20.8349 8.19854 20.8546L8.0937 20.9136C8.00197 20.966 7.87748 20.9332 7.82507 20.8415L7.70713 20.6318C7.65471 20.5401 7.68747 20.4156 7.7792 20.3632L8.10681 20.1732L7.37952 17.8013L7.45815 17.7751H6.96019C6.85536 17.7751 6.76363 17.6899 6.76363 17.5785V17.3361C6.76363 17.2313 6.8488 17.1396 6.96019 17.1396H7.07813C7.11744 17.1396 7.15675 17.1068 7.15675 17.0609V16.2092C7.15675 16.1698 7.12399 16.1371 7.08468 16.1371H6.96019C6.85536 16.1371 6.76363 16.0519 6.76363 15.9405V15.6981C6.76363 15.5933 6.8488 15.5015 6.96019 15.5015H7.34021L7.89059 13.0838L7.96921 13.1035L7.53677 12.8545C7.44505 12.8021 7.41229 12.6776 7.4647 12.5858L7.58264 12.3762C7.63506 12.2844 7.75955 12.2517 7.85128 12.3041L7.95611 12.3631C7.99542 12.3827 8.04129 12.3696 8.06094 12.3369L8.48683 11.603C8.50649 11.5703 8.49338 11.5244 8.46062 11.5047L8.35579 11.4458C8.26406 11.3934 8.2313 11.2689 8.28371 11.1771L8.40165 10.9675C8.45407 10.8757 8.57856 10.843 8.67029 10.8954L8.99789 11.0854L10.6883 9.26393L10.7473 9.31635L10.4983 8.88391C10.4459 8.79218 10.4787 8.66769 10.5704 8.61527L10.7801 8.49733C10.8718 8.44492 10.9963 8.47768 11.0487 8.56941L11.1077 8.67424C11.1273 8.71355 11.1732 8.7201 11.2125 8.70045L11.9463 8.27456C11.9791 8.2549 11.9922 8.20904 11.9725 8.17628L11.9136 8.07145C11.8612 7.97972 11.8939 7.85523 11.9857 7.80281L12.1953 7.68487C12.2871 7.63246 12.4115 7.66522 12.464 7.75694L12.654 8.08455L15.0258 7.35727L15.052 7.43589V6.93793C15.052 6.8331 15.1372 6.74137 15.2486 6.74137H15.491C15.5959 6.74137 15.6876 6.82655 15.6876 6.93793V7.05587C15.6876 7.09518 15.7204 7.1345 15.7662 7.1345H16.618C16.6573 7.1345 16.6901 7.10173 16.6901 7.06242V6.93793C16.6901 6.8331 16.7752 6.74137 16.8866 6.74137H17.1291C17.2339 6.74137 17.3256 6.82655 17.3256 6.93793V7.31795L19.4944 7.81591C20.1496 6.80034 20.9227 5.86339 21.7942 5.03127C20.1692 4.25812 18.3477 3.82568 16.4345 3.82568C9.4893 3.83879 3.85449 9.4736 3.85449 16.4057Z" fill="currentColor"/>
  <path d="M7.76562 17.6904L7.8508 17.6642L7.89667 17.8149L8.51912 17.6249L8.7812 17.5463C9.0826 17.4545 9.40365 17.6183 9.49538 17.9197L9.58056 18.1949L14.0556 16.8059C14.0425 16.6748 14.036 16.5438 14.0425 16.4193L9.47572 15.3906L9.4102 15.6724C9.33813 15.9803 9.03673 16.1703 8.72878 16.0983L8.4667 16.0393L7.77218 15.882V17.6904H7.76562Z" fill="currentColor"/>
  <path d="M9.96709 12.3311L9.75087 12.128L9.19395 11.6104C8.94497 12.0362 8.55839 12.7111 8.2832 13.1829L8.36838 13.2025L8.32252 13.3925L8.95152 13.5367L9.28567 13.6087C9.59362 13.6808 9.78363 13.9822 9.71156 14.2902L9.64604 14.5719L14.2129 15.6006C14.2653 15.4826 14.3242 15.3647 14.3963 15.2599L10.963 12.0887L10.7665 12.2983C10.5502 12.5276 10.1899 12.5407 9.96054 12.3311H9.96709Z" fill="currentColor"/>
</svg>
