<svg xmlns="http://www.w3.org/2000/svg" width="40" height="32" viewBox="0 0 40 32" fill="none">
  <path d="M38.906 2.46042H35.9148L35.4629 1.66419H36.3093C36.5532 1.66419 36.7541 1.46334 36.7541 1.21945C36.7541 0.975559 36.5532 0.774709 36.3093 0.774709H34.9177C35.011 0.695803 35.0755 0.581032 35.0755 0.44474C35.0755 0.20085 34.8747 0 34.6308 0H30.8792C30.6353 0 30.4344 0.20085 30.4344 0.44474C30.4344 0.581032 30.499 0.695803 30.5922 0.774709H29.2006C28.9567 0.774709 28.7559 0.975559 28.7559 1.21945C28.7559 1.46334 28.9567 1.66419 29.2006 1.66419H30.0471L29.5951 2.46042H26.6039C26.36 2.46042 26.1592 2.66127 26.1592 2.90516C26.1592 3.14905 26.36 3.34272 26.6039 3.34272H29.6669L31.0155 5.16473V6.70697L29.9897 6.94369C29.753 7.00107 29.6023 7.23779 29.6597 7.4745C29.7171 7.71122 29.9538 7.86186 30.1905 7.80447L31.0226 7.6108V8.42854L29.9968 8.66526C29.7601 8.72265 29.6095 8.95936 29.6669 9.19608C29.7243 9.4328 29.961 9.58344 30.1977 9.52605L31.0298 9.33237V10.1501L30.004 10.3868C29.7673 10.4442 29.6167 10.6809 29.6741 10.9177C29.7315 11.1544 29.9682 11.305 30.2049 11.2476L31.037 11.0539V11.8717L30.0112 12.1084C29.7745 12.1658 29.6239 12.4025 29.6813 12.6392C29.7386 12.8759 29.9754 13.0266 30.2121 12.9692L31.0441 12.7755V13.5933L30.0184 13.83C29.7817 13.8874 29.631 14.1241 29.6884 14.3608C29.7458 14.5975 29.9825 14.7482 30.2193 14.6908L31.0513 14.4971V15.3148L30.0256 15.5516C29.7888 15.6089 29.6382 15.8457 29.6956 16.0824C29.753 16.3191 29.9897 16.4697 30.2264 16.4123L31.0585 16.2187V17.0364L30.0327 17.2731C29.796 17.3305 29.6454 17.5672 29.7028 17.804C29.7601 18.0407 29.9969 18.1913 30.2336 18.1339L31.0657 17.9402V18.758L30.0399 18.9947C29.8032 19.0521 29.6526 19.2888 29.7099 19.5255C29.7673 19.7622 30.004 19.9129 30.2407 19.8555L31.0728 19.6618V20.7019H30.0399C29.5378 20.7019 29.1289 21.1108 29.1289 21.6129V31.0816C29.1289 31.5837 29.5378 31.9926 30.0399 31.9926H35.5705C36.0726 31.9926 36.4815 31.5837 36.4815 31.0816V21.6129C36.4815 21.1108 36.0726 20.7019 35.5705 20.7019H34.5375V18.8656L35.5633 18.6289C35.8 18.5715 35.9506 18.3348 35.8933 18.0981C35.8359 17.8613 35.5992 17.7107 35.3624 17.7681L34.5303 17.9618V17.144L35.5561 16.9073C35.7928 16.8499 35.9435 16.6132 35.8861 16.3765C35.8287 16.1398 35.592 15.9891 35.3553 16.0465L34.5232 16.2402V15.4224L35.549 15.1857C35.7857 15.1283 35.9363 14.8916 35.8789 14.6549C35.8215 14.4182 35.5848 14.2676 35.3481 14.3249L34.516 14.5186V13.7009L35.5418 13.4642C35.7785 13.4068 35.9291 13.17 35.8717 12.9333C35.8143 12.6966 35.5776 12.546 35.3409 12.6034L34.5088 12.797V11.9793L35.5346 11.7426C35.7713 11.6852 35.922 11.4485 35.8646 11.2118C35.8072 10.975 35.5704 10.8244 35.3337 10.8818L34.5016 11.0755V10.2577L35.5274 10.021C35.7641 9.96362 35.9148 9.7269 35.8574 9.49018C35.8 9.25347 35.5633 9.10283 35.3266 9.16021L34.4945 9.35389V8.53614L35.5202 8.29943C35.757 8.24204 35.9076 8.00532 35.8502 7.76861C35.7928 7.53189 35.5561 7.38125 35.3194 7.43864L34.4873 7.63232V6.81457L35.5131 6.57785C35.7498 6.52047 35.9004 6.28375 35.843 6.04703C35.7857 5.81032 35.5489 5.65968 35.3122 5.71706L34.4801 5.91074V5.16473L35.8287 3.34272H38.8917C39.1356 3.34272 39.3292 3.14187 39.3292 2.90516C39.3292 2.66844 39.1284 2.46042 38.8917 2.46042H38.906Z" fill="currentColor"/>
  <path d="M9.55266 22.3013C9.55266 21.2468 8.29733 20.4219 6.6977 20.4219C5.09807 20.4219 3.84277 21.2468 3.84277 22.3013C3.84277 23.3557 5.09807 24.1806 6.6977 24.1806C8.29733 24.1806 9.55266 23.3557 9.55266 22.3013ZM4.37359 22.3013C4.37359 21.5696 5.43522 20.9455 6.6977 20.9455C7.96019 20.9455 9.02185 21.5624 9.02185 22.3013C9.02185 23.0401 7.96019 23.657 6.6977 23.657C5.43522 23.657 4.37359 23.0401 4.37359 22.3013Z" fill="currentColor"/>
  <path d="M22.8164 22.3013C22.8164 21.2468 21.561 20.4219 19.9614 20.4219C18.3617 20.4219 17.1064 21.2468 17.1064 22.3013C17.1064 23.3557 18.3617 24.1806 19.9614 24.1806C21.561 24.1806 22.8164 23.3557 22.8164 22.3013ZM17.6373 22.3013C17.6373 21.5696 18.6989 20.9455 19.9614 20.9455C21.2239 20.9455 22.2855 21.5624 22.2855 22.3013C22.2855 23.0401 21.2239 23.657 19.9614 23.657C18.6989 23.657 17.6373 23.0401 17.6373 22.3013Z" fill="currentColor"/>
  <path d="M6.70538 25.874C4.85468 25.874 3.35547 26.5985 3.35547 27.4952V30.3788C3.35547 31.2755 4.85468 32 6.70538 32C8.55607 32 10.0553 31.2755 10.0553 30.3788V27.4952C10.0553 26.5985 8.55607 25.874 6.70538 25.874Z" fill="currentColor"/>
  <path d="M19.969 25.874C18.1183 25.874 16.6191 26.5985 16.6191 27.4952V30.3788C16.6191 31.2755 18.1183 32 19.969 32C21.8197 32 23.3189 31.2755 23.3189 30.3788V27.4952C23.3189 26.5985 21.8197 25.874 19.969 25.874Z" fill="currentColor"/>
  <path d="M21.3605 3.38543C21.3605 3.80865 21.7049 4.16014 22.1353 4.16014H23.4551C23.8783 4.16014 24.2298 3.81582 24.2298 3.38543V0.781545C24.2298 0.358324 23.8855 0.00683594 23.4551 0.00683594H22.1353C21.712 0.00683594 21.3605 0.351151 21.3605 0.781545V0.889143H6.75586V3.27066H21.3605V3.37825V3.38543Z" fill="currentColor"/>
  <path d="M1.32548 8.19154H2.65253C3.07575 8.19154 3.42723 7.84722 3.42723 7.41683V7.30923H18.0319V4.92772H3.42723V4.82012C3.42723 4.3969 3.08293 4.04541 2.65253 4.04541H1.32548C0.90226 4.04541 0.550781 4.38973 0.550781 4.82012V7.424C0.550781 7.84722 0.895087 8.19871 1.32548 8.19871V8.19154Z" fill="currentColor"/>
  <path d="M12.4153 13.5358C12.4153 12.84 11.8701 12.2016 10.9806 11.721C10.8228 10.394 8.99362 9.34668 6.76274 9.34668C4.53187 9.34668 2.70271 10.394 2.5449 11.721C1.65542 12.2016 1.11026 12.84 1.11026 13.5358C1.11026 13.6506 1.13176 13.7654 1.16045 13.873C0.787446 14.3106 0.572266 14.8055 0.572266 15.322C0.572266 17.2085 3.3483 18.7436 6.7771 18.7436C10.2059 18.7436 12.9819 17.2157 12.9819 15.322C12.9819 14.8055 12.7667 14.3106 12.3937 13.873C12.4224 13.7654 12.444 13.6506 12.444 13.5358H12.4153ZM6.75559 12.4742C5.47158 12.4742 4.43144 12.1012 4.43144 11.6349C4.43144 11.1687 5.47158 10.7957 6.75559 10.7957C8.03959 10.7957 9.0797 11.1687 9.0797 11.6349C9.0797 12.1012 8.03959 12.4742 6.75559 12.4742Z" fill="currentColor"/>
  <path d="M25.6291 13.5358C25.6291 12.84 25.084 12.2016 24.1945 11.721C24.0367 10.394 22.2075 9.34668 19.9766 9.34668C17.7458 9.34668 15.9166 10.394 15.7588 11.721C14.8693 12.2016 14.3241 12.84 14.3241 13.5358C14.3241 13.6506 14.3456 13.7654 14.3743 13.873C14.0013 14.3106 13.7861 14.8055 13.7861 15.322C13.7861 17.2085 16.5622 18.7436 19.991 18.7436C23.4198 18.7436 26.1958 17.2157 26.1958 15.322C26.1958 14.8055 25.9806 14.3106 25.6076 13.873C25.6363 13.7654 25.6578 13.6506 25.6578 13.5358H25.6291ZM19.9695 12.4742C18.6854 12.4742 17.6453 12.1012 17.6453 11.6349C17.6453 11.1687 18.6854 10.7957 19.9695 10.7957C21.2535 10.7957 22.2936 11.1687 22.2936 11.6349C22.2936 12.1012 21.2535 12.4742 19.9695 12.4742Z" fill="currentColor"/>
</svg>
