<svg xmlns="http://www.w3.org/2000/svg" width="60" height="32" viewBox="0 0 60 32" fill="none">
  <path d="M6.05968 22.5034L1.49951 25.4811C1.38151 26.5708 1.66607 27.7924 2.37405 28.8752L8.80829 24.6759C8.10032 23.5931 7.10083 22.8435 6.05275 22.5104L6.05968 22.5034Z" fill="#86827A"/>
  <path d="M1.43668 25.0081L5.58736 22.3011C5.72617 22.2109 5.76088 22.0304 5.67064 21.8916L5.55959 21.7181C5.46935 21.5793 5.28889 21.5445 5.15007 21.6348L3.74802 22.551L3.76884 22.4607L3.63696 22.433L3.66473 22.3011L3.53285 22.2733L3.56062 22.1415L3.42874 22.1137L3.45649 21.9818L3.32461 21.9541L3.35238 21.8222L3.2205 21.7944L3.24827 21.6625L3.11639 21.6348L3.14416 21.5029L3.01228 21.4751L3.04005 21.3433L2.90817 21.3155L2.93592 21.1836L2.80404 21.1559L2.83181 21.024L2.69993 20.9962L2.7277 20.8643L2.59582 20.8366L2.62359 20.6978L1.29092 21.5654L1.4228 21.5931L1.39503 21.725L1.52691 21.7528L1.49916 21.8847L1.63102 21.9124L1.60327 22.0443L1.73515 22.0721L1.70738 22.2039L1.83926 22.2317L1.81149 22.3636L1.94337 22.3913L1.9156 22.5232L2.04748 22.551L2.01973 22.6829L2.15159 22.7106L2.12384 22.8425L2.25572 22.8703L2.22795 23.0021L2.35983 23.0299L2.33206 23.1618L2.46394 23.1895L2.43617 23.3214L2.53335 23.3422L0.999418 24.3417C0.860599 24.432 0.825877 24.6124 0.916109 24.7513L1.02717 24.9248C1.1174 25.0636 1.29786 25.0983 1.43668 25.0081Z" fill="#86827A"/>
  <path d="M36.8146 2.42285L32.2544 5.40051C32.1364 6.49023 32.421 7.71183 33.1289 8.79462L39.5632 4.59536C38.8552 3.51258 37.8557 2.76296 36.8076 2.42979L36.8146 2.42285Z" fill="#86827A"/>
  <path d="M34.9966 10.1971L31.311 11.6547L12.0361 24.2386L9.32912 26.9178L8.48925 25.6267L3.3877 28.9584L5.35197 31.9707C5.46302 32.1443 6.6985 31.5335 8.10056 30.6173C9.50263 29.7011 10.5577 28.8126 10.4466 28.646L10.4674 28.6808L36.135 11.9254C36.3709 11.9948 37.5301 11.4048 38.8489 10.5441C40.2579 9.62793 41.3059 8.73949 41.1949 8.57291L39.2306 5.56055L34.129 8.89219L34.9897 10.211L34.9966 10.1971Z" fill="#86827A"/>
  <path d="M32.1916 4.92848L36.3422 2.22152C36.481 2.13128 36.5157 1.95082 36.4255 1.812L36.3145 1.63848C36.2242 1.49966 36.0438 1.46496 35.9049 1.55519L34.5029 2.47139L34.5237 2.38116L34.3918 2.35339L34.4196 2.22152L34.2877 2.19375L34.3155 2.06188L34.1836 2.03411L34.2114 1.90223L34.0795 1.87447L34.1072 1.74259L33.9754 1.71483L34.0031 1.58295L33.8713 1.55519L33.899 1.42331L33.7671 1.39555L33.7949 1.26367L33.663 1.23591L33.6908 1.10403L33.5589 1.07626L33.5867 0.944387L33.4548 0.916624L33.4826 0.784746L33.3507 0.756982L33.3785 0.618164L32.0458 1.48578L32.1777 1.51354L32.1499 1.64542L32.2818 1.67318L32.254 1.80506L32.3859 1.83283L32.3581 1.9647L32.49 1.99247L32.4623 2.12434L32.5941 2.15211L32.5664 2.28399L32.6982 2.31175L32.6705 2.44363L32.8024 2.47139L32.7746 2.60327L32.9065 2.63103L32.8787 2.76291L33.0106 2.79067L32.9828 2.92255L33.1147 2.95031L33.0869 3.08219L33.2188 3.10995L33.191 3.24183L33.2882 3.26265L31.7543 4.26215C31.6155 4.35238 31.5808 4.53284 31.671 4.67166L31.782 4.84518C31.8723 4.984 32.0527 5.01871 32.1916 4.92848Z" fill="#86827A"/>
  <path d="M24.5909 21.8853L20.0308 24.8629C19.9128 25.9526 20.1973 27.1742 20.9053 28.257L27.3395 24.0578C26.6316 22.975 25.6321 22.2254 24.584 21.8922L24.5909 21.8853Z" fill="#86827A"/>
  <path d="M19.9679 24.3899L24.1186 21.6829C24.2574 21.5927 24.2921 21.4122 24.2019 21.2734L24.0908 21.0999C24.0006 20.9611 23.8201 20.9264 23.6813 21.0166L22.2793 21.9328L22.3001 21.8426L22.1682 21.8148L22.196 21.6829L22.0641 21.6552L22.0919 21.5233L21.96 21.4955L21.9877 21.3637L21.8559 21.3359L21.8836 21.204L21.7518 21.1763L21.7795 21.0444L21.6476 21.0166L21.6754 20.8847L21.5435 20.857L21.5713 20.7251L21.4394 20.6973L21.4672 20.5655L21.3353 20.5377L21.3631 20.4058L21.2312 20.378L21.259 20.2462L21.1271 20.2184L21.1548 20.0796L19.8222 20.9472L19.9541 20.975L19.9263 21.1068L20.0582 21.1346L20.0304 21.2665L20.1623 21.2943L20.1345 21.4261L20.2664 21.4539L20.2386 21.5858L20.3705 21.6135L20.3428 21.7454L20.4746 21.7732L20.4469 21.9051L20.5787 21.9328L20.551 22.0647L20.6828 22.0925L20.6551 22.2243L20.787 22.2521L20.7592 22.384L20.8911 22.4117L20.8633 22.5436L20.9952 22.5714L20.9674 22.7033L21.0646 22.7241L19.5307 23.7236C19.3918 23.8138 19.3571 23.9943 19.4474 24.1331L19.5584 24.3066C19.6487 24.4454 19.8291 24.4801 19.9679 24.3899Z" fill="#86827A"/>
  <path d="M55.339 1.80469L50.7788 4.78234C50.6608 5.87207 50.9454 7.09367 51.6533 8.17645L58.0876 3.9772C57.3796 2.89441 56.3801 2.14479 55.332 1.81163L55.339 1.80469Z" fill="#86827A"/>
  <path d="M53.5279 9.57892L49.8423 11.0365L30.5673 23.6204L27.8604 26.2996L27.0205 25.0086L21.9189 28.3402L23.8832 31.3526C23.9943 31.5261 25.2298 30.9153 26.6318 29.9991C28.0339 29.0829 29.0889 28.1945 28.9779 28.0279L28.9987 28.0626L54.6662 11.3072C54.9022 11.3766 56.0613 10.7866 57.3801 9.92596C58.7891 9.00976 59.8372 8.12132 59.7261 7.95474L57.7619 4.94238L52.6603 8.27402L53.521 9.5928L53.5279 9.57892Z" fill="#86827A"/>
  <path d="M50.716 4.31031L54.8667 1.60335C55.0055 1.51312 55.0402 1.33266 54.9499 1.19384L54.8389 1.02032C54.7487 0.881497 54.5682 0.846792 54.4294 0.937024L53.0273 1.85323L53.0481 1.76299L52.9163 1.73523L52.944 1.60335L52.8121 1.57559L52.8399 1.44371L52.708 1.41595L52.7358 1.28407L52.6039 1.25631L52.6317 1.12443L52.4998 1.09667L52.5276 0.964788L52.3957 0.937024L52.4235 0.805147L52.2916 0.777383L52.3193 0.645506L52.1875 0.617742L52.2152 0.485864L52.0833 0.458101L52.1111 0.326223L51.9792 0.29846L52.007 0.166582L51.8751 0.138818L51.9029 0L50.5702 0.867615L50.7021 0.895379L50.6743 1.02726L50.8062 1.05502L50.7785 1.1869L50.9103 1.21466L50.8826 1.34654L51.0145 1.3743L50.9867 1.50618L51.1186 1.53394L51.0908 1.66582L51.2227 1.69358L51.1949 1.82546L51.3268 1.85323L51.299 1.9851L51.4309 2.01287L51.4031 2.14474L51.535 2.17251L51.5072 2.30439L51.6391 2.33215L51.6114 2.46403L51.7432 2.49179L51.7155 2.62367L51.8127 2.64449L50.2787 3.64398C50.1399 3.73421 50.1052 3.91468 50.1954 4.0535L50.3065 4.22702C50.3967 4.36584 50.5772 4.40054 50.716 4.31031Z" fill="#86827A"/>
</svg>
