<svg width="40" height="40" fill="none" xmlns="http://www.w3.org/2000/svg"><path d="M13.537 20.733h22.182a1.22 1.22 0 001.178-.9l3.06-11.402A1.21 1.21 0 0038.78 6.91H11.057L8.917 0H1.392C.622 0 0 .617 0 1.382c0 .765.621 1.382 1.392 1.382h5.467l4.878 15.741c-1.147.675-2.267 2.07-2.267 4.628v.121c.136 1.486.667 2.593 1.582 3.29a3.57 3.57 0 002.167.716c.127 0 .236-.004.318-.013h22.93c.77 0 1.392-.617 1.392-1.382 0-.765-.622-1.382-1.392-1.382H13.455l-.04-.022-.16.036s-.303.027-.525-.153c-.25-.203-.417-.653-.48-1.27.017-1.967.979-2.291 1.282-2.34h.005zM16.239 40c2.564 0 4.642-2.064 4.642-4.61 0-2.545-2.078-4.609-4.642-4.609-2.564 0-4.642 2.064-4.642 4.61 0 2.545 2.078 4.61 4.642 4.61zm16.705 0c2.564 0 4.642-2.064 4.642-4.61 0-2.545-2.078-4.609-4.642-4.609-2.564 0-4.642 2.064-4.642 4.61 0 2.545 2.078 4.61 4.642 4.61z" fill="#1A1A1A"/></svg>