<svg width="69" height="49" fill="none" xmlns="http://www.w3.org/2000/svg"><path fill-rule="evenodd" clip-rule="evenodd" d="M5 0a5 5 0 00-5 5v31.525a5 5 0 005 5h37.433L49.83 49l7.398-7.475h5.873a5 5 0 005-5V5a5 5 0 00-5-5H5z" fill="#1A1A1A"/><path d="M13.592 17.56l-1.002-2.892-.983 2.893H8.985L7 12h2.339l1.089 3.541L11.62 12h2.182l1.155 3.525L16.062 12h2.15l-1.993 5.56h-2.627zM36.407 12h-5.68c-1.52 0-1.882.36-1.882 1.314v1.002c0 .725.559 1.161 1.648 1.161h2.88c.198 0 .285.076.285.285v.084c0 .22-.087.305-.284.305h-4.48v1.414H33.9c1.336 0 1.788-.421 1.788-1.33v-.826c0-.841-.493-1.322-1.657-1.322h-2.84c-.234 0-.312-.084-.312-.284v-.084c0-.2.078-.305.313-.305h6.645v4.147h2.183v-4.147h2.063V12h-5.676zm-7.682 10.729v1.807h-2.182v-5.56h4.636c1.656 0 2.19.227 2.19 1.33v1.093c0 1.11-.57 1.33-2.19 1.33h-2.454zm2.479-1.967c0-.253-.103-.369-.432-.369h-2.047v.966h2.047c.345 0 .432-.1.432-.389v-.212.004zm6.563 2.968H35.61l-.267.81H32.95l2.314-5.561h2.778l2.314 5.56h-2.314l-.275-.809zm-1.693-1.362h1.216l-.612-1.782-.604 1.782zm9.519 2.172v-1.515c0-.252-.103-.38-.535-.38h-1.96v1.89h-2.174v-5.56h4.825c1.623 0 1.977.329 1.977 1.33v.834c0 .488-.25.757-.612.857.337.076.645.344.645.797v1.743h-2.166v.004zm0-3.818c0-.213-.062-.329-.415-.329h-2.08v.978h2.08c.378 0 .415-.124.415-.377v-.272zm4.747 3.818v-4.147h-2.071V18.98h6.317v1.414h-2.064v4.147H50.34zm5.182 0v-1.414h4.16c.197 0 .283-.085.283-.305v-.084c0-.212-.086-.284-.283-.284H56.8c-1.089 0-1.648-.437-1.648-1.162v-1.002c0-.95.362-1.314 1.883-1.314h4.574v1.414h-4.106c-.234 0-.312.1-.312.305v.084c0 .2.078.284.312.284h2.84c1.163 0 1.657.481 1.657 1.322v.826c0 .91-.448 1.33-1.788 1.33h-4.69z" fill="#F8F5F0"/><path d="M27.87 15.441v-1.33h-6.974v-.697h6.974V12h-9.165v5.56h2.98v7.556-.148c0 .084-.02.148-.058.192-.665.497-1.101 1.27-1.101 2.148 0 1.486 1.237 2.692 2.762 2.692 1.524 0 2.762-1.206 2.762-2.692 0-.878-.436-1.655-1.102-2.143a.3.3 0 01-.057-.193v-7.411h2.98v-1.415h-6.975v-.705h6.974zm-4.582 13.017c-.654 0-1.18-.517-1.18-1.15 0-.633.53-1.15 1.18-1.15.65 0 1.18.517 1.18 1.15 0 .633-.53 1.15-1.18 1.15z" fill="#FBB81B"/></svg>