<svg width="79" height="102" fill="none" xmlns="http://www.w3.org/2000/svg"><path d="M77.185 1H1v100h76.185V1z" stroke="#86827A" stroke-width="2" stroke-miterlimit="10"/><path d="M68.547 9.623H9.623V22.52h58.924V9.623zM22.519 31.852H9.623v12.896h12.896V31.852zm24.312 0H33.935v12.896h12.896V31.852zm21.626 0H55.56v12.896h12.896V31.852zm-45.938 22.41H9.623v12.896h12.896V54.262zm24.312 0H33.935v12.896h12.896V54.262zm21.626 0H55.56v35.321h12.896V54.262zM22.519 76.688H9.623v12.896h12.896V76.687zm24.312 0H33.935v12.896h12.896V76.687z" stroke="#86827A" stroke-width="2" stroke-miterlimit="10"/></svg>