<svg xmlns="http://www.w3.org/2000/svg" width="79" height="102" fill="none"><path d="M77.185 1H1v100h76.185V1z" stroke="#1A1A1A" stroke-width="2" stroke-miterlimit="10"/><path d="M68.548 9.623H9.623v12.896h58.925V9.623z" stroke="#FBB81B" stroke-width="2" stroke-miterlimit="10"/><path d="M22.52 31.852H9.622v12.896H22.52V31.852zm24.311 0H33.935v12.896H46.83V31.852zm21.626 0H55.56v12.896h12.896V31.852zM22.52 54.262H9.622v12.896H22.52V54.262zm24.311 0H33.935v12.896H46.83V54.262zm21.626 0H55.56v35.321h12.896V54.262zM22.52 76.688H9.622v12.896H22.52V76.687zm24.311 0H33.935v12.896H46.83V76.687z" stroke="#1A1A1A" stroke-width="2" stroke-miterlimit="10"/></svg>