<svg xmlns="http://www.w3.org/2000/svg" width="33" height="42" fill="none"><path d="M31.474 1H1v40h30.474V1z" stroke="#F8F5F0" stroke-width="2" stroke-miterlimit="10"/><path d="M28.02 4.45H4.45v5.158h23.57V4.449z" stroke="#FBB81B" stroke-width="2" stroke-miterlimit="10"/><path d="M9.608 13.34H4.449v5.16h5.159v-5.16zm9.724 0h-5.158v5.16h5.158v-5.16zm8.651 0h-5.159v5.16h5.159v-5.16zM9.608 22.305H4.449v5.158h5.159v-5.158zm9.724 0h-5.158v5.158h5.158v-5.158zm8.651 0h-5.159v14.128h5.159V22.305zm-18.375 8.97H4.449v5.159h5.159v-5.16zm9.724 0h-5.158v5.159h5.158v-5.16z" stroke="#F8F5F0" stroke-width="2" stroke-miterlimit="10"/></svg>