<svg xmlns="http://www.w3.org/2000/svg" width="17" height="18" fill="none"><path d="M2.293 16.92A1.18 1.18 0 003.486 18h9.815c.625 0 1.137-.473 1.194-1.08L15.594 5.4h-14.4l1.099 11.52zM10.8 9a.61.61 0 01.606-.606.61.61 0 01.607.606v5.4a.61.61 0 01-.607.607.61.61 0 01-.606-.607V9zM7.787 9a.61.61 0 01.607-.606A.61.61 0 019 9v5.4a.61.61 0 01-.606.607.61.61 0 01-.607-.607V9zM4.794 9a.61.61 0 01.606-.606.61.61 0 01.606.606v5.4a.61.61 0 01-.606.607.61.61 0 01-.606-.607V9zm10.8-7.2H10.8v-.606C10.8.53 10.27 0 9.606 0H7.2c-.663 0-1.194.53-1.194 1.194V1.8H1.194C.53 1.8 0 2.33 0 2.994c0 .663.53 1.193 1.194 1.193h14.4c.663 0 1.193-.53 1.193-1.193S16.257 1.8 15.594 1.8z" fill="#86827A"/></svg>