<svg xmlns="http://www.w3.org/2000/svg" width="24" height="24" fill="none"><path d="M8.122 12.44h13.31c.331 0 .62-.221.707-.54l1.835-6.841a.726.726 0 00-.707-.913H6.634L5.35 0H.835A.83.83 0 000 .83a.83.83 0 00.835.828h3.28l2.927 9.445c-.688.405-1.36 1.242-1.36 2.777v.072c.082.892.4 1.556.95 1.975a2.143 2.143 0 001.49.421H21.88a.83.83 0 00.835-.829.83.83 0 00-.835-.83H8.073l-.024-.013-.096.022s-.182.016-.315-.092c-.15-.121-.25-.392-.288-.761.01-1.18.587-1.375.77-1.405h.002zM9.743 24a2.776 2.776 0 002.786-2.766 2.776 2.776 0 00-2.786-2.765 2.776 2.776 0 00-2.785 2.765A2.776 2.776 0 009.743 24zm10.023 0a2.776 2.776 0 002.786-2.766 2.775 2.775 0 00-2.786-2.765 2.775 2.775 0 00-2.785 2.765A2.776 2.776 0 0019.766 24z" fill="#86827A"/></svg>