<svg width="79" height="102" fill="none" xmlns="http://www.w3.org/2000/svg"><path d="M18.321 13.549H1V101h76.185V13.549h-17.32" stroke="#86827A" stroke-width="2" stroke-miterlimit="10" stroke-linecap="round"/><path d="M59.864 13.549v4.59H18.32v-4.59" stroke="#86827A" stroke-width="2" stroke-miterlimit="10" stroke-linecap="round"/><path d="M59.865 13.55V7.16H48.811c-1.797 0-3.337-1.102-4.123-2.703A6.232 6.232 0 0039.102 1a6.205 6.205 0 00-5.587 3.458c-.786 1.6-2.326 2.703-4.123 2.703H18.337v6.388m5.753 14.845h-9.393v9.392h9.393v-9.392zm0 16.973h-9.393v9.393h9.393v-9.393zm0 16.973h-9.393v9.394h9.393V62.34zm0 16.974h-9.393v9.393h9.393v-9.392zm5.813-46.224h33.6m-33.6 16.975h33.6m-33.6 16.972h33.6m-33.6 16.975h33.6" stroke="#86827A" stroke-width="2" stroke-miterlimit="10" stroke-linecap="round"/></svg>