<svg width="33" height="42" fill="none" xmlns="http://www.w3.org/2000/svg"><path d="M7.928 6.02H1V41h30.474V6.02h-6.928" stroke="#F8F5F0" stroke-width="2" stroke-miterlimit="10" stroke-linecap="round"/><path d="M24.546 6.02v1.836H7.929V6.02m16.617 0V3.465h-4.422c-.719 0-1.335-.441-1.649-1.082A2.493 2.493 0 0016.24 1c-.984 0-1.83.562-2.235 1.383-.314.64-.93 1.082-1.649 1.082H7.935V6.02" stroke="#FBB81B" stroke-width="2" stroke-miterlimit="10" stroke-linecap="round"/><path d="M10.236 11.957H6.479v3.758h3.757v-3.758zm0 6.79H6.479v3.757h3.757v-3.757zm0 6.79H6.479v3.757h3.757v-3.757zm0 6.789H6.479v3.757h3.757v-3.757zm2.326-18.49h13.44m-13.44 6.789h13.44m-13.44 6.79h13.44m-13.44 6.79h13.44" stroke="#F8F5F0" stroke-width="2" stroke-miterlimit="10" stroke-linecap="round"/></svg>