<svg width="42" height="42" fill="none" xmlns="http://www.w3.org/2000/svg"><path d="M21 42c11.598 0 21-9.402 21-21S32.598 0 21 0 0 9.402 0 21s9.402 21 21 21z" fill="url(#paint0_linear_1148_18686)"/><path fill-rule="evenodd" clip-rule="evenodd" d="M31.052 11.145c-2.512-2.512-5.862-3.93-9.405-3.93-7.344 0-13.335 5.992-13.335 13.27 0 2.32.58 4.639 1.804 6.636l-1.868 6.892 7.086-1.868a13.578 13.578 0 006.377 1.61c7.344 0 13.335-5.99 13.335-13.334 0-3.543-1.353-6.892-3.865-9.405l-.13.13zM21.647 31.63c-1.997 0-3.93-.515-5.604-1.546l-.387-.258-4.187 1.095 1.095-4.058-.258-.386a11.068 11.068 0 01-1.674-5.862c0-6.12 4.96-11.08 11.08-11.08 2.962 0 5.732 1.16 7.794 3.22a11.073 11.073 0 013.22 7.795c0 6.12-4.96 11.08-11.08 11.08zm6.055-8.31c-.322-.193-1.997-.966-2.255-1.095-.257-.129-.515-.193-.773.193-.193.322-.837 1.095-1.03 1.289-.193.193-.387.257-.709.064-.322-.193-1.417-.515-2.705-1.675-.967-.902-1.675-1.997-1.869-2.319-.193-.322 0-.515.13-.708.128-.13.322-.387.515-.58.193-.193.193-.322.322-.58.129-.193 0-.386 0-.58-.065-.193-.773-1.803-1.03-2.447-.258-.645-.516-.58-.774-.58h-.644c-.258 0-.58.064-.902.386-.322.322-1.16 1.16-1.16 2.77s1.16 3.221 1.353 3.414c.194.194 2.32 3.608 5.67 5.025.772.322 1.416.515 1.867.708.773.258 1.546.194 2.126.13.644-.065 1.997-.774 2.255-1.611.257-.773.257-1.417.193-1.61-.065-.13-.322-.194-.644-.387l.064.193z" fill="#fff"/><defs><linearGradient id="paint0_linear_1148_18686" x1="21" y1="38.908" x2="21" y2="-3.028" gradientUnits="userSpaceOnUse"><stop stop-color="#57B047"/><stop offset="1" stop-color="#83BF67"/></linearGradient></defs></svg>