<svg xmlns="http://www.w3.org/2000/svg" width="26" height="32" fill="currentColor"><path d="M25.796 10.79c-.144-.513-.494-.41-.494-.41h-2.997V7.302c0-1.725-.924-1.5-.924-1.5V4.078c.35 0 .328-.575.328-.575v-.369c0-.369-.41-.494-.41-.494h-1.765c-.472 0-.453.472-.453.472v.513c0 .512.512.471.512.471v1.54l-5.19-.143V2.497h.335a.37.37 0 00.368-.37v-.943a.37.37 0 00-.368-.368h-.335V0H12.3v.816h-.334a.37.37 0 00-.369.368v.944a.37.37 0 00.37.369h.333v2.996l-5.19.144v-1.54s.513.04.513-.472v-.513s.022-.472-.453-.472H5.404s-.409.122-.409.494v.369s-.022.575.328.575v1.724s-.925-.225-.925 1.5v3.078H1.411s-.35-.103-.494.41c-.143.512 0 1.662 0 1.662s.041.368.494.328c.453-.04 2.75-.15 2.75-.15s1.587 4.377 0 7.39c-.219.056-.966-.266-1.49.643-.529.91.227 1.594 1.1 1.594 0 .24-.285 6.883 1.849 8.464 2.3 1.519 7.74 1.263 7.74 1.263s5.44.256 7.74-1.263c2.133-1.58 1.85-8.224 1.85-8.464.87 0 1.624-.685 1.099-1.594-.528-.91-1.272-.587-1.49-.643-1.588-3.013 0-7.39 0-7.39s2.3.11 2.75.15c.452.04.493-.328.493-.328s.144-1.15 0-1.663h-.006z"/></svg>