<svg xmlns="http://www.w3.org/2000/svg" width="41" height="32" fill="currentColor"><path d="M21.366 2.828a25.073 25.073 0 013.275-.026c.421.026.577-.188.44-.622-.097-.318-.207-.629-.188-.979.04-.752.843-1.38 1.556-1.154.914.292 1.816.616 2.697.985.493.208.999.201 1.505.26.842.097 1.692.142 2.534.22.798.072 1.595.143 2.393.253.447.058.85-.084 1.264-.175.603-.123 1.2-.272 1.796-.415.583-.136 1.096-.032 1.478.46.376.493.409 1.025.13 1.576-.175.343-.169.687-.078 1.057.136.538.246 1.082.383 1.62.13.506 0 .98-.156 1.446l-1.517 4.662c-.208.622-.214 1.231.032 1.854.188.486.396.96.512 1.472.13.57-.116.998-.538 1.348-.428.35-.927.454-1.413.208-.752-.39-1.556-.312-2.347-.383-.156-.013-.188.026-.136.188.285.895-.045 1.608-.934 1.945-.61.233-.79.713-.862 1.284-.181 1.38-.5 2.736-.772 4.104-.142.726-.324 1.439-.706 2.08-.13.215-.279.422-.422.63-.421.616-.518 1.322-.55 2.048-.02.376.032.733.142 1.096.188.635-.02 1.18-.48 1.627-.35.337-.797.396-1.258.312-.518-.098-1.043-.059-1.562-.04a142.8 142.8 0 00-2.794.104c-3.073.13-6.14.085-9.213.033-1.608-.026-3.21.045-4.817-.078a4.5 4.5 0 00-1.44.123c-.706.169-1.296-.11-1.718-.674-.395-.532-.35-1.115-.058-1.692.214-.422.467-.83.584-1.297.136-.538 0-1.03-.286-1.491-.194-.318-.447-.596-.706-.862-1.226-1.245-1.932-2.756-2.237-4.448-.169-.946-.123-1.912 0-2.865.058-.448-.09-.791-.408-1.077-.448-.402-.668-.894-.597-1.49.078-.707.57-1.2 1.277-1.271.48-.046.785-.338 1.09-.668a67.43 67.43 0 012.995-3.093c1.251-1.212 2.49-2.438 3.767-3.624.667-.622 1.238-1.336 1.925-1.938 1.284-1.135 2.736-1.958 4.409-2.36.661-.162 1.335-.208 2.016-.253l-.007-.02zm-2.658 27.658c2.075-.026 4.143.052 6.211-.071 1.88-.11 3.3-.986 4.098-2.73.298-.655.642-1.251 1.115-1.79.343-.388.713-.79.784-1.354.026-.24.085-.48.13-.713.272-1.53.512-3.073.843-4.59.097-.441.24-.895.143-1.355-.091-.435-.098-.85.058-1.265.071-.181.026-.278-.188-.291a80.433 80.433 0 01-1.757-.137c-.5-.039-1.005-.103-1.504-.116-.597-.013-1.187-.175-1.783-.046-.247.052-.473.182-.72.208-.557.065-1.057-.085-1.4-.564-.37-.513-.363-1.064-.11-1.615a11.3 11.3 0 01.577-1.115 2.185 2.185 0 00.24-1.718c-.117-.447-.189-.908-.286-1.361-.26-1.167-.525-2.34-.771-3.508-.078-.37-.22-.732-.188-1.121.02-.273-.065-.35-.337-.331-.934.065-1.861.071-2.795.117-.694.032-1.342.227-1.763.855-.097.15-.195.299-.298.441a1.534 1.534 0 01-1.757.48c-.493-.194-.986-.285-1.479-.013a3.93 3.93 0 00-.894.661c-.558.545-.895 1.167-.636 1.978.273.85-.162 1.62-1.037 1.835-.318.077-.61-.033-.908-.11-.48-.13-.9-.027-1.277.291-.661.551-1.225 1.2-1.848 1.783-1.75 1.64-2.67 3.721-2.924 6.036-.24 2.217.312 4.285 2.043 5.874.745.68 1.193 1.517 1.173 2.535-.026 1.426 1.264 2.781 2.846 2.8 2.14.026 4.273.046 6.412.026l-.013-.006zM32.79 12.488a26.66 26.66 0 00-.052-2.807c-.11-1.413-.661-2.574-1.692-3.527-.584-.538-1.212-.992-2.016-1.121-.824-.137-1.66-.078-2.483-.156-.24-.02-.318.162-.363.35a.992.992 0 00.006.415c.37 2.1.733 4.201 1.109 6.302.09.499.11 1.018.55 1.387.357.299.681.636 1.032.947a.839.839 0 00.505.22c1.005.052 2.01.098 3.021.15.17.006.247-.033.266-.221.085-.668.065-1.342.117-1.939zm-2.833-9.822c-.247-.058-.551.046-.823.247-.078.058-.208.09-.189.22.02.136.143.15.253.175.966.227 1.945.421 2.918.603.376.071.752.169 1.057.415.518.421.596 1.005.544 1.62-.02.254-.078.5-.104.746-.051.428.117.817.234 1.22.246.842.363 1.704.356 2.586 0 .59.214 1.128.713 1.51.837.643.688 1.959-.265 2.406-.136.065-.273.123-.396.2-.045.027-.09.085-.09.13 0 .072.077.065.13.072.433.084.829.045 1.173-.272.188-.175.421-.312.628-.467.344-.26.72-.493.817-.947.065-.317.163-.629.253-.94.525-1.848 1.044-3.695 1.563-5.543.13-.46.058-.869-.305-1.2-.791-.713-1.582-1.42-2.38-2.126a.916.916 0 00-.609-.233c-.363-.013-.726-.046-1.089-.078-1.433-.11-2.866-.22-4.39-.344zm4.175 11.249a.715.715 0 00.746-.674c.013-.37-.318-.733-.688-.746-.35-.013-.726.35-.732.7a.728.728 0 00.674.72zM6.124 16.314a.682.682 0 00-.648-.727c-.389-.019-.765.331-.765.7 0 .338.357.694.707.7a.69.69 0 00.706-.673zm7.54-6.516c0-.337-.363-.7-.7-.687-.344.006-.694.363-.7.706-.013.376.324.707.713.707.376 0 .694-.337.694-.726h-.007zM8.121 30.44c-.006.376.285.7.642.7.421 0 .726-.279.733-.674a.688.688 0 00-.707-.707.678.678 0 00-.668.68zm9.595-24.527c.435 0 .746-.285.733-.674-.007-.33-.357-.713-.668-.72-.317-.006-.739.409-.732.727 0 .31.356.667.667.667zm15.858 11.969c.364.012.688-.28.694-.623 0-.389-.285-.72-.655-.733a.701.701 0 00-.726.694c-.006.35.305.655.688.662zm-3.449 12.473c.007-.376-.285-.7-.648-.706-.324-.007-.661.343-.668.693 0 .337.33.688.668.688.33 0 .635-.318.642-.675h.006zM32.79 5.551c0-.356-.279-.7-.59-.7-.33 0-.661.337-.661.674 0 .357.291.636.667.649.253.006.578-.337.578-.616l.006-.007zm-6.36 9.245a.541.541 0 00-.532-.525c-.298 0-.57.26-.57.538 0 .26.305.565.57.558.273 0 .532-.279.538-.57h-.006zm11.573 1.252c.252.013.486-.22.499-.486a.543.543 0 00-.519-.545.528.528 0 00-.525.48c-.02.272.246.538.545.55zM26.3 2.07c.247 0 .532-.266.525-.486 0-.24-.291-.506-.55-.506-.273 0-.545.26-.539.506.007.24.299.492.564.492V2.07zm12.76.013c-.299-.02-.539.181-.552.467-.013.265.253.538.525.55.227.014.48-.226.5-.473a.512.512 0 00-.474-.544zM.737 11.51c-.033-.415.26-.765.46-1.148.311-.59.655-1.167.973-1.757a2.9 2.9 0 01.648-.83c.772-.687 1.524-1.394 2.334-2.035.324-.26.603-.234.869.09.31.376.616.752.894 1.148.188.266.396.324.714.279.473-.059.96-.182 1.406.136.513.363.707 1.121.448 1.692-.441.966-1.174 1.711-1.822 2.528-.81 1.018-1.906 1.621-2.995 2.244-.227.13-.474.103-.707.006-.882-.382-1.763-.752-2.626-1.167-.44-.214-.61-.629-.596-1.173v-.013zm5.822-1.64c.039-.98-.785-1.634-1.614-1.634-.876 0-1.602.758-1.602 1.666 0 .83.759 1.595 1.608 1.569.914-.026 1.608-.765 1.601-1.608l.007.006zm1.711-.817c.24 0 .48-.214.487-.448 0-.26-.22-.493-.48-.486-.22 0-.46.26-.46.486 0 .234.214.441.453.448zm-6.38 2.995c.189.006.383-.188.41-.415.019-.182-.208-.428-.396-.434-.182 0-.422.22-.428.408-.013.22.188.428.415.44zm5.771-2.204c-.02-.15-.175-.24-.35-.273-.15-.032-.363.201-.35.363.02.195.123.33.33.344.195.013.364-.169.37-.434zM12.173.119c.46.013 1.121.175 1.796.285.538.084 1.089.13 1.614.311.74.253 1.173 1.167.869 1.887-.214.493-.551.908-.876 1.329-.44.577-.836 1.193-1.367 1.692-.454.421-1.018.687-1.543.999-.396.233-.772.518-1.226.654-.473.136-.92.091-1.348-.142a19.02 19.02 0 01-2.36-1.491c-.63-.46-.772-1.304-.292-1.932.506-.668 1.063-1.29 1.595-1.932.253-.299.486-.616.771-.876.603-.544 1.336-.79 2.367-.784zm-1.18 6.023c.207-.033.311-.247.395-.441.091-.22.234-.311.448-.311.265 0 .512-.078.765-.162.94-.312 1.51-1.122 1.394-2.094-.052-.415 0-.772.207-1.116.104-.181.065-.337-.039-.499-.272-.421-.512-.48-1.07-.2-.226.11-.428.122-.629 0-.278-.17-.538-.118-.79.038-.526.318-1.038.661-1.556.986-.273.168-.402.389-.344.726.058.356.071.693-.188 1.024-.272.357-.058.817.37.908.123.026.259.013.389.013.22 0 .324.11.324.324 0 .117-.026.22-.059.324-.071.24.091.467.39.473l-.007.007zM9.184 4.618c0-.279-.26-.531-.545-.531-.259 0-.557.304-.55.57 0 .246.265.506.505.5.337 0 .59-.24.59-.539zm6.632-2.651c0-.266-.291-.532-.557-.52-.247.014-.512.273-.519.507 0 .272.26.564.512.564.286 0 .564-.28.564-.551z"/><path d="M38.696 25.643c.02 1.213-.771 2.4-1.938 2.762-.5.156-.72.57-.856 1.031-.117.409-.383.668-.759.836-.512.234-.953.078-1.348-.246-.409-.337-.493-.804-.318-1.27.227-.59.201-1.129-.11-1.686-.324-.584-.337-1.252-.37-1.893-.013-.292-.097-.584 0-.889.124-.382.337-.674.694-.83.59-.259.862-.7.869-1.335 0-.44.11-.843.467-1.148.421-.363.894-.408 1.38-.194.467.207.694.61.72 1.109.02.382.143.687.493.842.61.266.92.7.947 1.381.019.512.103 1.018.13 1.53zm-4.733-.434c.033.272-.038.538.02.81.2.973 1.037 1.686 1.925 1.628 1.031-.065 1.855-.927 1.848-1.958 0-.57-.052-1.135-.084-1.705-.02-.286-.188-.415-.473-.363-.94.175-1.887.356-2.827.538-.266.052-.402.214-.396.492 0 .188 0 .376-.006.558h-.007zm.733 4.512a.656.656 0 00.648-.635.621.621 0 00-.622-.616.646.646 0 00-.642.635c0 .338.285.616.623.623l-.007-.007zm.57-7.76c-.006.324.247.616.545.629.324.013.642-.285.655-.63a.63.63 0 00-.603-.634c-.33 0-.59.265-.596.635zm-18.45-10.412c1.102.019 2.198.032 3.3.051a.42.42 0 01.26.091c.913.661 1.834 1.316 2.735 1.984.648.48.733 1.167.648 1.906-.162 1.478-.233 2.95-.019 4.428.084.564.188 1.083.687 1.427a3.9 3.9 0 00.39.227c.68.356 1.004.914.985 1.679-.013.61-.02 1.212-.02 1.821-.006.908-.382 1.582-1.219 1.965-.473.22-.758.564-.888 1.076-.2.797-.752 1.212-1.55 1.316-2.23.298-4.466.467-6.723.383-1.38-.052-2.755-.15-4.123-.37-.85-.136-1.517-.998-1.394-1.848.169-1.14.156-2.25-.188-3.364-.37-1.193-.324-2.406-.02-3.605.267-1.03.293-2.081.293-3.132 0-.667-.104-1.316-.214-1.97-.162-.98.11-1.725.966-2.276.79-.506 1.55-1.07 2.314-1.614.201-.143.409-.22.668-.214 1.037.026 2.068.039 3.105.052v-.013h.007zm.875 16.694c.052-.078.123-.071.182-.084a4.7 4.7 0 00.992-.286c1.588-.66 2.723-1.776 3.274-3.423.635-1.893.376-3.682-.804-5.303-1.44-1.977-4.214-2.872-6.64-1.92-2.495.98-4.051 3.612-3.571 6.257.415 2.276 1.756 3.786 3.954 4.526.052.019.123.025.15.064.123.188.123.175.265.234.143.058.292.039.441.058.836.097 1.666.136 2.49-.116.389-.124.862-.325 1.05-.506-.59.246-1.154.447-1.776.492l-.007.007zm-.94-12.87c.998.014 1.997.04 2.995.046a.693.693 0 00.688-.642c.019-.408.025-.817.012-1.232a.754.754 0 00-.732-.706 202.54 202.54 0 00-2.075-.026c-1.27 0-2.535-.007-3.805 0-.266 0-.5.117-.61.37-.22.499-.13 1.024-.09 1.536.032.37.233.629.784.661.94.058 1.887.02 2.827 0l.006-.006zm7.903 8.935h-.006c0-.357.02-.707.013-1.064a.557.557 0 00-.532-.577.563.563 0 00-.57.513c-.059.628-.26 1.218-.474 1.802-.13.357-.11.68.156.96.26.272.583.324.946.155.35-.162.5-.46.5-.836 0-.318-.02-.636-.026-.953h-.007zm-13.2-8.454c.415 0 .83-.396.843-.817.013-.402-.408-.824-.823-.83-.448 0-.843.382-.843.83 0 .421.389.81.83.816h-.007zm9.745-.766c0 .422.382.824.823.837.415.02.823-.383.83-.817.013-.441-.376-.824-.843-.83-.409 0-.804.389-.81.81zm1.452 12.714c0-.376-.253-.635-.623-.635-.356 0-.674.298-.667.648 0 .33.31.648.642.648a.653.653 0 00.648-.66zm-11.035-.57c-.37 0-.648.259-.655.609-.006.389.266.68.649.687.324 0 .655-.31.661-.629a.67.67 0 00-.648-.66l-.007-.007zm2.347-9.848c-.149-.085-.175.019-.227.051-.097.065-.207.098-.266-.02-.084-.155-.168-.103-.265-.031a5.99 5.99 0 00-1.239 1.121c-.064.078-.162.233-.136.253.201.214 0 .376-.052.57.603-.784 1.336-1.406 2.185-1.938v-.006zm8.675 5.154c0 .09-.065.2.032.253.052.026.156.006.208-.026.104-.065.078-.182.032-.273a.27.27 0 01-.026-.188c.117-.544-.084-1.056-.194-1.575a.205.205 0 00-.052-.097c-.059-.072-.13-.104-.22-.059-.085.04-.137.091-.098.195.026.071.04.142.058.214a8.92 8.92 0 01.253 1.556h.007zm-11.482-1.906c-.097-.02-.143.136-.246.032-.059-.058-.085.013-.104.071-.123.467-.233.934-.292 1.407-.032.253 0 .441.344.415-.02-.655.194-1.284.298-1.932v.007zm11.041-.435c-.052-.104.156-.26-.058-.324-.052-.013-.13-.052-.143.013-.026.143.078.233.201.311z"/><path d="M17.651 25.481a7.357 7.357 0 01-2.639-.57c-.655-.273-1.316-.525-1.97-.791-.889-.363-1.232-1.22-.798-1.99.227-.402.642-.558 1.018-.753.622-.324 1.238-.648 1.873-.94 1.044-.473 2.133-.642 3.268-.389a9.61 9.61 0 012.1.733c.357.175.63.434.837.759.266.408.175 1.134-.201 1.504-.752.739-1.556 1.42-2.347 2.113-.344.298-.765.363-1.148.324h.007zm-.233-.94h.304c.409.033.512-.039.57-.454.118-.83.208-1.66.325-2.49.058-.401-.006-.53-.408-.59-.441-.064-.889-.11-1.336-.142-.26-.02-.519-.045-.778.046-.726.246-1.063.816-1.167 1.653-.078.629.395 1.355.992 1.653.467.233.972.305 1.485.311l.013.013zm3.41-2.528a.553.553 0 00-.525-.545c-.292 0-.545.24-.545.519 0 .285.247.57.506.57.279 0 .557-.272.564-.55v.006zm-6.918.843c0-.28-.285-.545-.57-.545-.24 0-.519.285-.512.538 0 .285.265.551.531.551.26 0 .558-.292.558-.538l-.007-.006zm-3.085-1.316c-.098-.24-.02-.448.084-.656-.032.22-.104.428-.084.655z"/></svg>