<svg xmlns="http://www.w3.org/2000/svg" width="39" height="32" fill="currentColor"><path fill-rule="evenodd" clip-rule="evenodd" d="M30.573 15.986s.798-.032 1.023-.048c.226-.016.653-.04.91.491.065.137.468 1.442.525 1.604.048.153.169.862-.363.99-.097.025-1.04.218-1.04.218l-1.063-3.247.008-.008zM28.77 9.968s1.03.08 1.289.105a.602.602 0 01.54.387c.064.145.45 1.353.499 1.482.04.129.242.854-.33.87h-1.12l-.87-2.836-.008-.008zM25.12 6.52s4.35.66 4.753.725c1.813.306 2.603 1.853 2.82 2.578.073.234.58 1.918.645 2.103.491 1.418-.758 2.15-.758 2.15s1.434.275 1.918 1.5c0 0 .91 2.803.999 3.085.088.29.733 2.522-1.475 3.343-.298.113-3.843 1.112-3.843 1.112L25.12 6.528V6.52z"/><path d="M7.508 3.733l7.13 1.128 1.152 4.1-1.66-.153s4.1 13.881 4.238 14.308c.515 1.563.83 3.183-1.418 3.964-.29.105-2.385.741-2.635.806-1.297.322-2.94.322-3.577-1.805l-2.61-8.58 3.207-.242s1.32 4.407 1.426 4.73c.29.918.475 1.272 1.385 1.055.669-.161.645-.451.467-1.056-.072-.257-3.931-13.47-3.931-13.47l-1.82-.145-1.346-4.648-.008.008z"/><path d="M7.508 3.733l7.13 1.128 1.152 4.1-1.66-.153s4.1 13.881 4.238 14.308c.515 1.563.83 3.183-1.418 3.964-.29.105-2.385.741-2.635.806-1.297.322-2.94.322-3.577-1.805l-2.61-8.58 3.207-.242s1.32 4.407 1.426 4.73c.29.918.475 1.272 1.385 1.055.669-.161.645-.451.467-1.056-.072-.257-3.931-13.47-3.931-13.47l-1.82-.145-1.346-4.648-.008.008zm10.635 1.635c.314.057 2.602.435 2.988.5.387.064 2.522.435 3.086 2.513.137.516 1.265 4.165 1.265 4.165l-2.707-.024s-.5-1.764-.612-2.07c-.258-.75-.274-.943-1.088-1.064-.822-.096-.781.266-.596.879.097.314 2.554 8.934 2.667 9.305.29.983.362 1.37 1.232 1.192.75-.185.613-.612.42-1.33-.065-.241-.839-2.827-.839-2.827l2.691-.21s1.37 4.576 1.442 4.794c.073.21.645 2.07-.983 2.868-.21.105-.21.12-.427.193-.217.073-2.392.725-2.602.782-.21.056-2.28.733-2.956-1.434-.065-.21-4.456-15.396-4.69-16.145-.394-1.257.025-2.337 1.709-2.087z"/><path fill-rule="evenodd" clip-rule="evenodd" d="M4.632 1.34c1.337.233 24.588 4.23 25.619 4.414 1.031.186 2.771.443 3.496 2.723.145.444 3.295 10.425 3.424 10.852.13.435 1.048 2.707-1.547 3.561-.386.13-22.243 7.34-22.775 7.5-.531.17-2.594 1.08-3.448-2.07 0 0-6.67-22.356-6.977-23.371-.25-.822-.427-1.475-.467-1.99-.129-1.837.943-1.893 1.829-1.765.33.049.628.097.846.137M4.027.091c.589.088 25.966 4.52 26.619 4.632.652.113 3.15.395 4.149 3.416.193.58 3.351 10.626 3.504 11.126.556 1.853.314 3.794-1.998 4.616-.765.266-22.541 7.581-22.815 7.67-.597.201-3.795 1.7-4.963-2.208 0-.008-7.05-23.452-7.259-24.16C.942 4.086.732 3.16.732 2.466.732-.578 3.455.027 4.027.091z"/></svg>