<svg xmlns="http://www.w3.org/2000/svg" width="28" height="32" fill="none"><path d="M4.864 3.47s-.058.02-.09.026c2.673.385 5.937.59 9.388.59 3.45 0 6.715-.211 9.388-.59-.032-.007-.058-.02-.09-.026.534-.07.945-.52.945-1.067 0-.199-.058-.379-.148-.54C23.974.823 19.567 0 14.162 0 8.758 0 4.53.79 4.093 1.8c-.116.173-.18.378-.18.597 0 .552.411 1.002.945 1.066l.006.007zm18.197 15.087c-2.41.437-5.558.681-8.9.681-3.34 0-6.483-.244-8.899-.687a5.81 5.81 0 00-4.658 5.687 5.785 5.785 0 003.322 5.23c0 .045-.013.084-.013.129 0 .199.058.379.148.54C4.343 31.176 8.75 32 14.155 32c5.405 0 9.633-.79 10.07-1.8.115-.173.18-.378.18-.597 0-.045-.007-.084-.013-.128a5.785 5.785 0 00-1.337-10.911l.006-.007zm2.127-13.526c-2.956.54-6.862.842-11.02.842-4.157 0-8.064-.302-11.02-.842A5.774 5.774 0 00.616 9.812a5.798 5.798 0 004.659 5.68v1.311c2.377.45 5.532.7 8.9.7 3.367 0 6.515-.25 8.9-.7v-1.31a5.798 5.798 0 004.658-5.681 5.765 5.765 0 00-2.532-4.78h-.013z" fill="currentColor"/></svg>