<svg xmlns="http://www.w3.org/2000/svg" width="46" height="32" fill="none"><path d="M27.685 28.678s.02.007.032.013c-.013 0-.02-.006-.032-.013zm.032-25.39s-.02.007-.032.013c.013 0 .02-.006.032-.013zm-.617.242s-.025.013-.039.013l.04-.013zm-3.504 2.924l1.638 2.87c.125.17.393.432.767.157a9.337 9.337 0 011.435-1.147.845.845 0 00.124-.636l-.655-3.708c-.046-.275-.216-.262-.268-.25a13.455 13.455 0 00-2.93 1.862c-.307.314-.104.852-.104.852h-.007zm5.557 14.794a.17.17 0 00.216-.098l.577-1.52a.17.17 0 00-.099-.216.17.17 0 00-.216.098l-.576 1.52a.17.17 0 00.098.216zm.707.412a.17.17 0 00.217-.098l.544-1.435a.17.17 0 00-.098-.216.17.17 0 00-.217.098l-.543 1.435a.17.17 0 00.098.216zm-1.401-.989a.17.17 0 00.216-.098l.544-1.435a.17.17 0 00-.099-.216.17.17 0 00-.216.098l-.544 1.435a.17.17 0 00.099.216zm2.169 1.311a.17.17 0 00.216-.098l.491-1.304a.17.17 0 00-.098-.216.17.17 0 00-.216.098l-.492 1.304a.17.17 0 00.099.216zm4.199-11.662a.17.17 0 00-.216.098l-.544 1.434a.17.17 0 00.099.217.17.17 0 00.216-.099l.544-1.435a.17.17 0 00-.099-.216zm-.767-.322a.17.17 0 00-.216.098l-.492 1.304a.17.17 0 00.099.216.17.17 0 00.216-.098l.491-1.304a.17.17 0 00-.098-.216zm-6.303 2.32l1.435.544a.17.17 0 00.216-.098.17.17 0 00-.098-.216l-1.435-.544a.17.17 0 00-.216.098.17.17 0 00.098.216zm.217 2.568a.17.17 0 00-.099-.216l-1.303-.491a.17.17 0 00-.217.098.17.17 0 00.099.216l1.303.492a.17.17 0 00.217-.099zm.392-3.23l1.304.492a.17.17 0 00.216-.099.17.17 0 00-.098-.216l-1.304-.491a.17.17 0 00-.217.098.17.17 0 00.099.216zm-1.179 1.356l1.52.576a.17.17 0 00.216-.098.17.17 0 00-.098-.216l-1.52-.577a.17.17 0 00-.216.098.17.17 0 00.098.217zm-.412.708l1.435.544a.17.17 0 00.216-.098.17.17 0 00-.098-.216l-1.435-.544a.17.17 0 00-.216.098.17.17 0 00.098.217zm1.022 6.343a.17.17 0 00.217-.099l.491-1.304a.17.17 0 00-.098-.216.17.17 0 00-.216.099l-.492 1.303a.17.17 0 00.098.217zm10.122-1.808l-1.435-.544a.17.17 0 00-.217.098.17.17 0 00.099.216l1.435.544a.17.17 0 00.216-.098.17.17 0 00-.098-.216zm-.412.706l-1.52-.576a.17.17 0 00-.217.098.17.17 0 00.099.216l1.52.577a.17.17 0 00.216-.099.17.17 0 00-.098-.216z" fill="currentColor"/><path d="M32.344 7.679c-4.58 0-8.308 3.728-8.308 8.308s3.728 8.308 8.308 8.308 8.308-3.728 8.308-8.308-3.728-8.308-8.308-8.308zm-6.447 6.893s.288-1.285.983-2.3c.793-1.153 1.854-1.822 1.854-1.822l1.88 1.298-2.837 4.12-1.88-1.296zm5.032 7.862s-1.284-.288-2.3-.983c-1.153-.793-1.821-1.854-1.821-1.854l1.297-1.88 4.121 2.837-1.297 1.88zm2.83-12.888s1.285.288 2.3.983a7.176 7.176 0 011.822 1.854l-1.298 1.88-4.12-2.836 1.297-1.88zm4.05 10.162c-.793 1.154-1.855 1.822-1.855 1.822l-1.88-1.297 2.837-4.122 1.88 1.298s-.288 1.284-.982 2.3z" fill="currentColor"/><path d="M38.24 17.488l-1.303-.491a.17.17 0 00-.216.098.17.17 0 00.098.216l1.304.491a.17.17 0 00.216-.098.17.17 0 00-.098-.216zm-2.705-6.756a.17.17 0 00-.216.098l-.577 1.52a.17.17 0 00.098.216.17.17 0 00.217-.098l.576-1.52a.17.17 0 00-.098-.216zm1.395 8.93l-1.435-.543a.17.17 0 00-.216.098.17.17 0 00.098.216l1.435.544a.17.17 0 00.217-.098.17.17 0 00-.099-.217zm-.608.662l-1.304-.492a.17.17 0 00-.216.099.17.17 0 00.098.216l1.304.491a.17.17 0 00.216-.098.17.17 0 00-.098-.216zm.575-8.414a.17.17 0 00-.216.099l-.492 1.304a.17.17 0 00.099.216.17.17 0 00.216-.098l.491-1.304a.17.17 0 00-.098-.216zm-.661-.601a.17.17 0 00-.217.098l-.544 1.435a.17.17 0 00.099.216.17.17 0 00.216-.098l.544-1.435a.17.17 0 00-.099-.216zm-15.379-1.286l2.516 2.136c.17.118.498.269.754-.085.268-.57.603-1.1.983-1.599a.838.838 0 00-.099-.635l-1.887-3.263c-.137-.236-.288-.17-.334-.138a13.626 13.626 0 00-2.123 2.759c-.177.4.19.832.19.832v-.007zm6.526-5.987l.557 3.256c.052.197.216.53.642.42a8.98 8.98 0 011.776-.597.836.836 0 00.327-.55l.655-3.715c.046-.256-.091-.308-.157-.321a13.132 13.132 0 00-3.374.734c-.42.177-.42.773-.42.773h-.006zm-5.949 18.915l3.112-1.113c.184-.092.492-.308.295-.715a9.182 9.182 0 01-.891-1.638.835.835 0 00-.596-.222h-3.768c-.281 0-.294.17-.288.222a13.08 13.08 0 001.33 3.211c.256.347.813.249.813.249l-.007.006zm-1.919-8.641l3.1 1.146c.196.052.556.079.68-.334a8.701 8.701 0 01.374-1.854.82.82 0 00-.314-.55l-2.89-2.425c-.21-.177-.328-.066-.367-.02a13.543 13.543 0 00-1.048 3.322c-.026.433.465.708.465.708v.006zM31.773 3.059l-.59 3.25c-.012.203.02.57.46.609a8.392 8.392 0 011.867.046.83.83 0 00.498-.406l1.88-3.263c.144-.25 0-.341-.052-.36a13.53 13.53 0 00-3.44-.46c-.433.046-.629.584-.629.584h.006zm-3.308 25.278l1.67-2.85c.086-.184.177-.538-.216-.728-.61-.17-1.192-.4-1.75-.688a.839.839 0 00-.608.21l-2.883 2.424c-.197.17-.131.295-.086.347.937.656 1.96 1.2 3.047 1.606.44.144.826-.321.826-.321zm7.907-25.252s-.02 0-.026-.007h.026v.007zm.636.216s-.02-.006-.032-.013c.013 0 .02.007.032.013zm-.779.342l-1.671 2.85c-.085.183-.177.537.216.727.61.17 1.193.4 1.75.688a.838.838 0 00.609-.21l2.883-2.424c.196-.17.13-.295.085-.347a13.661 13.661 0 00-3.047-1.605c-.439-.144-.825.32-.825.32zm7.025 5.385l-3.113 1.114c-.183.092-.491.308-.295.714.348.511.65 1.055.892 1.638a.835.835 0 00.596.223H45.1c.282 0 .295-.17.288-.223a13.068 13.068 0 00-1.33-3.21c-.255-.347-.812-.25-.812-.25l.007-.006zm2.403 4.658c-.125-.413-.682-.511-.682-.511l-3.302-.02c-.203.02-.55.118-.524.538.157.602.255 1.231.282 1.873a.842.842 0 00.485.413l3.544 1.284c.25.092.321-.039.34-.098.034-.393.053-.786.053-1.186 0-.786-.072-1.553-.196-2.3v.007zM40.22 5.712l-2.542 2.11c-.145.15-.36.459-.027.78.498.36.963.767 1.376 1.219a.832.832 0 00.649.013l3.538-1.291c.242-.092.223-.236.203-.295a13.6 13.6 0 00-2.358-2.581c-.36-.23-.84.052-.84.052v-.007zm4.96 11.958l-3.1-1.147c-.196-.053-.557-.079-.681.334a8.7 8.7 0 01-.374 1.854.82.82 0 00.315.55l2.89 2.425c.209.177.327.065.366.02a13.542 13.542 0 001.049-3.323c.026-.432-.466-.707-.466-.707v-.007zm-20.706 8.597l2.543-2.11c.144-.15.36-.458.026-.779a9.403 9.403 0 01-1.383-1.219.831.831 0 00-.648-.013l-3.538 1.291c-.243.092-.223.236-.204.295a13.798 13.798 0 002.36 2.581c.36.23.838-.052.838-.052l.006.006zm-4.763-7.47l3.302.02c.203-.02.55-.118.524-.537a8.866 8.866 0 01-.281-1.874.846.846 0 00-.485-.413l-3.545-1.284c-.249-.092-.32.04-.34.098-.033.393-.053.786-.053 1.186 0 .786.072 1.553.197 2.3.124.413.681.511.681.511v-.007zm17.265 9.887s.02-.007.032-.013c-.013 0-.02.006-.032.013zm.332-.74l-.556-3.256c-.053-.197-.217-.531-.643-.42a8.984 8.984 0 01-1.775.596.837.837 0 00-.328.55l-.655 3.716c-.046.256.092.308.157.321a13.136 13.136 0 003.375-.734c.419-.177.419-.773.419-.773h.006zm-8.988.951s.02 0 .026.006h-.026v-.006zm15.51-6.939l-2.517-2.136c-.17-.118-.498-.269-.753.085a8.88 8.88 0 01-.983 1.599.838.838 0 00.098.635l1.887 3.263c.138.236.288.17.334.138a13.626 13.626 0 002.123-2.759c.177-.4-.19-.832-.19-.832v.007zM32.92 28.92l.59-3.25c.013-.203-.02-.57-.459-.61a8.362 8.362 0 01-1.867-.045.83.83 0 00-.498.406l-1.88 3.263c-.145.249 0 .34.052.36 1.1.295 2.247.452 3.44.459.432-.046.629-.583.629-.583h-.007zm4.672-.47s.026-.014.033-.014l-.033.013zm3.505-2.923l-1.638-2.87c-.124-.17-.393-.433-.766-.157a9.34 9.34 0 01-1.435 1.146.844.844 0 00-.125.636l.655 3.708c.046.276.217.262.27.25a13.456 13.456 0 002.928-1.861c.308-.315.105-.852.105-.852h.006zM11.449 10.234l.255.236c.23.21.243.57.033.8l-.197.21 3.434 3.17c.105-.078.21-.144.327-.21L13.92 9.98l-.275.085a.57.57 0 01-.714-.373l-.092-.289-.243-.78h-.02c-.425.256-1.113.65-1.598.931l.066.059-.125.138.524.484h.007zm3.544-.59l-.275.085L16.1 14.19a2.53 2.53 0 01.387-.013l1.042-4.554-.282-.065a.565.565 0 01-.426-.682l.072-.308.183-.806-.085-.02h-1.847l.026.086-.131.04.23.733.104.328a.568.568 0 01-.373.707l-.007.007zm-3.885 11.525l.21.196 3.184-3.433a2.803 2.803 0 01-.21-.327l-4.475 1.389.086.275a.568.568 0 01-.374.707l-.328.105-.556.17c.249.433.642 1.121.923 1.606l.06-.066.071.066.374-.4.236-.255a.576.576 0 01.806-.033h-.007zm6.664 2.221l.275-.084-1.382-4.462a2.53 2.53 0 01-.387.013l-1.042 4.554.282.065a.565.565 0 01.426.681l-.079.335-.124.543.118.027h1.834l-.203-.662-.091-.301a.568.568 0 01.373-.708z" fill="currentColor"/><path d="M24.46 28.973a.607.607 0 01-.68 1.002.61.61 0 01-.217-.832.61.61 0 01.767-.249c-.459-.281-.898-.59-1.324-.91a13.257 13.257 0 01-6.578 1.749c-7.345 0-13.32-5.976-13.32-13.32 0-7.345 5.969-13.327 13.314-13.327 2.142 0 4.167.51 5.955 1.408.289-.249.59-.485.898-.714a.6.6 0 01-.236-.478c0-.334.275-.61.61-.61.275 0 .504.184.583.44.353-.217.714-.42 1.08-.61C20.74-.433 15.702.026 15.702.026c-5.393.157-8.459 2.955-8.708 3.78 1.1 1.186.681 2.182.236 2.752-.02.02-.04.033-.06.053l-5.51 4.31s-.714 2.95-.766 3.801c-.42-.452-.668-.282-.826.321-.563 5.766 2.589 10.235 2.589 10.235 2.83 4.593 6.794 5.85 7.626 5.654.472-1.52 1.514-1.677 2.228-1.586.033.014.072.02.105.033L19.108 32s2.909-.852 3.67-1.238c-.184.59.09.714.687.557.95-.433 1.808-.95 2.568-1.507a14.98 14.98 0 01-1.579-.82l.007-.02zM21.644 2.096a.38.38 0 110 .76.38.38 0 010-.76zM8.592 3.308c.334 0 .61.276.61.61a.613.613 0 01-.61.609.612.612 0 01-.61-.61c0-.333.276-.609.61-.609zM.795 16.793a.607.607 0 01.242-.826.607.607 0 01.826.242.607.607 0 01-.243.826.607.607 0 01-.825-.242zM1.745 19a.386.386 0 01-.518-.151.386.386 0 01.15-.518.386.386 0 01.518.151.386.386 0 01-.15.518zM9.37 29.969a.607.607 0 01-.825-.243.607.607 0 01.242-.825.607.607 0 01.826.242.607.607 0 01-.243.826z" fill="currentColor"/><path d="M11.94 23.18l-.374.4.053.046c.426.25 1.114.642 1.598.924l.02-.085h.033l.131-.557.072-.308a.565.565 0 01.681-.426l.282.066 1.042-4.554a2.511 2.511 0 01-.347-.184l-3.185 3.434.21.196c.23.21.242.57.033.8l-.236.249h-.013z" fill="currentColor"/><path d="M3.854 16.406c0 6.932 5.642 12.573 12.574 12.573 2.156 0 4.18-.544 5.956-1.507a14.87 14.87 0 01-2.457-2.673l-2.103.649-.027-.079v.498a.197.197 0 01-.196.197h-.243a.197.197 0 01-.196-.197v-.118a.08.08 0 00-.079-.079h-.852a.073.073 0 00-.072.072v.125a.197.197 0 01-.196.197h-.243a.197.197 0 01-.196-.197v-.38l-2.418-.55.02-.08-.25.433a.2.2 0 01-.268.072l-.21-.117a.2.2 0 01-.072-.27l.06-.104c.019-.04.006-.085-.027-.105l-.734-.426a.074.074 0 00-.098.026l-.059.105a.2.2 0 01-.269.072l-.21-.117a.2.2 0 01-.071-.27l.19-.327-1.822-1.69.053-.06-.433.25a.2.2 0 01-.268-.072l-.118-.21a.2.2 0 01.072-.269l.104-.058c.04-.02.046-.066.027-.105l-.426-.734c-.02-.033-.066-.046-.098-.026l-.105.059a.2.2 0 01-.269-.073l-.118-.21a.2.2 0 01.072-.268l.328-.19-.727-2.372.078-.026H6.96a.197.197 0 01-.196-.197v-.242c0-.105.085-.196.196-.196h.118a.08.08 0 00.079-.08v-.85a.073.073 0 00-.072-.073H6.96a.197.197 0 01-.196-.197v-.242c0-.105.085-.197.196-.197h.38l.55-2.417.08.02-.433-.25a.2.2 0 01-.072-.268l.118-.21a.2.2 0 01.268-.072l.105.06c.04.019.085.006.105-.027l.426-.734c.02-.033.006-.079-.026-.098l-.105-.06a.2.2 0 01-.072-.268l.118-.21a.2.2 0 01.268-.072l.328.19 1.69-1.821.06.052-.25-.432a.2.2 0 01.072-.269l.21-.118a.2.2 0 01.269.072l.059.105c.02.04.065.046.104.026l.734-.425a.076.076 0 00.027-.099l-.06-.105a.2.2 0 01.073-.268l.21-.118a.2.2 0 01.268.072l.19.328 2.372-.728.026.079v-.498c0-.105.085-.197.197-.197h.242c.105 0 .197.086.197.197v.118c0 .04.032.079.078.079h.852c.04 0 .072-.033.072-.073v-.124c0-.105.085-.197.197-.197h.242c.105 0 .197.086.197.197v.38l2.168.498a15.384 15.384 0 012.3-2.785 12.456 12.456 0 00-5.36-1.205c-6.945.013-12.58 5.648-12.58 12.58z" fill="currentColor"/><path d="M7.766 17.69l.085-.026.046.15.622-.19.262-.078a.57.57 0 01.714.374l.086.275 4.475-1.39a2.512 2.512 0 01-.013-.386l-4.567-1.028-.066.281a.565.565 0 01-.681.426l-.262-.059-.695-.157v1.808h-.006zm2.201-5.359l-.216-.203-.557-.518c-.249.426-.636 1.101-.91 1.573l.084.02-.045.19.629.144.334.072a.565.565 0 01.426.681l-.066.282 4.567 1.029c.052-.118.111-.236.183-.341l-3.433-3.171-.196.21a.576.576 0 01-.806.032h.006z" fill="currentColor"/></svg>