<svg xmlns="http://www.w3.org/2000/svg" width="40" height="32" fill="none"><path d="M38.906 2.46h-2.991l-.452-.796h.846c.244 0 .445-.2.445-.445 0-.243-.2-.444-.445-.444h-1.391a.43.43 0 00.157-.33c0-.244-.2-.445-.444-.445h-3.752c-.244 0-.445.2-.445.445a.43.43 0 00.158.33h-1.391c-.244 0-.445.2-.445.444s.2.445.445.445h.846l-.452.796h-2.991a.44.44 0 100 .882h3.063l1.348 1.823v1.542l-1.025.237a.443.443 0 00.2.86l.833-.193v.818l-1.026.236a.443.443 0 00.2.861l.833-.194v.818l-1.026.237a.443.443 0 00.2.86l.833-.193v.818l-1.026.236a.443.443 0 00.201.861l.832-.194v.818l-1.026.237a.443.443 0 00.201.86l.832-.193v.818l-1.025.237a.443.443 0 00.2.86l.832-.193v.817l-1.025.237a.443.443 0 00.2.86l.833-.193v.818l-1.026.237a.443.443 0 00.2.86l.833-.193v1.04H30.04a.912.912 0 00-.911.91v9.47c0 .502.409.91.91.91h5.532a.912.912 0 00.91-.91v-9.47a.912.912 0 00-.91-.91h-1.033v-1.836l1.025-.237a.443.443 0 00-.2-.86l-.833.193v-.818l1.026-.237a.443.443 0 00-.2-.86l-.833.193v-.818l1.026-.236a.443.443 0 00-.2-.861l-.833.194V13.7l1.026-.237a.443.443 0 00-.201-.86l-.832.193v-.818l1.026-.236a.443.443 0 00-.201-.861l-.832.194v-.818l1.025-.237a.443.443 0 00-.2-.86l-.832.193v-.818L35.52 8.3a.443.443 0 00-.2-.86l-.833.193v-.817l1.026-.237a.443.443 0 00-.2-.86l-.833.193v-.746l1.349-1.822h3.063a.44.44 0 00.437-.438.45.45 0 00-.437-.445h.014zM9.553 22.301c0-1.054-1.256-1.88-2.855-1.88-1.6 0-2.855.826-2.855 1.88 0 1.055 1.255 1.88 2.855 1.88s2.855-.825 2.855-1.88zm-5.18 0c0-.731 1.062-1.355 2.325-1.355 1.262 0 2.324.616 2.324 1.355 0 .74-1.062 1.356-2.324 1.356-1.263 0-2.324-.617-2.324-1.356zm18.443 0c0-1.054-1.255-1.88-2.855-1.88s-2.855.826-2.855 1.88c0 1.055 1.256 1.88 2.855 1.88 1.6 0 2.855-.825 2.855-1.88zm-5.179 0c0-.731 1.062-1.355 2.324-1.355 1.263 0 2.325.616 2.325 1.355 0 .74-1.062 1.356-2.325 1.356-1.262 0-2.324-.617-2.324-1.356zM6.705 25.874c-1.85 0-3.35.725-3.35 1.621v2.884c0 .896 1.5 1.621 3.35 1.621 1.851 0 3.35-.724 3.35-1.621v-2.884c0-.896-1.499-1.621-3.35-1.621zm13.264 0c-1.85 0-3.35.725-3.35 1.621v2.884c0 .896 1.5 1.621 3.35 1.621s3.35-.724 3.35-1.621v-2.884c0-.896-1.5-1.621-3.35-1.621zM21.36 3.385c0 .424.345.775.775.775h1.32a.776.776 0 00.775-.775V.782a.776.776 0 00-.775-.775h-1.32a.776.776 0 00-.775.775v.107H6.756v2.382H21.36v.114zM1.325 8.192h1.328a.776.776 0 00.774-.775v-.108h14.605V4.928H3.427V4.82a.776.776 0 00-.774-.775H1.325a.776.776 0 00-.774.775v2.604c0 .423.344.775.774.775v-.007zm11.09 5.344c0-.696-.545-1.334-1.434-1.815-.158-1.327-1.987-2.374-4.218-2.374s-4.06 1.047-4.218 2.374c-.89.48-1.435 1.119-1.435 1.815 0 .115.022.23.05.337-.373.438-.588.933-.588 1.449 0 1.887 2.776 3.422 6.205 3.422 3.429 0 6.205-1.528 6.205-3.422 0-.516-.215-1.011-.588-1.449.028-.108.05-.222.05-.337h-.029zm-5.66-1.062c-1.283 0-2.324-.373-2.324-.84 0-.465 1.04-.838 2.325-.838 1.284 0 2.324.373 2.324.839 0 .466-1.04.84-2.324.84zm18.875 1.062c0-.696-.546-1.334-1.435-1.815-.158-1.327-1.988-2.374-4.218-2.374-2.231 0-4.06 1.047-4.218 2.374-.89.48-1.435 1.119-1.435 1.815 0 .115.022.23.05.337-.373.438-.588.933-.588 1.449 0 1.887 2.776 3.422 6.205 3.422 3.429 0 6.205-1.528 6.205-3.422 0-.516-.215-1.011-.588-1.449.028-.108.05-.222.05-.337h-.029zm-5.66-1.062c-1.285 0-2.325-.373-2.325-.84 0-.465 1.04-.838 2.325-.838 1.284 0 2.324.373 2.324.839 0 .466-1.04.84-2.325.84z" fill="currentColor"/></svg>