<svg xmlns="http://www.w3.org/2000/svg" width="60" height="32" fill="none"><path d="M6.06 22.503L1.5 25.481c-.118 1.09.166 2.311.874 3.394l6.434-4.2c-.708-1.082-1.707-1.832-2.755-2.165l.007-.007zm-4.623 2.505l4.15-2.707a.293.293 0 00.084-.41l-.111-.173a.292.292 0 00-.41-.083l-1.402.916.02-.09-.131-.028.028-.132-.132-.028.028-.131-.132-.028.027-.132-.131-.028.027-.132-.131-.028.027-.131-.132-.028.028-.132-.132-.028.028-.132-.132-.027.028-.132-.132-.028.028-.132-.132-.028.028-.132-.132-.027.028-.14-1.333.868.132.028-.028.132.132.028-.028.132.132.027-.028.132.132.028-.028.132.132.028-.028.132.132.027-.027.132.131.028-.027.132.132.028-.028.132.132.027-.028.132.132.028-.028.132.132.027-.028.132.097.021-1.534 1a.293.293 0 00-.083.41l.111.173c.09.139.27.173.41.083zM36.815 2.423L32.255 5.4c-.119 1.09.166 2.31.874 3.394l6.434-4.2c-.708-1.082-1.707-1.832-2.755-2.165l.007-.007zm-1.818 7.774l-3.686 1.458-19.275 12.584-2.707 2.679-.84-1.291-5.101 3.331 1.964 3.013c.111.173 1.346-.438 2.749-1.354 1.402-.916 2.457-1.804 2.346-1.971l.02.035 25.668-16.756c.236.07 1.395-.52 2.714-1.38 1.409-.917 2.457-1.806 2.346-1.972L39.23 5.56l-5.102 3.331.86 1.319.008-.014zm-2.805-5.269l4.15-2.706a.293.293 0 00.084-.41l-.111-.174a.293.293 0 00-.41-.083l-1.402.916.02-.09-.131-.028.028-.131-.132-.028.028-.132-.132-.028.027-.132-.131-.028.027-.131-.132-.028.028-.132-.132-.028.028-.132-.132-.027.028-.132-.132-.028.028-.132-.132-.028.028-.132-.132-.027.028-.132-.132-.028.028-.139-1.333.868.132.028-.028.131.132.028-.028.132.132.028-.028.132.132.027-.028.132.132.028-.028.132.132.028-.028.132.132.027-.027.132.132.028-.028.132.132.028-.028.132.132.027-.028.132.132.028-.028.132.097.02-1.534 1a.293.293 0 00-.083.41l.111.173c.09.139.27.174.41.083zM24.59 21.885l-4.56 2.978c-.117 1.09.167 2.311.875 3.394l6.434-4.2c-.707-1.082-1.707-1.832-2.755-2.165l.007-.007z" fill="#86827A"/><path d="M19.968 24.39l4.15-2.707a.293.293 0 00.084-.41l-.111-.173a.293.293 0 00-.41-.083l-1.402.916.021-.09-.132-.028.028-.132-.132-.028.028-.132-.132-.027.028-.132-.132-.028.028-.132-.132-.028.027-.132-.131-.027.027-.132-.131-.028.027-.132-.132-.028.028-.131-.132-.028.028-.132-.132-.028.028-.132-.132-.028.028-.138-1.333.867.132.028-.028.132.132.028-.028.131.132.028-.027.132.131.028-.027.132.131.027-.027.132.132.028-.028.132.132.028-.028.132.132.027-.028.132.132.028-.028.132.132.028-.028.132.132.027-.028.132.098.021-1.534 1a.292.292 0 00-.084.41l.111.173c.09.138.271.173.41.083zM55.339 1.805l-4.56 2.977c-.118 1.09.166 2.312.874 3.394l6.435-4.199c-.708-1.083-1.708-1.832-2.756-2.165l.007-.007zm-1.811 7.774l-3.686 1.457L30.567 23.62 27.86 26.3l-.84-1.291-5.101 3.331 1.964 3.013c.111.173 1.347-.438 2.749-1.354 1.402-.916 2.457-1.804 2.346-1.971l.02.035 25.668-16.756c.236.07 1.395-.52 2.714-1.381 1.41-.916 2.457-1.805 2.346-1.971l-1.964-3.013-5.102 3.332.861 1.319.007-.014zM50.716 4.31l4.15-2.707a.292.292 0 00.084-.41l-.111-.173a.293.293 0 00-.41-.083l-1.402.916.021-.09-.132-.028.028-.132-.132-.027.028-.132-.132-.028.028-.132-.132-.028.028-.132-.132-.027.028-.132-.132-.028.027-.132-.131-.028.027-.131-.132-.028.028-.132-.132-.028.028-.132-.132-.028.028-.131-.132-.028.028-.139-1.333.868.132.027-.028.132.132.028-.027.132.131.028-.027.132.131.027-.027.132.132.028-.028.132.132.028-.028.131.132.028-.028.132.132.028-.028.132.132.028-.028.131.132.028-.028.132.132.028-.028.132.098.02-1.534 1a.293.293 0 00-.084.41l.111.173c.09.139.271.174.41.083z" fill="#86827A"/></svg>