<svg width="130" height="130" fill="none" xmlns="http://www.w3.org/2000/svg"><path d="M111.275 58.14c.406 2.057.406 4.115.406 6.606 0 12.782-4.953 23.911-13.179 32.577l7.009 9.477c11.528-11.13 18.131-26.402 18.131-42.054 0-3.303-.406-6.607-.812-10.317l-11.528 3.71h-.027zM56.449 6.58C37.073 9.479 20.593 21.42 11.934 39.158l11.528 3.71c6.602-12.375 18.536-21.447 32.96-23.911V6.58h.027zm49.467 35.88l11.528-3.71c-8.659-17.33-25.14-29.272-44.515-32.17v11.97c14.423 2.464 26.384 11.535 32.96 23.91h.027zm-61.834 64.341l-7.009 9.911c8.66 4.549 17.725 7.013 27.602 7.013 9.878 0 18.97-2.464 27.603-7.013l-7.01-9.911c-6.17 2.897-13.178 4.549-20.62 4.549-7.441 0-14.423-1.652-20.62-4.549h.054zM18.537 58.14L7.01 54.43c-.406 3.303-.812 6.606-.812 10.316 0 16.086 6.603 31.331 18.131 42.054l7.009-9.91c-8.254-8.26-13.179-19.796-13.179-32.577 0-1.652 0-4.116.406-6.174h-.027z" fill="#86827A"/><path d="M64.703 0C28.847 0 0 28.866 0 64.746c0 35.88 28.847 64.747 64.703 64.747s64.703-28.867 64.703-64.746C129.406 28.866 100.559 0 64.703 0zm59.345 47.849L86.947 59.818c-1.245.406-2.057-.406-2.463-1.246-.405-1.245.406-2.058 1.245-2.464L122.83 44.14c.406.813.812 2.058 1.245 3.71h-.027zM70.061 3.709c23.083 2.059 42.459 16.898 51.524 37.533l-30.498 9.477c-4.952 1.652-10.31.813-14.423-2.464-4.114-2.897-6.603-7.826-6.603-12.781V3.71zm5.358 61.037c0 5.768-4.546 10.724-10.716 10.724-5.764 0-10.716-4.55-10.716-10.724 0-5.767 4.546-10.723 10.716-10.723 5.764 0 10.716 4.956 10.716 10.723zM62.646 3.304h4.114v39.183c0 1.246-.812 2.058-2.057 2.058-1.245 0-2.057-.812-2.057-2.058V3.304zm-3.301 0v32.17c0 4.955-2.463 9.478-6.603 12.375-4.113 3.304-9.904 4.116-14.83 2.464l-30.091-9.91C16.886 20.2 36.26 5.334 59.345 3.276v.027zM7.009 43.733l37.1 11.969c1.245.406 1.651 1.652 1.245 2.464-.406 1.246-1.65 1.652-2.462 1.246L5.79 47.442c0-1.245.406-2.463 1.245-3.709h-.027zM3.3 64.773c0-4.955.406-9.477 1.651-14.026l30.904 9.91c4.546 1.652 8.253 5.362 9.471 9.912v.406c1.65 4.549 1.245 9.477-1.65 13.62L24.3 110.999C11.528 99.868 3.274 83.377 3.274 64.801l.027-.028zm23.49 48.662l23.082-31.764c.812-.812 2.057-1.246 2.896-.406.812.812 1.245 2.058.406 2.897l-23.083 31.764c-.812-.812-2.057-1.652-3.302-2.464v-.027zm37.912 12.781c-11.528 0-22.677-3.303-31.743-8.665l18.97-26.402c2.896-4.116 7.415-6.174 12.773-6.174 4.952 0 9.471 2.058 12.773 6.174l18.97 26.402c-9.066 5.768-20.188 8.665-31.743 8.665zm34.61-10.317l-23.08-31.764c-.812-.812-.406-2.058.406-2.897.811-.813 2.056-.406 2.895.406l23.083 31.764c-1.245.812-2.462 1.652-3.301 2.464v.027zm5.359-4.549L85.296 84.948c-2.895-3.71-3.301-9.072-1.65-13.621v-.406c1.244-4.55 4.952-8.26 9.47-9.912l30.904-9.91c1.651 4.116 2.057 8.665 2.057 13.62 0 18.55-8.253 35.068-21.432 46.604l.027.027z" fill="#86827A"/></svg>