<svg width="115" height="88" fill="none" xmlns="http://www.w3.org/2000/svg"><path d="M114.195 9.663H0v10.54h114.195V9.663zM99.197 5.27H83.353V1.81A1.79 1.79 0 0185.147 0h12.255c1 0 1.795.801 1.795 1.809V5.27zm-68.534 0H14.818V1.81A1.79 1.79 0 0116.613 0h12.255c1 0 1.795.801 1.795 1.809V5.27zm74.512 20.326H8.825c-1.95 0-3.539 1.602-3.539 3.565v54.978c0 1.963 1.59 3.565 3.538 3.565h96.351c1.948 0 3.538-1.602 3.538-3.565V29.16c0-1.963-1.59-3.565-3.538-3.565zM44.308 57.942h-6.973v7.027c0 1.42-1.154 2.584-2.564 2.584-1.41 0-2.564-1.163-2.564-2.584v-7.027h-6.974c-1.41 0-2.564-1.163-2.564-2.584 0-1.42 1.154-2.583 2.564-2.583h6.974v-7.028c0-1.42 1.154-2.583 2.564-2.583 1.41 0 2.564 1.162 2.564 2.583v7.028h6.973c1.41 0 2.564 1.162 2.564 2.583 0 1.421-1.154 2.584-2.564 2.584zm43.97 0h-19.1c-1.41 0-2.564-1.163-2.564-2.584 0-1.42 1.154-2.583 2.564-2.583h19.1c1.411 0 2.565 1.162 2.565 2.583 0 1.421-1.154 2.584-2.564 2.584z" fill="#86827A"/></svg>