<svg xmlns="http://www.w3.org/2000/svg" width="65" height="55" fill="none"><path d="M6.22 43.3h52.91c2.86 0 5.22-2.8 5.22-6.2V7.2c0-3.4-2.36-6.2-5.22-6.2H6.22C3.36 1 1 3.8 1 7.2V37c0 3.5 2.36 6.3 5.22 6.3zm32.14 0H26.98v6.58h11.38V43.3z" stroke="#1A1A1A" stroke-miterlimit="10"/><path d="M43.55 49.87H21.8v4.2h21.75v-4.2zM1 8.62h63.34M6.35 6.38a1.31 1.31 0 100-2.62 1.31 1.31 0 000 2.62zm5.06 0a1.31 1.31 0 100-2.62 1.31 1.31 0 000 2.62zm5.05 0a1.31 1.31 0 100-2.62 1.31 1.31 0 000 2.62z" stroke="#1A1A1A" stroke-miterlimit="10"/><path d="M17.598 26.198l-.073.241c-.257.853-.51 1.688-.687 2.472l-.089.39h-.868l-.073-.413a32.045 32.045 0 00-.446-2.003l-.177-.733-1.073-4.062h-.569l2.328 7.71h.71l1.284-3.797c.298-.921.561-1.812.776-2.826l.084-.397h.853l.082.4c.205.996.45 1.847.756 2.808l1.22 3.812h.71l2.487-7.71h-.505l-1.137 4.016-5.593.092zm0 0l1.307-4.098h.596l1.241 4.007s0 0 0 0c.319 1.035.574 1.94.76 2.799l.085.394h.88l.067-.421c.135-.85.368-1.745.657-2.773l-5.593.092zm13.46 0l-.073.241c-.257.853-.51 1.688-.687 2.472l-.089.39h-.868l-.073-.413c-.117-.656-.276-1.306-.446-2.003l-.177-.733-1.073-4.062h-.569l2.328 7.71h.71l1.284-3.797c.297-.921.561-1.812.776-2.826l.084-.397h.853l.082.4c.205.996.45 1.847.756 2.808l1.22 3.812h.71l2.487-7.71h-.505l-1.137 4.016-5.593.092zm0 0l1.307-4.098h.596l1.241 4.007s0 0 0 0c.319 1.035.574 1.94.76 2.799l.084.394h.881l.067-.421c.135-.85.368-1.745.657-2.773l-5.593.092zm13.469 0l-.072.241c-.258.853-.51 1.688-.688 2.472l-.088.39h-.868l-.074-.413c-.116-.656-.275-1.306-.445-2.003a112.12 112.12 0 01-.177-.733l-1.073-4.062h-.569l2.328 7.71h.71l1.284-3.797c.297-.921.561-1.812.776-2.826l.084-.397h.852l.083.4c.205.996.45 1.847.756 2.808l1.219 3.812h.71l2.488-7.71h-.505l-1.137 4.016-5.594.092zm0 0l1.308-4.098h.596l1.24 4.007h.001c.318 1.035.574 1.94.76 2.799l.084.394h.881l.067-.421c.135-.85.367-1.745.657-2.773l-5.594.092z" fill="#1A1A1A" stroke="#FBB81B"/></svg>