<svg xmlns="http://www.w3.org/2000/svg" width="63" height="42" fill="none"><path d="M21.67 25.51h2.76v-1.25h-2.76V20h2.76V8.89h9.52c1.5 0 2.84.33 3.93.92 1.17.67 2.01 1.59 2.67 2.67.67 1.17.92 2.51.92 4.01s-.33 2.84-.92 4.01c-.67 1.17-1.5 2.09-2.67 2.67-1.17.67-2.42.92-3.93.92h-5.1v1.25h4.68v4.26h-4.68v3.51h-4.43V29.6h-2.76v-4.09h.01z" stroke="#FBB81B" stroke-miterlimit="10"/><path d="M36.21 19.08c.58-.67.84-1.42.84-2.51 0-1.09-.25-1.92-.84-2.51-.5-.58-1.25-.92-2.09-.92h-5.26v6.85h5.26c.92 0 1.59-.33 2.09-.92v.01z" stroke="#FBB81B" stroke-miterlimit="10"/><rect x=".5" y=".5" width="62" height="41" rx="5.5" stroke="#1A1A1A"/></svg>