<svg xmlns="http://www.w3.org/2000/svg" width="64" height="55" fill="none"><path d="M38.36 43H26.98v6.58h11.38V43z" stroke="#000" stroke-miterlimit="10"/><path d="M43.55 49.57H21.8v4.2h21.75v-4.2zM1 9h62M6.35 6.38a1.31 1.31 0 100-2.62 1.31 1.31 0 000 2.62zm5.06 0a1.31 1.31 0 100-2.62 1.31 1.31 0 000 2.62zm5.05 0a1.31 1.31 0 100-2.62 1.31 1.31 0 000 2.62z" stroke="#000" stroke-miterlimit="10"/><path d="M22.358 29.79h2.69v-1.163h-2.69v-3.962h2.69V14.334h9.275c1.462 0 2.767.306 3.83.855 1.14.623 1.958 1.479 2.6 2.483.654 1.088.897 2.334.897 3.73 0 1.394-.321 2.64-.896 3.728-.653 1.088-1.462 1.944-2.602 2.483-1.14.623-2.358.856-3.829.856h-4.969v1.162h4.56v3.962h-4.56v3.264h-4.316v-3.264h-2.69V29.79h.01z" stroke="#FBB81B" stroke-miterlimit="10"/><path d="M36.753 23.756c.576-.601.834-1.274.834-2.251 0-.978-.248-1.722-.834-2.251-.496-.52-1.24-.825-2.074-.825H29.46v6.143h5.22c.912 0 1.577-.296 2.073-.825v.009z" stroke="#FBB81B" stroke-miterlimit="10"/><rect x=".5" y=".5" width="63" height="42" rx="5.5" stroke="#1A1A1A"/></svg>