<svg xmlns="http://www.w3.org/2000/svg" width="44" height="44" fill="none"><path d="M28.92 43.29h7.9c3.58 0 6.47-2.9 6.47-6.47v-8.37m.01-12.61V7.47C43.3 3.89 40.4 1 36.83 1h-7.9M1 28.45v8.37c0 3.58 2.9 6.47 6.47 6.47h7.9M1 15.84V7.47C1 3.89 3.9 1 7.47 1h7.9" stroke="#1A1A1A" stroke-miterlimit="10"/><path d="M17.56 10.59h-5.01a2.17 2.17 0 00-2.17 2.17v5.01a2.17 2.17 0 002.17 2.17h5.01a2.17 2.17 0 002.17-2.17v-5.01a2.17 2.17 0 00-2.17-2.17z" stroke="#FBB81B" stroke-miterlimit="10"/><path d="M17.56 24.36h-5.01a2.17 2.17 0 00-2.17 2.17v5.01a2.17 2.17 0 002.17 2.17h5.01a2.17 2.17 0 002.17-2.17v-5.01a2.17 2.17 0 00-2.17-2.17zm9.35 0h-1.18a1.26 1.26 0 00-1.26 1.26v.85c0 .696.564 1.26 1.26 1.26h1.18a1.26 1.26 0 001.26-1.26v-.85a1.26 1.26 0 00-1.26-1.26zm0 5.97h-1.18a1.26 1.26 0 00-1.26 1.26v.85c0 .696.564 1.26 1.26 1.26h1.18a1.26 1.26 0 001.26-1.26v-.85a1.26 1.26 0 00-1.26-1.26zm5.65-5.97h-1.18a1.26 1.26 0 00-1.26 1.26v.85c0 .696.564 1.26 1.26 1.26h1.18a1.26 1.26 0 001.26-1.26v-.85a1.26 1.26 0 00-1.26-1.26zm0 5.97h-1.18a1.26 1.26 0 00-1.26 1.26v.85c0 .696.564 1.26 1.26 1.26h1.18a1.26 1.26 0 001.26-1.26v-.85a1.26 1.26 0 00-1.26-1.26zm-.91-19.74h-5.01a2.17 2.17 0 00-2.17 2.17v5.01a2.17 2.17 0 002.17 2.17h5.01a2.17 2.17 0 002.17-2.17v-5.01a2.17 2.17 0 00-2.17-2.17z" stroke="#1A1A1A" stroke-miterlimit="10"/></svg>