<svg xmlns="http://www.w3.org/2000/svg" width="79" height="102" viewBox="0 0 79 102" fill="none">
<path d="M77.1854 1H1V101H77.1854V1Z" stroke="#1A1A1A" stroke-width="2" stroke-miterlimit="10"/>
<path d="M68.5478 9.62256H9.62305V22.519H68.5478V9.62256Z" stroke="#FBB81B" stroke-width="2" stroke-miterlimit="10"/>
<path d="M22.5194 31.8521H9.62305V44.7485H22.5194V31.8521Z" stroke="#1A1A1A" stroke-width="2" stroke-miterlimit="10"/>
<path d="M46.831 31.8521H33.9346V44.7485H46.831V31.8521Z" stroke="#1A1A1A" stroke-width="2" stroke-miterlimit="10"/>
<path d="M68.4569 31.8521H55.5605V44.7485H68.4569V31.8521Z" stroke="#1A1A1A" stroke-width="2" stroke-miterlimit="10"/>
<path d="M22.5194 54.2617H9.62305V67.1581H22.5194V54.2617Z" stroke="#1A1A1A" stroke-width="2" stroke-miterlimit="10"/>
<path d="M46.831 54.2617H33.9346V67.1581H46.831V54.2617Z" stroke="#1A1A1A" stroke-width="2" stroke-miterlimit="10"/>
<path d="M68.4569 54.2617H55.5605V89.5834H68.4569V54.2617Z" stroke="#1A1A1A" stroke-width="2" stroke-miterlimit="10"/>
<path d="M22.5194 76.6875H9.62305V89.5839H22.5194V76.6875Z" stroke="#1A1A1A" stroke-width="2" stroke-miterlimit="10"/>
<path d="M46.831 76.6875H33.9346V89.5839H46.831V76.6875Z" stroke="#1A1A1A" stroke-width="2" stroke-miterlimit="10"/>
</svg>
