<svg xmlns="http://www.w3.org/2000/svg" width="33" height="42" viewBox="0 0 33 42" fill="none">
<path d="M31.4742 1H1V41H31.4742V1Z" stroke="#F8F5F0" stroke-width="2" stroke-miterlimit="10"/>
<path d="M28.0191 4.44922H4.44922V9.60778H28.0191V4.44922Z" stroke="#FBB81B" stroke-width="2" stroke-miterlimit="10"/>
<path d="M9.60778 13.3408H4.44922V18.4994H9.60778V13.3408Z" stroke="#F8F5F0" stroke-width="2" stroke-miterlimit="10"/>
<path d="M19.3324 13.3408H14.1738V18.4994H19.3324V13.3408Z" stroke="#F8F5F0" stroke-width="2" stroke-miterlimit="10"/>
<path d="M27.9828 13.3408H22.8242V18.4994H27.9828V13.3408Z" stroke="#F8F5F0" stroke-width="2" stroke-miterlimit="10"/>
<path d="M9.60778 22.3047H4.44922V27.4633H9.60778V22.3047Z" stroke="#F8F5F0" stroke-width="2" stroke-miterlimit="10"/>
<path d="M19.3324 22.3047H14.1738V27.4633H19.3324V22.3047Z" stroke="#F8F5F0" stroke-width="2" stroke-miterlimit="10"/>
<path d="M27.9828 22.3047H22.8242V36.4333H27.9828V22.3047Z" stroke="#F8F5F0" stroke-width="2" stroke-miterlimit="10"/>
<path d="M9.60778 31.2749H4.44922V36.4335H9.60778V31.2749Z" stroke="#F8F5F0" stroke-width="2" stroke-miterlimit="10"/>
<path d="M19.3324 31.2749H14.1738V36.4335H19.3324V31.2749Z" stroke="#F8F5F0" stroke-width="2" stroke-miterlimit="10"/>
</svg>
