<svg width="79" height="102" viewBox="0 0 79 102" fill="none" xmlns="http://www.w3.org/2000/svg">
<path d="M77.1854 1H1V101H77.1854V1Z" stroke="#86827A" stroke-width="2" stroke-miterlimit="10"/>
<path d="M68.5473 9.62305H9.62256V22.5195H68.5473V9.62305Z" stroke="#86827A" stroke-width="2" stroke-miterlimit="10"/>
<path d="M22.519 31.8516H9.62256V44.748H22.519V31.8516Z" stroke="#86827A" stroke-width="2" stroke-miterlimit="10"/>
<path d="M46.8315 31.8516H33.9351V44.748H46.8315V31.8516Z" stroke="#86827A" stroke-width="2" stroke-miterlimit="10"/>
<path d="M68.4569 31.8516H55.5605V44.748H68.4569V31.8516Z" stroke="#86827A" stroke-width="2" stroke-miterlimit="10"/>
<path d="M22.519 54.2617H9.62256V67.1581H22.519V54.2617Z" stroke="#86827A" stroke-width="2" stroke-miterlimit="10"/>
<path d="M46.8315 54.2617H33.9351V67.1581H46.8315V54.2617Z" stroke="#86827A" stroke-width="2" stroke-miterlimit="10"/>
<path d="M68.4569 54.2617H55.5605V89.5834H68.4569V54.2617Z" stroke="#86827A" stroke-width="2" stroke-miterlimit="10"/>
<path d="M22.519 76.6875H9.62256V89.5839H22.519V76.6875Z" stroke="#86827A" stroke-width="2" stroke-miterlimit="10"/>
<path d="M46.8315 76.6875H33.9351V89.5839H46.8315V76.6875Z" stroke="#86827A" stroke-width="2" stroke-miterlimit="10"/>
</svg>
