<svg width="24" height="25" viewBox="0 0 24 25" fill="none" xmlns="http://www.w3.org/2000/svg">
<path d="M6.10381 2.65247L6.38255 3.1838L6.38494 3.18253L6.10381 2.65247ZM1.9329 17.6943C1.77763 17.4016 1.41445 17.2901 1.12171 17.4454C0.828959 17.6006 0.717506 17.9638 0.872768 18.2565L1.9329 17.6943ZM4.59365 4.36922C5.13264 3.92534 5.73621 3.52285 6.38254 3.18379L5.82508 2.12114C5.10589 2.49842 4.43348 2.94658 3.8308 3.4429L4.59365 4.36922ZM6.38494 3.18253C11.6216 0.405218 18.1195 2.39818 20.8967 7.63457L21.9568 7.07232C18.869 1.25022 11.6446 -0.96532 5.82269 2.1224L6.38494 3.18253ZM20.8967 7.63457C23.674 12.8712 21.6811 19.3691 16.4447 22.1463L17.0069 23.2065C22.829 20.1186 25.0446 12.8942 21.9568 7.07232L20.8967 7.63457ZM16.4447 22.1463C11.2081 24.9237 4.71009 22.9307 1.9329 17.6943L0.872768 18.2565C3.9606 24.0787 11.185 26.2942 17.0069 23.2065L16.4447 22.1463Z" fill="#86827A"/>
<path d="M8.54395 4.2085L5.08538 3.18995L3.41765 0L1 8.18194L8.54395 4.2085Z" fill="#86827A"/>
</svg>
