<svg xmlns="http://www.w3.org/2000/svg" width="17" height="18" viewBox="0 0 17 18" fill="none">
  <path d="M2.29255 16.9204C2.34939 17.5457 2.86097 18.0004 3.48624 18.0004H13.301C13.9262 18.0004 14.4378 17.5267 14.4947 16.9204L15.5936 5.40039H1.1936L2.29255 16.9204ZM10.7999 9.00039C10.7999 8.67829 11.0652 8.39407 11.4062 8.39407C11.7283 8.39407 12.0126 8.65934 12.0126 9.00039V14.4004C12.0126 14.7225 11.7473 15.0067 11.4062 15.0067C11.0841 15.0067 10.7999 14.7414 10.7999 14.4004V9.00039ZM7.78729 9.00039C7.78729 8.67829 8.05255 8.39407 8.3936 8.39407C8.71571 8.39407 8.99992 8.65934 8.99992 9.00039V14.4004C8.99992 14.7225 8.73466 15.0067 8.3936 15.0067C8.0715 15.0067 7.78729 14.7414 7.78729 14.4004V9.00039ZM4.7936 9.00039C4.7936 8.67829 5.05887 8.39407 5.39992 8.39407C5.72202 8.39407 6.00624 8.65934 6.00624 9.00039V14.4004C6.00624 14.7225 5.74097 15.0067 5.39992 15.0067C5.07781 15.0067 4.7936 14.7414 4.7936 14.4004V9.00039Z" fill="#86827A"/>
  <path d="M15.5937 1.8H10.8V1.19368C10.8 0.530526 10.2695 0 9.60632 0H7.2C6.53684 0 6.00632 0.530526 6.00632 1.19368V1.8H1.19368C0.530526 1.8 0 2.33053 0 2.99368C0 3.65684 0.530526 4.18737 1.19368 4.18737H15.5937C16.2568 4.18737 16.7874 3.65684 16.7874 2.99368C16.7874 2.33053 16.2568 1.8 15.5937 1.8Z" fill="#86827A"/>
</svg>
