<svg xmlns="http://www.w3.org/2000/svg" width="24" height="24" viewBox="0 0 24 24" fill="none">
  <path d="M8.12206 12.4401H21.4312C21.7631 12.4401 22.0514 12.2186 22.1385 11.8999L23.9745 5.05868C24.0996 4.59683 23.7487 4.14579 23.2673 4.14579H6.63419L5.35033 0H0.835054C0.372646 0 0 0.370015 0 0.829158C0 1.2883 0.372646 1.65832 0.835054 1.65832H4.11543L7.0422 11.1032C6.35403 11.5083 5.68218 12.3455 5.68218 13.8796V13.9525C5.76378 14.8438 6.08202 15.5082 6.63147 15.9269C7.10476 16.2888 7.61885 16.3563 7.93165 16.3563C8.00782 16.3563 8.0731 16.3536 8.12206 16.3482H21.8801C22.3425 16.3482 22.7151 15.9782 22.7151 15.519C22.7151 15.0599 22.3425 14.6899 21.8801 14.6899H8.0731L8.04862 14.6764L7.95342 14.698C7.95342 14.698 7.77117 14.7142 7.63789 14.6062C7.48829 14.4846 7.38765 14.2145 7.34957 13.8445C7.36045 12.6642 7.9371 12.4698 8.11934 12.4401H8.12206Z" fill="#86827A"/>
  <path d="M9.74334 24.0001C11.2816 24.0001 12.5287 22.7618 12.5287 21.2344C12.5287 19.707 11.2816 18.4688 9.74334 18.4688C8.20504 18.4688 6.95801 19.707 6.95801 21.2344C6.95801 22.7618 8.20504 24.0001 9.74334 24.0001Z" fill="#86827A"/>
  <path d="M19.7663 24.0001C21.3046 24.0001 22.5516 22.7618 22.5516 21.2344C22.5516 19.707 21.3046 18.4688 19.7663 18.4688C18.228 18.4688 16.981 19.707 16.981 21.2344C16.981 22.7618 18.228 24.0001 19.7663 24.0001Z" fill="#86827A"/>
</svg>
