<svg width="33" height="42" viewBox="0 0 33 42" fill="none" xmlns="http://www.w3.org/2000/svg">
<path d="M7.92842 6.01953H1V40.9999H31.4742V6.01953H24.5458" stroke="#F8F5F0" stroke-width="2" stroke-miterlimit="10" stroke-linecap="round"/>
<path d="M24.546 6.01953V7.85583H7.92871V6.01953" stroke="#FBB81B" stroke-width="2" stroke-miterlimit="10" stroke-linecap="round"/>
<path d="M24.5459 6.01963V3.46451H20.1242C19.4054 3.46451 18.7893 3.02356 18.4752 2.38327C18.0705 1.5678 17.2248 1 16.2402 1C15.2556 1 14.41 1.56176 14.0052 2.38327C13.6911 3.02356 13.075 3.46451 12.3562 3.46451H7.93457V6.01963" stroke="#FBB81B" stroke-width="2" stroke-miterlimit="10" stroke-linecap="round"/>
<path d="M10.2357 11.9575H6.47852V15.7147H10.2357V11.9575Z" stroke="#F8F5F0" stroke-width="2" stroke-miterlimit="10" stroke-linecap="round"/>
<path d="M10.2357 18.7471H6.47852V22.5042H10.2357V18.7471Z" stroke="#F8F5F0" stroke-width="2" stroke-miterlimit="10" stroke-linecap="round"/>
<path d="M10.2357 25.5366H6.47852V29.2938H10.2357V25.5366Z" stroke="#F8F5F0" stroke-width="2" stroke-miterlimit="10" stroke-linecap="round"/>
<path d="M10.2357 32.3257H6.47852V36.0829H10.2357V32.3257Z" stroke="#F8F5F0" stroke-width="2" stroke-miterlimit="10" stroke-linecap="round"/>
<path d="M12.5615 13.8359H26.0016" stroke="#F8F5F0" stroke-width="2" stroke-miterlimit="10" stroke-linecap="round"/>
<path d="M12.5615 20.6255H26.0016" stroke="#F8F5F0" stroke-width="2" stroke-miterlimit="10" stroke-linecap="round"/>
<path d="M12.5615 27.415H26.0016" stroke="#F8F5F0" stroke-width="2" stroke-miterlimit="10" stroke-linecap="round"/>
<path d="M12.5615 34.2046H26.0016" stroke="#F8F5F0" stroke-width="2" stroke-miterlimit="10" stroke-linecap="round"/>
</svg>
