<svg width="79" height="102" viewBox="0 0 79 102" fill="none" xmlns="http://www.w3.org/2000/svg">
<path d="M18.3211 13.5488H1V101H77.1854V13.5488H59.8644" stroke="#86827A" stroke-width="2" stroke-miterlimit="10" stroke-linecap="round"/>
<path d="M59.8636 13.5488V18.1396H18.3203V13.5488" stroke="#86827A" stroke-width="2" stroke-miterlimit="10" stroke-linecap="round"/>
<path d="M59.8652 13.5491V7.16128H48.8111C47.0141 7.16128 45.4737 6.0589 44.6885 4.45817C43.6767 2.41951 41.5625 1 39.101 1C36.6395 1 34.5254 2.40441 33.5136 4.45817C32.7283 6.0589 31.188 7.16128 29.391 7.16128H18.3369V13.5491" stroke="#86827A" stroke-width="2" stroke-miterlimit="10" stroke-linecap="round"/>
<path d="M24.0902 28.3936H14.6973V37.7865H24.0902V28.3936Z" stroke="#86827A" stroke-width="2" stroke-miterlimit="10" stroke-linecap="round"/>
<path d="M24.0902 45.3672H14.6973V54.7601H24.0902V45.3672Z" stroke="#86827A" stroke-width="2" stroke-miterlimit="10" stroke-linecap="round"/>
<path d="M24.0902 62.3408H14.6973V71.7338H24.0902V62.3408Z" stroke="#86827A" stroke-width="2" stroke-miterlimit="10" stroke-linecap="round"/>
<path d="M24.0902 79.3145H14.6973V88.7074H24.0902V79.3145Z" stroke="#86827A" stroke-width="2" stroke-miterlimit="10" stroke-linecap="round"/>
<path d="M29.9033 33.0898H63.5034" stroke="#86827A" stroke-width="2" stroke-miterlimit="10" stroke-linecap="round"/>
<path d="M29.9033 50.0645H63.5034" stroke="#86827A" stroke-width="2" stroke-miterlimit="10" stroke-linecap="round"/>
<path d="M29.9033 67.0371H63.5034" stroke="#86827A" stroke-width="2" stroke-miterlimit="10" stroke-linecap="round"/>
<path d="M29.9033 84.0117H63.5034" stroke="#86827A" stroke-width="2" stroke-miterlimit="10" stroke-linecap="round"/>
</svg>
