<svg width="42" height="42" viewBox="0 0 42 42" fill="none" xmlns="http://www.w3.org/2000/svg">
<path d="M21 42C32.598 42 42 32.598 42 21C42 9.40202 32.598 0 21 0C9.40202 0 0 9.40202 0 21C0 32.598 9.40202 42 21 42Z" fill="url(#paint0_linear_1148_18686)"/>
<path fill-rule="evenodd" clip-rule="evenodd" d="M31.0517 11.1453C28.5395 8.633 25.1898 7.21582 21.6468 7.21582C14.3033 7.21582 8.31246 13.2066 8.31246 20.4858C8.31246 22.8048 8.89222 25.1238 10.1161 27.1207L8.24805 34.0134L15.3339 32.1453C17.2665 33.1759 19.4566 33.7557 21.7112 33.7557C29.0548 33.7557 35.0456 27.7649 35.0456 20.4213C35.0456 16.8784 33.6928 13.5287 31.1806 11.0164L31.0517 11.1453ZM21.6468 31.6299C19.6499 31.6299 17.7174 31.1146 16.0425 30.0839L15.656 29.8262L11.4689 30.9213L12.564 26.8631L12.3063 26.4766C11.2112 24.7373 10.6315 22.6759 10.6315 20.6146C10.6315 14.495 15.5916 9.53484 21.7112 9.53484C24.6744 9.53484 27.4444 10.6943 29.5057 12.7557C31.5671 14.817 32.7266 17.6514 32.7266 20.5502C32.7266 26.6698 27.7665 31.6299 21.6468 31.6299ZM27.702 23.3201C27.38 23.1269 25.7051 22.3539 25.4474 22.225C25.1898 22.0962 24.9321 22.0318 24.6744 22.4183C24.4812 22.7404 23.837 23.5134 23.6438 23.7066C23.4505 23.8999 23.2572 23.9643 22.9352 23.771C22.6131 23.5778 21.518 23.2557 20.2296 22.0962C19.2634 21.1943 18.5548 20.0993 18.3615 19.7772C18.1683 19.4551 18.3615 19.2618 18.4904 19.0686C18.6192 18.9397 18.8125 18.6821 19.0057 18.4888C19.199 18.2956 19.199 18.1667 19.3278 17.9091C19.4566 17.7158 19.3278 17.5226 19.3278 17.3293C19.2634 17.1361 18.5548 15.5256 18.2971 14.8815C18.0395 14.2373 17.7818 14.3017 17.5241 14.3017C17.3309 14.3017 17.1376 14.3017 16.8799 14.3017C16.6223 14.3017 16.3002 14.3661 15.9781 14.6882C15.656 15.0103 14.8186 15.8477 14.8186 17.4582C14.8186 19.0686 15.9781 20.679 16.1714 20.8723C16.3646 21.0655 18.4904 24.4796 21.8401 25.8968C22.6131 26.2189 23.2573 26.4121 23.7082 26.6054C24.4812 26.8631 25.2542 26.7986 25.8339 26.7342C26.4781 26.6698 27.8309 25.9612 28.0885 25.1238C28.3462 24.3508 28.3462 23.7066 28.2818 23.5134C28.2174 23.3845 27.9597 23.3201 27.6376 23.1269L27.702 23.3201Z" fill="white"/>
<defs>
<linearGradient id="paint0_linear_1148_18686" x1="21" y1="38.908" x2="21" y2="-3.02761" gradientUnits="userSpaceOnUse">
<stop stop-color="#57B047"/>
<stop offset="1" stop-color="#83BF67"/>
</linearGradient>
</defs>
</svg>
