<svg width="180" height="180" fill="none" xmlns="http://www.w3.org/2000/svg"><path d="M41.817 56.05a6.37 6.37 0 00-12.739 0v87.604a6.369 6.369 0 1012.739 0V56.049zm109.149 0a6.37 6.37 0 00-12.738 0v87.604a6.369 6.369 0 0012.738 0V56.049zm-18.942 68.995H48.241v12.849h83.783v-12.849zm0-53.239H48.241v12.85h83.783v-12.85zM65.175 40.708v4.126h-8.723v-4.126H48.96v23.22h23.83v-23.22h-7.616zm32.483-10.246v4.722h-8.723v-4.722h-7.546v33.466h23.829V30.462h-7.56zm-32.414 70.006v3.004h-8.737v-3.004h-7.546v16.767h23.83v-16.767h-7.547z" stroke="#1A1A1A" stroke-width="2" stroke-miterlimit="10"/><path d="M97.658 94.306v3.406h-8.723v-3.406h-7.546v22.929h23.829V94.306h-7.56zm28.426 9.181v3.434h-8.723v-3.434h-5.012v13.749h19.675v-13.749h-5.94zm0-57.213v4.306h-8.723v-4.306h-5.012v17.654h19.675V46.274h-5.94z" stroke="#FBB81B" stroke-width="2" stroke-miterlimit="10"/></svg>