<svg width="180" height="180" fill="none" xmlns="http://www.w3.org/2000/svg"><path d="M120.587 112.153v-.18c0-8.045-8.031-11.7-15.494-11.7H90.347c-6.397 0-9.526-.983-13.86-2.326-1.288-.402-2.645-.831-4.168-1.246-11.866-4.182-22.749-1.994-28.62-.111a5.63 5.63 0 00-5.497-4.417h-15.95a5.631 5.631 0 00-5.636 5.635v46.26a5.632 5.632 0 005.636 5.636h15.95a5.632 5.632 0 005.636-5.636v-.692c.609-.512 6.757-5.345 16.38-2.437 12.42 3.752 24.438 6.826 24.646 6.882.332.083 4.278.969 9.734.969 5.981 0 13.804-1.08 20.7-5.469 11.603-7.394 45.277-25.145 45.609-25.311l.429-.263c.596-.416 3.545-2.645 3.794-6.48-.858-1.094-.734-1.219-2.381-2.783-6.688-6.023-10.884-4.86-18.845-1.454l-30.212 11.16s-9.817 2.547-34.81-4.251h35.294s4.653-.263 6.397-1.8M77.387 87.756h87.051a8.627 8.627 0 008.626-8.626V37.702a8.627 8.627 0 00-8.626-8.626H77.387a8.627 8.627 0 00-8.626 8.626v41.414a8.627 8.627 0 008.626 8.626v.014zm27.055-22.03h4.57v-2.034h-4.57v-7.076h4.57V38.228h15.84c2.478 0 4.693.54 6.563 1.593a11.255 11.255 0 014.403 4.486c1.038 1.897 1.564 4.14 1.564 6.674 0 2.534-.526 4.749-1.564 6.646a11.348 11.348 0 01-4.403 4.486c-1.87 1.052-4.071 1.579-6.55 1.579h-8.501v2.035h7.74v7.075h-7.74v5.788h-7.339v-5.788h-4.569v-7.075h-.014z" stroke="#1A1A1A" stroke-width="2" stroke-miterlimit="10"/><path d="M128.548 55.121c.914-1.038 1.357-2.395 1.357-4.14 0-1.745-.443-3.143-1.357-4.181-.872-.997-2.022-1.496-3.503-1.496h-8.682v11.299h8.682c1.481 0 2.631-.485 3.503-1.496v.014zM26.06 40.153h30.6a4.148 4.148 0 004.153-4.154 4.148 4.148 0 00-4.154-4.154h-30.6A4.148 4.148 0 0021.905 36a4.148 4.148 0 004.154 4.154z" stroke="#1A1A1A" stroke-width="2" stroke-miterlimit="10"/><path d="M50.36 50.815a4.148 4.148 0 00-4.155-4.154H33.744a4.148 4.148 0 00-4.154 4.154 4.148 4.148 0 004.154 4.154h12.461a4.148 4.148 0 004.154-4.154zm-25.686 25.49a4.148 4.148 0 00-4.154 4.154 4.148 4.148 0 004.154 4.154h21.531a4.148 4.148 0 004.154-4.154 4.148 4.148 0 00-4.154-4.154h-21.53zm33.619-10.66a4.148 4.148 0 00-4.154-4.154H41.677a4.148 4.148 0 00-4.154 4.154 4.148 4.148 0 004.154 4.153H54.14a4.148 4.148 0 004.154-4.153z" stroke="#FBB81B" stroke-width="2" stroke-miterlimit="10"/><path d="M33.12 65.645a4.148 4.148 0 00-4.153-4.154H9.693a4.148 4.148 0 00-4.154 4.154 4.148 4.148 0 004.154 4.153h19.274a4.148 4.148 0 004.154-4.153z" stroke="#1A1A1A" stroke-width="2" stroke-miterlimit="10"/></svg>