<svg width="181" height="180" fill="none" xmlns="http://www.w3.org/2000/svg"><path d="M155.271 48.461h-26.543l2.368-13.389a3.924 3.924 0 00-3.864-4.61H5.539a4.148 4.148 0 00-4.154 4.153 4.148 4.148 0 004.154 4.154h59.538a4.148 4.148 0 014.154 4.154 4.148 4.148 0 01-4.154 4.154H12.462a4.148 4.148 0 00-4.154 4.154 4.148 4.148 0 004.154 4.154H51.23a4.148 4.148 0 014.154 4.153 4.148 4.148 0 01-4.154 4.154H5.539a4.148 4.148 0 00-4.154 4.154A4.148 4.148 0 005.539 72h31.846a4.148 4.148 0 014.154 4.154 4.148 4.148 0 01-4.154 4.154H9.568l-7.726 43.85a3.923 3.923 0 003.863 4.611H18c0 12.212 9.942 22.154 22.154 22.154s22.154-9.942 22.154-22.154h52.615c0 12.212 9.942 22.154 22.154 22.154s22.154-9.942 22.154-22.154h7.421a3.924 3.924 0 003.864-3.24l4.763-27.014 3.738-21.198-23.76-28.856h.014zm13.458 40.154h-47.09l5.621-31.846h23.096l19.758 23.982-1.385 7.864z" stroke="#1A1A1A" stroke-width="2" stroke-miterlimit="10"/><path d="M40.155 142.616c7.647 0 13.846-6.199 13.846-13.847 0-7.647-6.2-13.846-13.846-13.846-7.647 0-13.846 6.199-13.846 13.846 0 7.648 6.199 13.847 13.846 13.847zm96.922 0c7.647 0 13.846-6.199 13.846-13.847 0-7.647-6.199-13.846-13.846-13.846s-13.847 6.199-13.847 13.846c0 7.648 6.2 13.847 13.847 13.847z" stroke="#FBB81B" stroke-width="2" stroke-miterlimit="10"/></svg>