<svg width="180" height="180" fill="none" xmlns="http://www.w3.org/2000/svg"><path d="M72.478 142.304V61.428c0-4.264 1.842-8.321 5.068-11.118l19.038-16.546L76.48 38.25a7.867 7.867 0 00-5.206 3.932l-38.479 71.142c-2.063 3.821-.65 8.598 3.171 10.661l36.568 19.786c-.042-.484-.07-.969-.07-1.453l.014-.014z" stroke="#1A1A1A" stroke-width="2" stroke-miterlimit="10"/><path d="M145.558 55.503l-26.598-23.11a7.853 7.853 0 00-10.316 0l-26.598 23.11a7.865 7.865 0 00-2.7 5.94v80.875a7.86 7.86 0 007.864 7.865h53.197a7.86 7.86 0 007.865-7.865v-80.89c0-2.27-.983-4.444-2.7-5.94l-.014.015zm-31.749-9.07a7.78 7.78 0 017.781 7.782 7.77 7.77 0 01-7.781 7.781 7.771 7.771 0 01-7.782-7.781 7.771 7.771 0 017.782-7.782z" stroke="#1A1A1A" stroke-width="2" stroke-miterlimit="10"/><path d="M128.707 103.23a11.347 11.347 0 01-4.403 4.487c-1.869 1.052-4.071 1.578-6.549 1.578h-8.502v2.035h7.74v7.076h-7.74v5.788h-7.338v-5.788h-4.57v-7.076h4.57v-2.035h-4.57v-7.075h4.57V83.832h15.84c2.478 0 4.694.54 6.563 1.592a11.249 11.249 0 014.403 4.486c1.039 1.897 1.565 4.14 1.565 6.674 0 2.534-.526 4.75-1.565 6.646h-.014z" stroke="#FBB81B" stroke-width="2" stroke-miterlimit="10"/><path d="M121.424 100.641c.914-1.039 1.357-2.396 1.357-4.14 0-1.745-.443-3.143-1.357-4.182-.872-.997-2.022-1.495-3.503-1.495h-8.682v11.298h8.682c1.481 0 2.631-.484 3.503-1.495v.014z" stroke="#FBB81B" stroke-width="2" stroke-miterlimit="10"/></svg>