<svg width="99" height="106" viewBox="0 0 99 106" fill="none" xmlns="http://www.w3.org/2000/svg">
<path d="M51.1515 37.7427C40.2594 37.7427 31.4258 46.5767 31.4258 57.4694C31.4258 68.3621 40.2594 77.1961 51.1515 77.1961C62.0436 77.1961 70.8772 68.3621 70.8772 57.4694C70.8772 46.5767 62.0436 37.7687 51.1515 37.7427ZM51.1515 67.5021C45.6012 67.5021 41.1193 63.02 41.1193 57.4694C41.1193 51.9188 45.6012 47.4367 51.1515 47.4367C56.7018 47.4367 61.1837 51.9188 61.1837 57.4694C61.1837 63.02 56.7018 67.5021 51.1515 67.5021Z" fill="#86827A"/>
<path d="M95.5271 39.8535C95.1102 39.4366 94.9017 38.8893 94.9017 38.316C87.3189 20.8825 70.1468 9.625 51.1507 9.625C48.2583 9.625 45.3659 9.88559 42.5256 10.4328L44.4539 19.0844C44.5581 19.5796 44.4539 20.1007 44.1933 20.5438C43.9067 20.9868 43.4898 21.2734 42.9947 21.3776C40.9361 21.8207 38.9036 22.4721 36.9493 23.306C29.2883 26.5113 22.9302 32.1661 18.8391 39.3845C18.5004 39.9838 17.875 40.3747 17.1714 40.3747C16.9108 40.3747 16.6242 40.3226 16.3897 40.1923L8.12938 36.544C2.39667 48.2446 1.71917 61.7692 6.20111 73.9649C6.3314 74.3297 6.48774 74.6685 6.61803 75.0333C7.0089 75.4502 7.24342 75.9975 7.24342 76.5708C7.39976 76.9356 7.55611 77.2744 7.71246 77.6131C15.5819 94.4994 32.5194 105.314 51.1507 105.314C56.7792 105.314 62.3556 104.324 67.6192 102.369L68.7137 101.952C68.9221 101.744 69.1567 101.587 69.4172 101.483C69.7039 101.379 69.9905 101.327 70.3032 101.327L71.3716 100.858C94.2763 90.1215 104.882 63.437 95.6313 39.8796C95.6313 39.8796 95.5271 39.8796 95.5271 39.8275V39.8535ZM11.126 65.5217C10.7873 66.2774 10.0316 66.7465 9.19775 66.7726C8.88506 66.7726 8.54631 66.6944 8.25967 66.5641C7.26947 65.8866 7.03496 64.5315 7.71246 63.5412C8.25967 62.7595 9.24987 62.4207 10.1619 62.7334C11.1781 63.2806 11.569 64.5054 11.1 65.5217H11.126ZM17.8489 55.6714C17.432 56.0883 16.8848 56.3229 16.2855 56.3489C15.7122 56.3489 15.191 56.1405 14.8002 55.7235C13.8881 54.9417 13.7839 53.5867 14.5656 52.6746C15.3474 51.7625 16.7024 51.6583 17.6144 52.4401C17.6926 52.4922 17.7447 52.5443 17.7968 52.6225C18.6567 53.4303 18.6828 54.8114 17.875 55.6714H17.8489ZM60.7661 31.0456C61.8344 30.5244 63.1373 30.9934 63.6585 32.0619C64.1796 33.1303 63.7106 34.4332 62.6422 34.9544C62.564 34.9805 62.4859 35.0326 62.4077 35.0587C62.1471 35.1629 61.8865 35.2411 61.5999 35.2411C60.4012 35.2411 59.411 34.3029 59.411 33.1042C59.411 32.2182 59.9322 31.3843 60.7661 31.0716V31.0456ZM52.8966 21.1692C53.7044 20.2832 55.0855 20.2571 55.9714 21.0649C56.8574 21.8728 56.8834 23.2539 56.0757 24.1399C55.6587 24.5829 55.0594 24.8435 54.4601 24.8174C53.9129 24.8174 53.3657 24.609 52.9748 24.2181C52.1149 23.4103 52.0628 22.0812 52.8706 21.2213C52.8706 21.2213 52.8706 21.1952 52.8966 21.1692ZM26.7086 49.2087C25.5099 49.2609 24.4937 48.3227 24.4676 47.124C24.4155 45.9253 25.3536 44.909 26.5522 44.8829C27.4642 44.8569 28.2981 45.3781 28.6368 46.2119C29.0798 47.3064 28.5847 48.5573 27.4642 49.0263C27.4642 49.0263 27.4642 49.0263 27.4382 49.0263C27.2037 49.1306 26.9691 49.1827 26.7086 49.2087ZM41.5354 83.9194C41.2748 84.0237 40.9882 84.0758 40.7016 84.0758C39.5029 84.0758 38.5648 83.0855 38.5909 81.9129C38.5909 80.7142 39.5811 79.776 40.7537 79.8021C41.9524 79.8021 42.8904 80.7923 42.8644 81.965C42.8644 82.825 42.3172 83.6067 41.5094 83.9455L41.5354 83.9194ZM49.3788 93.8219C48.9619 94.2388 48.4147 94.4734 47.8153 94.4994C47.2421 94.4994 46.7209 94.2649 46.304 93.874C45.4701 93.014 45.4701 91.659 46.304 90.799C47.1378 89.9391 48.5189 89.9651 49.3788 90.799C50.2127 91.6329 50.2127 93.014 49.3788 93.874V93.8219ZM60.2449 100.337C59.8801 101.092 59.1505 101.561 58.3166 101.587C58.0039 101.587 57.6912 101.509 57.4046 101.353C56.3102 100.858 55.8411 99.5549 56.3623 98.4865C56.8834 97.418 58.1863 96.949 59.2808 97.4702C60.3491 97.9913 60.7921 99.2943 60.271 100.363L60.2449 100.337ZM51.1507 81.079C38.1479 81.079 27.5945 70.5251 27.5945 57.5216C27.5945 44.5181 38.1479 33.9642 51.1507 33.9642C64.1536 33.9642 74.707 44.5181 74.707 57.5216C74.707 70.5251 64.1536 81.0529 51.1507 81.079ZM76.3486 69.9518C76.088 70.056 75.8274 70.1081 75.5669 70.1081C74.3682 70.1081 73.4041 69.17 73.4041 67.9713C73.4041 66.7726 74.3421 65.8084 75.5408 65.8084C76.7395 65.8084 77.7036 66.7465 77.7036 67.9452C77.7036 68.8312 77.1824 69.613 76.3486 69.9518ZM87.5013 62.2904C87.0844 62.7073 86.5372 62.9419 85.9379 62.9419C85.3646 62.9419 84.8434 62.7334 84.4265 62.3425C83.5927 61.4826 83.5927 60.1275 84.4265 59.2675C85.2604 58.4337 86.6153 58.4076 87.4753 59.2675C88.3352 60.1014 88.3612 61.4826 87.5274 62.3425V62.2904H87.5013ZM95.0059 51.2674C94.6411 51.9971 93.9115 52.4922 93.0777 52.4922C92.765 52.4922 92.4262 52.4401 92.1396 52.3098C90.993 51.9449 90.3937 50.7202 90.7585 49.5736C91.1233 48.427 92.3481 47.8276 93.4946 48.1924C93.7031 48.2706 93.8855 48.3488 94.0679 48.4791C95.1102 49.0003 95.5532 50.2772 95.0581 51.3456V51.2935L95.0059 51.2674Z" fill="#86827A"/>
<path d="M51.151 51.2671C47.7374 51.2671 44.9492 54.0294 44.9492 57.4692C44.9492 60.909 47.7113 63.6712 51.151 63.6712C54.5906 63.6712 57.3527 60.909 57.3527 57.4692C57.3527 54.0294 54.5906 51.2671 51.151 51.2671Z" fill="#86827A"/>
<path d="M35.4646 19.7357C37.0281 19.0582 38.6437 18.5109 40.3114 18.0679L38.3831 9.3642L36.4548 0.686523C33.7969 1.36406 31.1911 2.22401 28.6375 3.26637C16.5206 8.32183 6.43627 17.2862 0 28.7261L16.3903 35.9966C20.8983 28.7261 27.5691 23.0452 35.4646 19.7357ZM29.5234 7.69642C31.9208 7.69642 33.849 9.62479 33.849 12.0222C33.849 14.4197 31.9208 16.348 29.5234 16.348C27.1261 16.348 25.1979 14.4197 25.1979 12.0222C25.1979 9.62479 27.1261 7.69642 29.5234 7.69642ZM10.0583 24.9736C10.0583 22.5761 11.9866 20.6217 14.3839 20.6217C16.7812 20.6217 18.7355 22.5501 18.7355 24.9475C18.7355 27.345 16.8073 29.2994 14.4099 29.2994C14.4099 29.2994 14.4099 29.2994 14.3839 29.2994C12.0387 29.2994 10.1104 27.3971 10.0583 25.0518V24.9996V24.9736Z" fill="#86827A"/>
</svg>
