<svg width="120" height="121" viewBox="0 0 120 121" fill="none" xmlns="http://www.w3.org/2000/svg">
<path d="M119.023 66.2188V51.5364L108.776 49.8557C108.192 47.1013 107.375 44.4403 106.348 41.8726L113.911 35.6868L106.582 22.9652L96.918 26.63C95.0506 24.5525 92.9965 22.615 90.8023 20.8644L94.2336 11.8075L81.512 4.47794L75.0694 12.3444C72.3851 11.4573 69.6073 10.7804 66.7595 10.3602L65.2189 0.976562H50.5365L48.9259 10.8271C46.0547 11.4107 43.277 12.251 40.5926 13.3247L34.6869 6.11191L21.9653 13.4415L25.4433 22.615C23.2491 24.5758 21.2183 26.7233 19.3743 29.0342L10.8076 25.7896L3.47803 38.5113L10.971 44.6504C10.0373 47.4515 9.36034 50.3459 8.94017 53.3338L0 54.8043V69.4868L9.52374 71.0507C10.154 74.0152 11.0177 76.863 12.1381 79.594L5.112 85.3363L12.4415 98.058L21.5218 94.6266C23.5059 96.8208 25.7001 98.8283 28.0343 100.649L24.7897 109.239L37.5114 116.569L43.7438 108.936C46.4982 109.823 49.346 110.453 52.2872 110.85L53.7811 120.07H68.4635L70.0742 110.149C72.8986 109.519 75.653 108.679 78.2674 107.605L84.2897 114.958L97.0114 107.628L93.3933 98.058C95.4708 96.1439 97.3849 94.0664 99.1122 91.8489L108.169 95.2802L115.499 82.5585L107.492 76.0226C108.332 73.3849 108.963 70.6772 109.36 67.8761L119 66.3122L119.023 66.2188ZM83.6828 102.283L79.3645 94.79L82.9359 92.7359L87.2542 100.229L83.6828 102.283ZM59.1732 98.128C38.4217 98.128 21.6151 81.2981 21.6151 60.5699C21.6151 39.8418 38.4451 23.0119 59.1732 23.0119C79.9013 23.0119 96.7313 39.8418 96.7313 60.5699C96.7313 81.2981 79.9013 98.128 59.1732 98.128ZM63.4682 108.912H59.3599V100.252H63.4682V108.912ZM38.5384 104.547L34.967 102.493L39.2854 95.0001L42.8568 97.0542L38.5384 104.547ZM14.8458 39.6084L16.9 36.037L24.3696 40.3553L22.3154 43.9267L14.8458 39.6084ZM21.6151 74.7388L13.2585 76.9797L12.1848 73.0115L20.5414 70.7706L21.6151 74.7388ZM34.6169 18.1333L38.9353 25.6262L35.3639 27.6804L31.0455 20.1874L34.6169 18.1333ZM54.8315 11.504H58.9398V20.1641H54.8315V11.504ZM79.7613 15.8691L83.3327 17.9232L79.0143 25.4161L75.4429 23.362L79.7613 15.8691ZM96.0076 76.4662L103.501 80.7845L101.446 84.3559L93.9535 80.0376L96.0076 76.4662ZM106.255 72.5913L97.8984 70.3504L98.9721 66.3822L107.329 68.6231L106.255 72.5913ZM97.7817 49.6223L96.7079 45.6541L105.065 43.4132L106.138 47.3814L97.7817 49.6223ZM99.1822 32.0921L101.236 35.6635L93.7434 39.9819L91.6893 36.4105L99.1822 32.0921ZM87.3242 31.7186L84.4064 28.8008L90.5222 22.6851L93.44 25.6029L87.3242 31.7186ZM71.5681 13.0913L69.3272 21.4479L65.359 20.3742L67.5998 12.0176L71.5681 13.0913ZM46.3582 13.208L48.5991 21.5646L44.6308 22.6384L42.39 14.2818L46.3582 13.208ZM24.5796 25.9063L30.6954 32.0221L27.7776 34.9399L21.6618 28.8242L24.5796 25.9063ZM12.0681 47.8016L20.4247 50.0425L19.3509 54.0107L10.9943 51.7698L12.0681 47.8016ZM10.4574 60.4065H19.1175V64.5148H10.4574V60.4065ZM19.1408 88.2775L17.0867 84.7061L24.5796 80.3877L26.6338 83.9591L19.1408 88.2775ZM24.8598 94.7667L30.9755 88.6509L33.8933 91.5687L27.7776 97.6845L24.8598 94.7667ZM46.755 107.278L48.9959 98.9216L52.9641 99.9954L50.7232 108.352L46.755 107.278ZM71.9649 107.162L69.724 98.8049L73.6922 97.7312L75.9331 106.088L71.9649 107.162ZM93.7434 94.4632L87.6277 88.3475L90.5455 85.4297L96.6612 91.5454L93.7434 94.4632ZM107.842 59.963H99.1822V55.8547H107.842V59.963Z" fill="#86827A"/>
</svg>
