<svg width="130" height="130" viewBox="0 0 130 130" fill="none" xmlns="http://www.w3.org/2000/svg">
<path d="M111.275 58.1391C111.681 60.1971 111.681 62.2551 111.681 64.7464C111.681 77.5278 106.728 88.6574 98.502 97.3227L105.511 106.8C117.039 95.6709 123.642 80.3982 123.642 64.7464C123.642 61.4427 123.236 58.1391 122.83 54.4292L111.302 58.1391H111.275Z" fill="#86827A"/>
<path d="M56.4489 6.58057C37.0732 9.47805 20.5931 21.42 11.9336 39.1569L23.4616 42.8667C30.0645 30.4915 41.9984 21.42 56.4219 18.9558V6.58057H56.4489Z" fill="#86827A"/>
<path d="M105.916 42.4606L117.444 38.7507C108.785 21.42 92.3044 9.47805 72.9287 6.58057V18.5496C87.3522 21.0138 99.3132 30.0853 105.889 42.4606H105.916Z" fill="#86827A"/>
<path d="M44.082 106.801L37.0732 116.712C45.7328 121.261 54.7982 123.725 64.6754 123.725C74.5527 123.725 83.6452 121.261 92.2777 116.712L85.2689 106.801C79.0989 109.698 72.0902 111.35 64.6484 111.35C57.2066 111.35 50.2249 109.698 44.0279 106.801H44.082Z" fill="#86827A"/>
<path d="M18.5371 58.1391L7.00909 54.4292C6.60318 57.7329 6.19727 61.0365 6.19727 64.7464C6.19727 80.8315 12.8001 96.0771 24.3281 106.8L31.3369 96.8894C23.0833 88.6303 18.1582 77.0945 18.1582 64.3131C18.1582 62.6613 18.1582 60.1971 18.5641 58.1391H18.5371Z" fill="#86827A"/>
<path d="M64.7028 0C28.847 0 0 28.8665 0 64.7465C0 100.626 28.847 129.493 64.7028 129.493C100.559 129.493 129.406 100.626 129.406 64.7465C129.406 28.8665 100.559 0 64.7028 0ZM124.048 47.849L86.947 59.818C85.7021 60.2242 84.8903 59.4118 84.4844 58.5724C84.0785 57.3267 84.8903 56.5144 85.7292 56.1082L122.83 44.1392C123.236 44.9515 123.642 46.1972 124.075 47.849H124.048ZM70.0609 3.70986C93.1439 5.76788 112.52 20.6073 121.585 41.2417L91.0873 50.7194C86.1351 52.3712 80.777 51.5318 76.6638 48.2552C72.5505 45.3577 70.0609 40.4293 70.0609 35.4738V3.70986ZM75.419 64.7465C75.419 70.5143 70.8727 75.4698 64.7028 75.4698C58.9388 75.4698 53.9867 70.9205 53.9867 64.7465C53.9867 58.9786 58.5329 54.0231 64.7028 54.0231C70.4668 54.0231 75.419 58.9786 75.419 64.7465ZM62.6462 3.30367H66.7595V42.4873C66.7595 43.733 65.9476 44.5453 64.7028 44.5453C63.458 44.5453 62.6462 43.733 62.6462 42.4873V3.30367ZM59.3447 3.30367V35.4738C59.3447 40.4293 56.8822 44.9515 52.7419 47.849C48.6286 51.1527 42.8375 51.9651 37.9124 50.3132L7.82062 40.4022C16.8861 20.2011 36.2617 5.33461 59.3447 3.27659V3.30367ZM7.0088 43.733L44.1094 55.702C45.3542 56.1082 45.7601 57.3538 45.3542 58.1662C44.9483 59.4118 43.7035 59.818 42.8917 59.4118L5.79105 47.4428C5.79105 46.1972 6.19696 44.9786 7.03585 43.733H7.0088ZM3.30144 64.7735C3.30144 59.818 3.70735 55.2958 4.95216 50.7465L35.8558 60.6575C40.402 62.3093 44.1094 66.0192 45.3271 70.5685V70.9747C46.9779 75.524 46.572 80.4524 43.6764 84.5955L24.3008 110.998C11.528 99.8682 3.27438 83.377 3.27438 64.8006L3.30144 64.7735ZM26.7904 113.435L49.8734 81.671C50.6852 80.8586 51.93 80.4253 52.7689 81.2648C53.5807 82.0772 54.0137 83.3228 53.1748 84.1623L30.0918 115.926C29.28 115.114 28.0352 114.274 26.7904 113.462V113.435ZM64.7028 126.216C53.1748 126.216 42.0257 122.913 32.9603 117.551L51.93 91.1487C54.8256 87.0327 59.3447 84.9746 64.7028 84.9746C69.655 84.9746 74.1742 87.0327 77.4756 91.1487L96.4454 117.551C87.3799 123.319 76.2579 126.216 64.7028 126.216ZM99.3138 115.899L76.2308 84.1352C75.419 83.3228 75.8249 82.0772 76.6367 81.2377C77.4485 80.4253 78.6934 80.8315 79.5322 81.6439L102.615 113.408C101.37 114.22 100.153 115.06 99.3138 115.872V115.899ZM104.672 111.35L85.2962 84.9476C82.4007 81.2377 81.9948 75.876 83.6455 71.3267V70.9205C84.8903 66.3712 88.5977 62.6614 93.1169 61.0095L124.02 51.0985C125.671 55.2146 126.077 59.7639 126.077 64.7194C126.077 83.2687 117.824 99.787 104.645 111.323L104.672 111.35Z" fill="#86827A"/>
</svg>
