<svg width="115" height="88" viewBox="0 0 115 88" fill="none" xmlns="http://www.w3.org/2000/svg">
<path d="M114.195 9.6626H0V20.2035H114.195V9.6626Z" fill="#86827A"/>
<path d="M99.1973 5.27051L83.3525 5.27051V1.80856C83.3525 0.800976 84.1473 7.72476e-05 85.1472 7.72476e-05L97.4025 7.72476e-05C98.4025 7.72476e-05 99.1973 0.800976 99.1973 1.80856V5.27051Z" fill="#86827A"/>
<path d="M30.6631 5.27051L14.8183 5.27051V1.80856C14.8183 0.800976 15.6131 7.72476e-05 16.613 7.72476e-05L28.8684 7.72476e-05C29.8683 7.72476e-05 30.6631 0.800976 30.6631 1.80856V5.27051Z" fill="#86827A"/>
<path d="M105.175 25.5957H8.82429C6.87574 25.5957 5.28613 27.1975 5.28613 29.161V84.1388C5.28613 86.1023 6.87574 87.7041 8.82429 87.7041H105.175C107.123 87.7041 108.713 86.1023 108.713 84.1388V29.161C108.713 27.1975 107.123 25.5957 105.175 25.5957ZM44.3084 57.9417H37.3346V64.9689C37.3346 66.3899 36.1809 67.5525 34.7707 67.5525C33.3606 67.5525 32.2069 66.3899 32.2069 64.9689V57.9417H25.2331C23.823 57.9417 22.6692 56.7791 22.6692 55.3581C22.6692 53.9372 23.823 52.7746 25.2331 52.7746H32.2069V45.7473C32.2069 44.3264 33.3606 43.1638 34.7707 43.1638C36.1809 43.1638 37.3346 44.3264 37.3346 45.7473V52.7746H44.3084C45.7185 52.7746 46.8723 53.9372 46.8723 55.3581C46.8723 56.7791 45.7185 57.9417 44.3084 57.9417ZM88.2789 57.9417H69.178C67.7679 57.9417 66.6141 56.7791 66.6141 55.3581C66.6141 53.9372 67.7679 52.7746 69.178 52.7746H88.2789C89.6891 52.7746 90.8428 53.9372 90.8428 55.3581C90.8428 56.7791 89.6891 57.9417 88.2789 57.9417Z" fill="#86827A"/>
</svg>
