<svg width="98" height="130" viewBox="0 0 98 130" fill="none" xmlns="http://www.w3.org/2000/svg">
<path d="M49 25.8908C76.062 25.8908 98 20.095 98 12.9454C98 5.79586 76.062 0 49 0C21.938 0 0 5.79586 0 12.9454C0 20.095 21.938 25.8908 49 25.8908Z" fill="#86827A"/>
<path d="M94.4344 112.208C87.1693 116.952 69.5737 120.302 49 120.302C28.4263 120.302 10.8307 116.952 3.56565 112.208C1.27386 113.704 0 115.342 0 117.054C0 124.204 21.9406 130 49 130C76.0594 130 98 124.204 98 117.054C98 115.342 96.7261 113.704 94.4344 112.208Z" fill="#86827A"/>
<path d="M23.8486 33.2451V118.465C27.234 119 30.881 119.432 34.7317 119.739V34.5249C30.881 34.2177 27.234 33.7855 23.8486 33.2508V33.2451Z" fill="#86827A"/>
<path d="M4.14746 27.3472V112.567C6.74172 114.126 10.4586 115.519 15.0305 116.685V31.4651C10.4586 30.3048 6.74172 28.9056 4.14746 27.3529V27.3472Z" fill="#86827A"/>
<path d="M49.0001 35.0826C47.162 35.0826 45.3472 35.0541 43.5557 35.0029V120.229C45.3414 120.28 47.1562 120.308 49.0001 120.308C50.844 120.308 52.653 120.28 54.4446 120.229V35.0029C52.6588 35.0541 50.844 35.0826 49.0001 35.0826Z" fill="#86827A"/>
<path d="M63.2627 34.5249V119.745C67.1134 119.438 70.7663 119.006 74.1458 118.471V33.2451C70.7604 33.7798 67.1134 34.212 63.2627 34.5192V34.5249Z" fill="#86827A"/>
<path d="M82.9697 31.4651V116.685C87.5417 115.519 91.2644 114.126 93.8528 112.567V27.3472C91.2585 28.9056 87.5417 30.2991 82.9697 31.4594V31.4651Z" fill="#86827A"/>
</svg>
