<svg width="95" height="134" viewBox="0 0 95 134" fill="none" xmlns="http://www.w3.org/2000/svg">
<path d="M93.198 44.9786L61.0767 21.3385C60.4813 21.2031 59.886 21.0677 59.2906 20.9323H36.1264C34.611 20.9323 33.3933 19.7137 33.3933 18.1973V14.3249C33.3933 13.4313 32.6626 12.7002 31.7696 12.7002H1.5425C1.5425 12.7002 1.35307 12.7002 1.24482 12.7002C0.514177 12.8356 0 13.4855 0 14.2166V129.006C0 131.361 1.89429 133.257 4.24859 133.257H89.8154C92.1697 133.257 94.064 131.361 94.064 129.006V46.3597C94.064 45.7639 93.7393 45.2494 93.198 44.9786ZM57.3422 94.9669C54.7714 97.9186 51.1453 100.058 47.032 100.058C42.9187 100.058 39.2926 97.9186 36.7218 94.9669C34.151 92.0153 32.5544 88.1971 32.5544 84.4331C32.5544 75.6053 39.6714 65.8838 45.6248 55.6749C45.8684 55.2688 46.3014 54.998 46.7885 54.9167C47.4379 54.8084 48.1145 55.1063 48.4392 55.6749C54.3926 65.8567 61.5096 75.5782 61.5096 84.4331C61.5096 88.17 59.913 92.0153 57.3422 94.9669Z" fill="#86827A"/>
<path d="M31.2013 0H1.81308C0.811741 0 0 0.812294 0 1.81431V6.63441C0 7.63643 0.811741 8.44872 1.81308 8.44872H31.2013C32.2027 8.44872 33.0144 7.63643 33.0144 6.63441V1.81431C33.0144 0.812294 32.2027 0 31.2013 0Z" fill="#86827A"/>
</svg>
