<svg width="38" height="131" viewBox="0 0 38 131" fill="none" xmlns="http://www.w3.org/2000/svg">
<path d="M8.55081 34.9864C7.5225 34.9864 6.46711 34.9593 5.41173 34.9322C4.92463 34.9322 4.43754 34.9322 4.35635 34.2823C4.27517 33.6324 4.5999 33.3616 5.19524 33.2533C6.30474 33.0096 7.41424 32.7117 8.49668 32.468C8.98378 31.3578 8.57786 30.5995 7.71191 30.0309C8.0637 29.5435 8.5508 29.1643 8.57786 28.7311C8.57786 28.4332 8.00958 28.0812 7.60366 27.675C7.84721 27.4854 7.98253 27.35 8.1449 27.2417C8.84848 26.7814 8.87554 26.4835 8.1449 26.0231C7.57661 25.644 7.60368 25.3732 8.1449 24.9941C8.87554 24.4796 8.87554 24.263 8.1449 23.7756C8.00959 23.6943 7.87429 23.586 7.76604 23.4777C7.76604 23.4777 7.76603 23.3965 7.71191 23.234C7.87428 23.0986 8.09076 22.909 8.28019 22.7466C8.79435 22.3404 8.82141 22.0154 8.28019 21.5822C7.79309 21.185 7.79309 20.8239 8.28019 20.499C8.82141 20.1199 8.84849 19.7408 8.36139 19.3617C7.87429 18.9825 7.83821 18.6305 8.25314 18.3056C8.84848 17.8181 8.84848 17.5744 8.25314 17.1141C7.63074 16.6267 7.63072 16.5454 8.28019 16.058C8.87553 15.5976 8.87553 15.3268 8.28019 14.8665C8.09076 14.7311 7.95546 14.5416 7.71191 14.2978C7.9284 14.1083 8.06371 13.9729 8.22608 13.8646C8.95672 13.4042 8.95671 13.1334 8.28019 12.646C7.68485 12.2127 7.68486 12.0503 8.25314 11.617C8.95673 11.1025 8.98377 10.8859 8.28019 10.3984C7.79309 10.0735 7.65779 9.66729 8.19901 9.45065C8.92966 9.15278 8.82142 8.63828 8.82142 8.09669C8.82142 7.63635 8.82142 7.77174 8.82142 6.95936C8.87554 5.0909 10.2557 5.36169 12.3935 5.36169C12.9618 5.36169 13.3677 5.38877 13.8277 5.41585C14.0171 3.92649 14.6666 2.8704 16.2632 2.68085C16.3173 1.78723 16.3444 1.00193 16.3985 0C18.1033 0 19.727 0 21.486 0.0270792C21.513 0.947773 21.5401 1.73307 21.5671 2.46421C22.1625 2.84332 22.839 3.11411 23.272 3.60154C23.6779 4.03481 23.8132 4.71179 24.1109 5.44293C24.8956 5.44293 25.8157 5.44293 26.7358 5.49709C28.6571 5.55124 28.9818 5.87619 28.9548 7.74466C28.9548 8.04253 28.9548 8.34041 28.9548 8.63828C28.9548 9.04447 28.9818 9.34234 29.4689 9.53189C30.0102 9.72145 30.0102 10.1006 29.5231 10.4797C28.7112 11.1025 28.7112 11.1837 29.496 11.7524C29.956 12.1044 30.0101 12.3752 29.496 12.7272C28.6571 13.3501 28.6842 13.4584 29.5772 14.0541C29.6855 14.1083 29.7395 14.2437 29.8748 14.4062C29.5501 14.7853 29.0901 15.0831 28.9007 15.5164C28.603 16.2475 29.7937 16.058 29.7666 16.7621C29.7396 16.8162 29.7125 16.9787 29.6043 17.0328C28.603 17.7369 28.603 17.7369 29.5231 18.4951C29.8749 18.793 29.8478 19.0638 29.5231 19.3346C28.9458 19.8581 28.9728 20.3816 29.6043 20.9052C29.6043 20.9052 29.7125 21.1218 29.7666 21.3384C29.5772 21.4738 29.3607 21.5822 29.1713 21.7446C28.6301 22.1508 28.6301 22.4758 29.1713 22.882C29.6403 23.243 29.6403 23.6041 29.1713 23.9651C28.6301 24.3713 28.6571 24.6963 29.1713 25.1295C29.6403 25.4906 29.6313 25.8517 29.1442 26.2127C28.6571 26.5918 28.6301 26.9438 29.063 27.2959C29.7666 27.8916 29.7937 27.9187 29.1171 28.4061C28.63 28.7311 28.6571 29.0831 28.9548 29.4622C29.7125 30.3558 29.7396 30.3287 28.6842 30.9787C28.6842 31.4119 28.6842 31.9264 28.6842 32.5492C29.6313 32.793 30.5243 33.0096 31.4173 33.2533C31.715 33.3345 31.9856 33.4158 32.2833 33.4699C32.8516 33.5783 33.068 33.9303 33.0139 34.4719C32.9598 35.0676 32.5809 35.1218 32.1209 35.1218C31.0114 35.1218 29.929 35.1218 28.8466 35.1218C28.603 35.7446 28.7113 36.0695 29.3607 36.2049C30.5785 36.4216 31.7691 36.6924 32.9869 36.9632C34.1234 37.234 34.4482 37.586 34.4482 38.7233C34.4482 42.0541 34.4482 45.3848 34.367 48.6885C34.367 50.0424 33.3928 50.8548 31.9044 50.8277C27.9806 50.8277 24.0567 50.7736 20.16 50.7465C15.3431 50.7194 10.5263 50.6653 5.73647 50.6382C5.27643 50.6382 4.78933 50.6653 4.35635 50.5299C3.21979 50.1778 2.75977 49.4738 2.75977 48.201C2.75977 45.0599 2.78682 41.8916 2.81388 38.7504C2.81388 37.3423 3.16566 36.9361 4.51871 36.6653C5.65527 36.4487 6.76477 36.2049 7.90134 36.0154C8.52374 35.9071 8.6861 35.6092 8.46961 34.9322L8.55081 34.9864Z" fill="#86827A"/>
<path d="M8.44336 70.0537C15.2086 70.1079 21.8115 70.162 28.685 70.2433C28.6309 70.5411 28.4956 70.8932 28.4685 71.2723C28.1979 74.5759 27.9814 77.9067 27.6837 81.2104C27.6296 81.9686 27.3319 82.6726 27.1695 83.4309C27.0342 83.9995 26.926 84.5953 26.7907 85.1639C26.6824 85.6784 26.5201 86.1929 26.4118 86.7345C26.3577 87.0595 26.2495 87.4386 26.3848 87.7094C26.9531 89.1175 27.0072 90.4715 26.3307 91.8796C26.2224 92.1233 26.2224 92.4753 26.3307 92.719C26.8989 94.1542 26.9531 95.5624 26.2766 96.9976C26.1683 97.1871 26.1954 97.5121 26.2766 97.7287C26.899 99.1639 26.8989 100.572 26.2224 102.007C26.1142 102.224 26.1683 102.603 26.2766 102.847C26.8448 104.201 26.7907 105.555 26.2766 106.909C26.1683 107.206 26.2765 107.613 26.3307 107.965C26.4118 108.587 26.6013 109.21 26.6013 109.833C26.6013 110.591 26.1142 111.106 25.3835 111.295C24.7341 111.458 23.9222 111.404 23.6246 112.135C23.2457 113.028 22.8939 113.949 22.7315 114.897C22.5962 115.763 22.7045 116.684 22.7045 117.578C22.7045 118.092 22.7586 118.58 22.1362 118.878C21.9197 118.986 21.7844 119.446 21.8115 119.744C21.8927 120.854 21.9197 121.965 22.2174 123.021C22.7857 125.052 22.2174 126.92 21.6491 128.789C21.5409 129.168 20.9726 129.547 20.5396 129.682C18.8618 130.143 17.1841 130.088 15.4792 129.682C14.7756 129.52 14.3968 129.114 14.2073 128.409C13.6932 126.324 13.3414 124.266 14.0991 122.127C14.3697 121.342 14.3156 120.448 14.3697 119.609C14.3697 119.365 14.2885 119.013 14.1532 118.932C13.4226 118.553 13.5308 117.903 13.5308 117.253C13.5308 116.413 13.6391 115.547 13.5308 114.707C13.4226 113.868 13.179 113.028 12.8272 112.297C12.6107 111.864 12.0425 111.512 11.5554 111.377C9.8776 110.889 9.174 109.644 9.95877 108.127C10.2835 107.504 10.1753 107.098 9.98583 106.502C9.63404 105.311 9.57992 104.092 10.067 102.901C10.2023 102.576 10.2835 102.143 10.1482 101.845C9.60697 100.437 9.57992 99.0556 10.2023 97.6745C10.3106 97.4308 10.3106 97.0788 10.2023 96.8351C9.60699 95.427 9.63403 94.0459 10.2294 92.6649C10.3376 92.4212 10.3376 92.0691 10.2294 91.8254C9.66109 90.4173 9.63404 89.0363 10.2835 87.6552C10.3647 87.4657 10.3917 87.2219 10.3647 87.0324C10.0129 85.516 9.57991 84.0266 9.25518 82.5102C9.09281 81.8061 9.09283 81.075 9.0387 80.3438C8.84928 77.3651 8.65983 74.3864 8.47041 71.4077C8.47041 71.0015 8.47042 70.5682 8.44336 70.1079V70.0537Z" fill="#86827A"/>
<path d="M4.38389 54.917C13.8823 54.9712 23.2454 55.0253 32.7709 55.0795C32.5544 56.1085 33.745 56.5147 34.9087 56.8667C36.7217 57.4083 37.263 58.329 37.1547 59.6288C36.9924 61.7139 37.29 61.5514 34.5028 62.5263C33.8262 62.77 33.2038 63.0137 33.0956 63.5553C32.7979 65.0988 30.6601 65.9653 28.3329 65.9653C23.5972 65.9382 18.8886 65.9112 14.1529 65.8841C12.3669 65.8841 10.5808 65.8299 8.79482 65.8841C6.46758 65.9112 4.24858 65.0717 3.86972 63.3928C3.78854 63.0949 3.32851 62.77 2.92259 62.5533C2.38137 62.2825 1.75896 62.093 1.13656 61.8764C0.378849 61.6056 0 61.1994 0 60.6307C0 59.8996 0 59.1955 0 58.4644C0 57.8957 0.378864 57.4895 1.10951 57.1916C1.73191 56.9479 2.32724 56.6501 2.9767 56.4605C3.92384 56.1626 4.46507 55.7294 4.38389 54.9441V54.917Z" fill="#86827A"/>
</svg>
