<svg width="130" height="130" viewBox="0 0 130 130" fill="none" xmlns="http://www.w3.org/2000/svg">
<path d="M129.458 74.0541C130 71.0811 130 67.8378 130 64.8649V64.5946L128.917 64.3243V61.6216L130 61.8919C129.729 58.3784 129.458 55.1351 128.646 51.8919H127.562L127.021 49.1892H128.104C127.292 45.9459 126.208 42.973 125.125 40L124.042 40.2703L122.958 37.5676L124.042 37.2973C122.687 34.3243 120.792 31.3514 118.896 28.3784L117.812 28.9189L116.188 26.4865L117.271 26.2162C115.375 23.5135 113.208 21.3514 111.042 18.9189L109.958 19.4595L108.062 17.5676L108.875 17.027C106.438 14.8649 103.729 12.7027 100.75 10.8108L99.9375 11.6216L97.5 9.72973L98.3125 8.91892C95.6042 7.2973 92.625 5.94595 89.6458 4.59459L89.1042 5.40541L86.3958 4.32432L86.9375 3.51351C83.6875 2.43243 80.4375 1.62162 77.1875 0.810811L76.6458 1.89189L73.9375 1.35135L74.4792 0.27027C71.2292 0.27027 68.25 0 65 0H64.7292L64.4583 1.08108H61.75V0C58.2292 0.27027 54.9792 0.54054 51.7292 1.35135V2.43243L49.0208 2.97297V1.89189C45.7708 2.7027 42.7917 3.78378 39.8125 4.86486L40.0833 5.94595L37.375 7.02703L37.1042 5.94595C34.125 7.2973 31.1458 9.18919 28.1667 11.0811L28.7083 12.1622L26.2708 13.7838L26 12.7027C23.5625 14.8649 21.125 17.027 18.9583 19.1892L19.5 20.2703L17.3333 22.1622L16.7917 21.3514C14.625 23.7838 12.4583 26.4865 10.5625 29.4595L11.375 30.2703L9.75 32.4324L8.9375 31.6216C7.3125 34.3243 5.95833 37.2973 4.60417 40.2703L5.41667 40.8108L4.33333 43.5135L3.52083 42.973C2.4375 46.2162 1.625 49.4595 0.8125 52.7027L1.89583 53.2432L1.35417 55.9459L0.270833 55.4054C0.270833 58.6487 0 61.6216 0 64.8649V65.1351L1.08333 65.4054V68.1081H0C0.270833 71.6216 0.541667 74.8649 1.35417 78.1081H2.4375L2.97917 80.8108H1.89583C2.70833 84.0541 3.79167 87.027 4.875 90L5.95833 89.7297L7.04167 92.4324L5.95833 92.7027C7.3125 95.6757 9.20833 98.6486 11.1042 101.622L12.1875 101.081L13.8125 103.514L12.7292 103.784C14.625 106.486 16.7917 108.649 18.9583 111.081L20.0417 110.541L21.9375 112.432L21.125 112.973C23.5625 115.135 26.2708 117.297 29.25 119.189L30.0625 118.378L32.5 120L31.6875 120.811C34.3958 122.432 37.375 123.784 40.3542 125.135L40.8958 124.324L43.6042 125.405L43.0625 126.216C46.3125 127.297 49.5625 128.108 52.8125 128.919L53.3542 127.838L56.0625 128.378L55.5208 129.459C58.5 130 61.75 130 64.7292 130H65L65.2708 128.919H67.9792L68.25 129.73C71.7708 129.459 75.0208 129.189 78.2708 128.378V127.297L80.9792 126.757V127.838C84.2292 127.027 87.2083 125.946 90.1875 124.865L89.9167 123.784L92.625 122.703L92.8958 123.784C95.875 122.432 98.8542 120.541 101.833 118.649L101.292 117.568L103.729 115.946L104 117.027C106.708 115.135 108.875 112.973 111.312 110.811L110.771 109.73L112.667 107.838L113.208 108.649C115.375 106.216 117.542 103.514 119.437 100.541L118.625 99.7297L120.25 97.2973L121.062 98.1081C122.688 95.4054 124.042 92.4324 125.396 89.4595L124.583 88.9189L125.667 86.2162L126.479 86.7568C127.562 83.5135 128.375 80.2703 129.188 77.027L128.104 76.4865L128.646 73.7838L129.458 74.0541ZM65 102.946C43.875 102.946 26.8396 85.9459 26.8396 64.8649C26.8396 43.7838 43.875 26.7838 65 26.7838C86.125 26.7838 103.16 43.7838 103.16 64.8649C103.16 85.9459 86.125 102.946 65 102.946Z" fill="#86827A"/>
</svg>
