<svg width="180" height="180" viewBox="0 0 180 180" fill="none" xmlns="http://www.w3.org/2000/svg">
<path d="M41.8166 56.0494C41.8166 52.5318 38.965 49.6802 35.4474 49.6802C31.9297 49.6802 29.0781 52.5318 29.0781 56.0494V143.654C29.0781 147.172 31.9297 150.023 35.4474 150.023C38.965 150.023 41.8166 147.172 41.8166 143.654V56.0494Z" stroke="#1A1A1A" stroke-width="2" stroke-miterlimit="10"/>
<path d="M150.966 56.0494C150.966 52.5318 148.114 49.6802 144.597 49.6802C141.079 49.6802 138.228 52.5318 138.228 56.0494V143.654C138.228 147.172 141.079 150.023 144.597 150.023C148.114 150.023 150.966 147.172 150.966 143.654V56.0494Z" stroke="#1A1A1A" stroke-width="2" stroke-miterlimit="10"/>
<path d="M132.024 125.045H48.2412V137.894H132.024V125.045Z" stroke="#1A1A1A" stroke-width="2" stroke-miterlimit="10"/>
<path d="M132.024 71.8062H48.2412V84.6554H132.024V71.8062Z" stroke="#1A1A1A" stroke-width="2" stroke-miterlimit="10"/>
<path d="M65.1748 40.708V44.8342H56.4517V40.708H48.9609V63.928H72.7902V40.708H65.1748Z" stroke="#1A1A1A" stroke-width="2" stroke-miterlimit="10"/>
<path d="M97.6579 30.4619V35.1835H88.9348V30.4619H81.3887V63.9281H105.218V30.4619H97.6579Z" stroke="#1A1A1A" stroke-width="2" stroke-miterlimit="10"/>
<path d="M65.244 100.468V103.472H56.5071V100.468H48.9609V117.235H72.7902V100.468H65.244Z" stroke="#1A1A1A" stroke-width="2" stroke-miterlimit="10"/>
<path d="M97.6579 94.3062V97.7123H88.9348V94.3062H81.3887V117.235H105.218V94.3062H97.6579Z" stroke="#FBB81B" stroke-width="2" stroke-miterlimit="10"/>
<path d="M126.084 103.487V106.921H117.361V103.487H112.349V117.236H132.024V103.487H126.084Z" stroke="#FBB81B" stroke-width="2" stroke-miterlimit="10"/>
<path d="M126.084 46.2739V50.5801H117.361V46.2739H112.349V63.9278H132.024V46.2739H126.084Z" stroke="#FBB81B" stroke-width="2" stroke-miterlimit="10"/>
</svg>
