<svg width="180" height="180" viewBox="0 0 180 180" fill="none" xmlns="http://www.w3.org/2000/svg">
<path d="M120.587 112.153C120.587 112.153 120.587 112.042 120.587 111.973C120.587 103.928 112.556 100.273 105.093 100.273H90.347C83.95 100.273 80.8208 99.2898 76.487 97.9467C75.1993 97.5452 73.8424 97.1159 72.3193 96.7005C60.4531 92.519 49.5701 94.7067 43.6993 96.5898C43.1455 94.0698 40.9024 92.1729 38.2024 92.1729H22.2516C19.1362 92.1729 16.6162 94.6929 16.6162 97.8082V144.068C16.6162 147.184 19.1362 149.704 22.2516 149.704H38.2024C41.3178 149.704 43.8378 147.184 43.8378 144.068V143.376C44.447 142.864 50.5947 138.031 60.2178 140.939C72.6377 144.691 84.6562 147.765 84.8639 147.821C85.1962 147.904 89.1424 148.79 94.5977 148.79C100.579 148.79 108.402 147.71 115.298 143.321C126.901 135.927 160.575 118.176 160.907 118.01L161.336 117.747C161.932 117.331 164.881 115.102 165.13 111.267C164.272 110.173 164.396 110.048 162.749 108.484C156.061 102.461 151.865 103.624 143.904 107.03L113.692 118.19C113.692 118.19 103.875 120.737 78.8824 113.939H114.176C114.176 113.939 118.829 113.676 120.573 112.139" stroke="#1A1A1A" stroke-width="2" stroke-miterlimit="10"/>
<path d="M77.3869 87.7562H164.438C169.201 87.7562 173.064 83.8931 173.064 79.13V37.7023C173.064 32.9392 169.201 29.0762 164.438 29.0762H77.3869C72.6238 29.0762 68.7607 32.9392 68.7607 37.7023V79.1162C68.7607 83.8792 72.6238 87.7423 77.3869 87.7423V87.7562ZM104.442 65.7269H109.012V63.6916H104.442V56.6162H109.012V38.2285H124.852C127.33 38.2285 129.545 38.7685 131.415 39.8208C133.298 40.8869 134.779 42.3962 135.818 44.3069C136.856 46.2039 137.382 48.4469 137.382 50.9808C137.382 53.5146 136.856 55.73 135.818 57.6269C134.765 59.5516 133.284 61.0469 131.415 62.1131C129.545 63.1654 127.344 63.6916 124.865 63.6916H116.364V65.7269H124.104V72.8023H116.364V78.59H109.025V72.8023H104.456V65.7269H104.442Z" stroke="#1A1A1A" stroke-width="2" stroke-miterlimit="10"/>
<path d="M128.548 55.1211C129.462 54.0827 129.905 52.7257 129.905 50.9811C129.905 49.2365 129.462 47.838 128.548 46.7996C127.676 45.8027 126.526 45.3042 125.045 45.3042H116.363V56.6027H125.045C126.526 56.6027 127.676 56.118 128.548 55.1073V55.1211Z" stroke="#1A1A1A" stroke-width="2" stroke-miterlimit="10"/>
<path d="M26.0591 40.1529H56.6591C58.9576 40.1529 60.813 38.2975 60.813 35.9991C60.813 33.7006 58.9576 31.8452 56.6591 31.8452H26.0591C23.7607 31.8452 21.9053 33.7006 21.9053 35.9991C21.9053 38.2975 23.7607 40.1529 26.0591 40.1529Z" stroke="#1A1A1A" stroke-width="2" stroke-miterlimit="10"/>
<path d="M50.3591 50.815C50.3591 48.5165 48.5037 46.6611 46.2052 46.6611H33.7437C31.4452 46.6611 29.5898 48.5165 29.5898 50.815C29.5898 53.1134 31.4452 54.9688 33.7437 54.9688H46.2052C48.5037 54.9688 50.3591 53.1134 50.3591 50.815Z" stroke="#FBB81B" stroke-width="2" stroke-miterlimit="10"/>
<path d="M24.6744 76.3052C22.3759 76.3052 20.5205 78.1606 20.5205 80.459C20.5205 82.7575 22.3759 84.6129 24.6744 84.6129H46.2051C48.5036 84.6129 50.359 82.7575 50.359 80.459C50.359 78.1606 48.5036 76.3052 46.2051 76.3052H24.6744Z" stroke="#FBB81B" stroke-width="2" stroke-miterlimit="10"/>
<path d="M58.2927 65.6446C58.2927 63.3461 56.4373 61.4907 54.1388 61.4907H41.6773C39.3788 61.4907 37.5234 63.3461 37.5234 65.6446C37.5234 67.943 39.3788 69.7984 41.6773 69.7984H54.1388C56.4373 69.7984 58.2927 67.943 58.2927 65.6446Z" stroke="#FBB81B" stroke-width="2" stroke-miterlimit="10"/>
<path d="M33.1206 65.6446C33.1206 63.3461 31.2652 61.4907 28.9668 61.4907H9.69291C7.39445 61.4907 5.53906 63.3461 5.53906 65.6446C5.53906 67.943 7.39445 69.7984 9.69291 69.7984H28.9668C31.2652 69.7984 33.1206 67.943 33.1206 65.6446Z" stroke="#1A1A1A" stroke-width="2" stroke-miterlimit="10"/>
</svg>
