<svg width="181" height="180" viewBox="0 0 181 180" fill="none" xmlns="http://www.w3.org/2000/svg">
<path d="M155.271 48.4614H128.728L131.096 35.0722C131.525 32.663 129.669 30.4614 127.232 30.4614H5.53861C3.24015 30.4614 1.38477 32.3168 1.38477 34.6153C1.38477 36.9137 3.24015 38.7691 5.53861 38.7691H65.0771C67.3755 38.7691 69.2309 40.6245 69.2309 42.923C69.2309 45.2214 67.3755 47.0768 65.0771 47.0768H12.4617C10.1632 47.0768 8.30784 48.9322 8.30784 51.2307C8.30784 53.5291 10.1632 55.3845 12.4617 55.3845H51.2309C53.5294 55.3845 55.3848 57.2399 55.3848 59.5383C55.3848 61.8368 53.5294 63.6922 51.2309 63.6922H5.53861C3.24015 63.6922 1.38477 65.5476 1.38477 67.846C1.38477 70.1445 3.24015 71.9999 5.53861 71.9999H37.3848C39.6832 71.9999 41.5386 73.8553 41.5386 76.1537C41.5386 78.4522 39.6832 80.3076 37.3848 80.3076H9.56784L1.84169 124.158C1.41246 126.568 3.26784 128.769 5.70476 128.769H18.0001C18.0001 140.981 27.9417 150.923 40.154 150.923C52.3663 150.923 62.3078 140.981 62.3078 128.769H114.923C114.923 140.981 124.865 150.923 137.077 150.923C149.289 150.923 159.231 140.981 159.231 128.769H166.652C168.563 128.769 170.183 127.398 170.516 125.529L175.279 98.5153L179.017 77.3168L155.257 48.4614H155.271ZM168.729 88.6153H121.639L127.26 56.7691H150.356L170.114 80.7507L168.729 88.6153Z" stroke="#1A1A1A" stroke-width="2" stroke-miterlimit="10"/>
<path d="M40.1547 142.616C47.8018 142.616 54.0009 136.417 54.0009 128.769C54.0009 121.122 47.8018 114.923 40.1547 114.923C32.5077 114.923 26.3086 121.122 26.3086 128.769C26.3086 136.417 32.5077 142.616 40.1547 142.616Z" stroke="#FBB81B" stroke-width="2" stroke-miterlimit="10"/>
<path d="M137.077 142.616C144.724 142.616 150.923 136.417 150.923 128.769C150.923 121.122 144.724 114.923 137.077 114.923C129.43 114.923 123.23 121.122 123.23 128.769C123.23 136.417 129.43 142.616 137.077 142.616Z" stroke="#FBB81B" stroke-width="2" stroke-miterlimit="10"/>
</svg>
