<svg width="180" height="180" viewBox="0 0 180 180" fill="none" xmlns="http://www.w3.org/2000/svg">
<path d="M72.4783 142.304V61.4283C72.4783 57.1637 74.3198 53.1067 77.546 50.3098L96.5844 33.7637L76.4798 38.2498C74.2644 38.7483 72.3536 40.1744 71.2736 42.1821L32.7952 113.324C30.7321 117.145 32.1444 121.922 35.966 123.985L72.5337 143.771C72.4921 143.287 72.4644 142.802 72.4644 142.318L72.4783 142.304Z" stroke="#1A1A1A" stroke-width="2" stroke-miterlimit="10"/>
<path d="M145.558 55.5027L118.96 32.3935C115.996 29.8181 111.607 29.8181 108.644 32.3935L82.0457 55.5027C80.3288 56.9981 79.3457 59.1581 79.3457 61.4427V142.318C79.3457 146.666 82.8626 150.183 87.2103 150.183H140.407C144.755 150.183 148.272 146.666 148.272 142.318V61.4288C148.272 59.1581 147.289 56.9842 145.572 55.4888L145.558 55.5027ZM113.809 46.4335C118.101 46.4335 121.59 49.9088 121.59 54.215C121.59 58.5211 118.115 61.9965 113.809 61.9965C109.503 61.9965 106.027 58.5211 106.027 54.215C106.027 49.9088 109.503 46.4335 113.809 46.4335Z" stroke="#1A1A1A" stroke-width="2" stroke-miterlimit="10"/>
<path d="M128.707 103.23C127.655 105.155 126.173 106.65 124.304 107.717C122.435 108.769 120.233 109.295 117.755 109.295H109.253V111.33H116.993V118.406H109.253V124.194H101.915V118.406H97.3457V111.33H101.915V109.295H97.3457V102.22H101.915V83.832H117.755C120.233 83.832 122.449 84.372 124.318 85.4243C126.201 86.4905 127.683 87.9997 128.721 89.9105C129.76 91.8074 130.286 94.0505 130.286 96.5843C130.286 99.1182 129.76 101.334 128.721 103.23H128.707Z" stroke="#FBB81B" stroke-width="2" stroke-miterlimit="10"/>
<path d="M121.424 100.641C122.338 99.6022 122.781 98.2453 122.781 96.5007C122.781 94.756 122.338 93.3576 121.424 92.3191C120.552 91.3222 119.402 90.8237 117.921 90.8237H109.239V102.122H117.921C119.402 102.122 120.552 101.638 121.424 100.627V100.641Z" stroke="#FBB81B" stroke-width="2" stroke-miterlimit="10"/>
</svg>
