<svg width="99" height="106" fill="none" xmlns="http://www.w3.org/2000/svg"><path d="M51.151 37.743c-10.892 0-19.725 8.834-19.725 19.726 0 10.893 8.833 19.727 19.726 19.727 10.892 0 19.725-8.834 19.725-19.727 0-10.892-8.833-19.7-19.725-19.726zm0 29.76A10.02 10.02 0 0141.12 57.468a10.02 10.02 0 0110.032-10.032 10.02 10.02 0 0110.033 10.032 10.02 10.02 0 01-10.032 10.033z" fill="#86827A"/><path d="M95.527 39.853a2.147 2.147 0 01-.625-1.537A47.696 47.696 0 0051.15 9.625c-2.893 0-5.785.26-8.625.808l1.928 8.651c.104.496 0 1.017-.26 1.46-.287.443-.704.73-1.2.834a33.297 33.297 0 00-6.045 1.928 37.405 37.405 0 00-18.11 16.079 1.92 1.92 0 01-1.668.99c-.26 0-.547-.052-.781-.183l-8.26-3.648A47.682 47.682 0 006.2 73.964c.13.366.287.704.417 1.07.39.416.625.963.625 1.537.157.365.313.703.47 1.042 7.869 16.886 24.806 27.701 43.438 27.701 5.628 0 11.205-.99 16.468-2.945l1.095-.417c.208-.208.443-.365.703-.469.287-.104.573-.156.886-.156l1.069-.469c22.904-10.737 33.51-37.421 24.26-60.978 0 0-.105 0-.105-.053v.026zM11.126 65.522c-.339.755-1.094 1.224-1.928 1.25-.313 0-.652-.078-.938-.208-.99-.677-1.225-2.032-.548-3.023a2.138 2.138 0 012.45-.808 2.144 2.144 0 01.938 2.789h.026zm6.723-9.85a2.325 2.325 0 01-1.564.677 1.987 1.987 0 01-1.485-.625 2.153 2.153 0 01-.234-3.05 2.153 2.153 0 013.048-.234c.079.052.13.104.183.183.86.807.886 2.188.078 3.048h-.026zm42.917-24.626c1.068-.522 2.371-.053 2.892 1.016.522 1.068.053 2.371-1.016 2.892-.078.026-.156.079-.234.105-.26.104-.522.182-.808.182-1.199 0-2.189-.938-2.189-2.137 0-.886.521-1.72 1.355-2.032v-.026zm-7.87-9.877c.808-.886 2.19-.912 3.075-.104.886.808.912 2.189.105 3.075a2.128 2.128 0 01-1.616.677 2.11 2.11 0 01-1.485-.599 2.11 2.11 0 01-.104-2.997s0-.026.026-.052zM26.71 49.21a2.143 2.143 0 01-2.241-2.085 2.143 2.143 0 012.084-2.241c.912-.026 1.746.495 2.085 1.329a2.156 2.156 0 01-1.173 2.814h-.026a2.285 2.285 0 01-.73.183zm14.826 34.71c-.26.105-.547.157-.833.157a2.113 2.113 0 01-2.111-2.163c0-1.199.99-2.137 2.163-2.11 1.198 0 2.136.99 2.11 2.162 0 .86-.547 1.642-1.355 1.98l.026-.026zm7.844 9.903a2.325 2.325 0 01-1.564.677c-.573 0-1.094-.234-1.511-.625a2.203 2.203 0 010-3.075c.834-.86 2.215-.834 3.075 0 .834.834.834 2.215 0 3.075v-.052zm10.866 6.515a2.193 2.193 0 01-1.928 1.25c-.313 0-.626-.078-.912-.234a2.13 2.13 0 01-1.043-2.866 2.2 2.2 0 012.919-1.017 2.169 2.169 0 01.99 2.893l-.026-.026zM51.15 81.079c-13.003 0-23.557-10.554-23.557-23.557 0-13.004 10.554-23.558 23.557-23.558 13.003 0 23.556 10.554 23.556 23.558 0 13.003-10.553 23.53-23.556 23.557zm25.198-11.127a2.1 2.1 0 01-.782.156c-1.199 0-2.163-.938-2.163-2.137 0-1.198.938-2.163 2.137-2.163s2.163.938 2.163 2.137c0 .886-.522 1.668-1.355 2.007zM87.5 62.29a2.187 2.187 0 01-1.563.652 2.172 2.172 0 01-1.511-.6 2.203 2.203 0 010-3.075 2.147 2.147 0 013.048 0c.86.834.886 2.216.052 3.075v-.052H87.5zm7.505-11.023c-.365.73-1.094 1.225-1.928 1.225-.313 0-.652-.052-.938-.182-1.147-.365-1.746-1.59-1.382-2.736.365-1.147 1.59-1.746 2.737-1.382.208.079.39.157.573.287a2.185 2.185 0 01.99 2.867v-.052l-.052-.027z" fill="#86827A"/><path d="M51.151 51.267a6.2 6.2 0 00-6.202 6.202 6.183 6.183 0 006.202 6.202 6.183 6.183 0 006.202-6.202 6.183 6.183 0 00-6.202-6.202zM35.465 19.736a34.305 34.305 0 014.846-1.668l-1.928-8.704L36.455.687a59.65 59.65 0 00-7.817 2.58A58.874 58.874 0 000 28.726l16.39 7.27a41.157 41.157 0 0119.075-16.261zm-5.942-12.04a4.315 4.315 0 014.326 4.326 4.315 4.315 0 01-4.326 4.326 4.315 4.315 0 01-4.325-4.326 4.315 4.315 0 014.325-4.326zM10.058 24.974c0-2.398 1.929-4.352 4.326-4.352 2.397 0 4.351 1.928 4.351 4.326 0 2.397-1.928 4.351-4.325 4.351h-.026c-2.345 0-4.274-1.902-4.326-4.247v-.078z" fill="#86827A"/></svg>