<svg width="120" height="121" fill="none" xmlns="http://www.w3.org/2000/svg"><path d="M119.023 66.219V51.536l-10.247-1.68a48.626 48.626 0 00-2.428-7.983l7.563-6.186-7.329-12.722-9.664 3.665a51.052 51.052 0 00-6.116-5.766l3.432-9.057-12.722-7.33-6.443 7.867a49.533 49.533 0 00-8.31-1.984L65.22.977H50.537l-1.611 9.85a48.324 48.324 0 00-8.333 2.498l-5.906-7.213-12.722 7.33 3.478 9.173a52.645 52.645 0 00-6.069 6.42l-8.566-3.245-7.33 12.721 7.493 6.14a48.957 48.957 0 00-2.03 8.683L0 54.804v14.683l9.524 1.564a49.646 49.646 0 002.614 8.543l-7.026 5.742 7.33 12.722 9.08-3.431a51.33 51.33 0 006.512 6.022l-3.244 8.59 12.721 7.33 6.233-7.633a49.328 49.328 0 008.543 1.914l1.494 9.22h14.682l1.611-9.921c2.825-.63 5.579-1.47 8.193-2.544l6.023 7.353 12.721-7.33-3.618-9.57a51.374 51.374 0 005.72-6.21l9.056 3.432 7.33-12.722-8.007-6.535a49.807 49.807 0 001.868-8.147l9.64-1.564.023-.093zm-35.34 36.064l-4.319-7.493 3.572-2.054 4.318 7.493-3.571 2.054zm-24.51-4.155c-20.751 0-37.558-16.83-37.558-37.558s16.83-37.558 37.558-37.558 37.558 16.83 37.558 37.558-16.83 37.558-37.558 37.558zm4.295 10.784H59.36v-8.66h4.108v8.66zm-24.93-4.365l-3.571-2.054L39.285 95l3.572 2.054-4.319 7.493zM14.846 39.608l2.054-3.571 7.47 4.318-2.055 3.572-7.47-4.319zm6.77 35.13l-8.357 2.242-1.074-3.969 8.356-2.24 1.074 3.968zm13-56.605l4.32 7.493-3.572 2.054-4.318-7.493 3.57-2.054zm20.215-6.629h4.109v8.66h-4.108v-8.66zm24.93 4.365l3.572 2.054-4.319 7.493-3.571-2.054 4.318-7.493zm16.247 60.597l7.493 4.319-2.055 3.57-7.492-4.317 2.054-3.572zm10.247-3.875l-8.357-2.24 1.074-3.969 8.357 2.241-1.074 3.968zm-8.473-22.969l-1.074-3.968 8.357-2.24 1.073 3.967-8.356 2.241zm1.4-17.53l2.054 3.572-7.493 4.318-2.054-3.572 7.493-4.318zm-11.858-.373L84.406 28.8l6.116-6.116 2.918 2.918-6.116 6.116zM71.568 13.09l-2.24 8.357-3.969-1.074 2.24-8.356 3.97 1.073zm-25.21.117l2.241 8.357-3.968 1.073-2.241-8.356 3.968-1.074zM24.58 25.906l6.115 6.116-2.917 2.918-6.116-6.116 2.918-2.918zM12.068 47.802l8.357 2.24-1.074 3.969-8.357-2.241 1.074-3.968zm-1.61 12.605h8.66v4.108h-8.66v-4.108zm8.683 27.87l-2.054-3.57 7.493-4.32 2.054 3.572-7.493 4.319zm5.719 6.49l6.116-6.116 2.917 2.918-6.115 6.115-2.918-2.917zm21.895 12.511l2.24-8.356 3.97 1.073-2.242 8.357-3.968-1.074zm25.21-.116l-2.241-8.357 3.968-1.074 2.241 8.357-3.968 1.074zm21.778-12.699l-6.115-6.115 2.918-2.918 6.115 6.115-2.918 2.918zm14.099-34.5h-8.66v-4.108h8.66v4.108z" fill="#86827A"/></svg>