<svg width="98" height="130" fill="none" xmlns="http://www.w3.org/2000/svg"><path d="M49 25.89c27.062 0 49-5.795 49-12.945S76.062 0 49 0 0 5.796 0 12.945c0 7.15 21.938 12.946 49 12.946zm45.434 86.318c-7.265 4.744-24.86 8.094-45.434 8.094-20.574 0-38.17-3.35-45.434-8.094C1.274 113.704 0 115.342 0 117.054 0 124.204 21.94 130 49 130s49-5.796 49-12.946c0-1.712-1.274-3.35-3.566-4.846z" fill="#86827A"/><path d="M23.849 33.245v85.22c3.385.535 7.032.967 10.883 1.274V34.525a142.83 142.83 0 01-10.883-1.274v-.006zM4.147 27.347v85.22c2.595 1.559 6.312 2.952 10.884 4.118v-85.22c-4.572-1.16-8.29-2.56-10.884-4.112v-.006zM49 35.083c-1.838 0-3.653-.029-5.444-.08v85.226a190.637 190.637 0 0010.889 0V35.003c-1.786.051-3.601.08-5.445.08zm14.263-.558v85.22c3.85-.307 7.503-.739 10.883-1.274V33.245a142.83 142.83 0 01-10.883 1.274v.006zm19.707-3.06v85.22c4.572-1.166 8.294-2.559 10.883-4.118v-85.22c-2.594 1.559-6.311 2.952-10.883 4.112v.006z" fill="#86827A"/></svg>