<svg width="95" height="134" fill="none" xmlns="http://www.w3.org/2000/svg"><path d="M93.198 44.979l-32.121-23.64-1.786-.407H36.126a2.726 2.726 0 01-2.733-2.735v-3.872c0-.894-.73-1.625-1.623-1.625H1.245A1.538 1.538 0 000 14.217v114.789a4.24 4.24 0 004.249 4.251h85.566a4.24 4.24 0 004.249-4.251V46.36c0-.596-.325-1.11-.866-1.381zM57.342 94.967c-2.57 2.952-6.197 5.091-10.31 5.091s-7.74-2.14-10.31-5.091c-2.571-2.952-4.168-6.77-4.168-10.534 0-8.828 7.117-18.55 13.07-28.758.244-.406.677-.677 1.164-.758.65-.109 1.327.19 1.651.758 5.954 10.182 13.07 19.903 13.07 28.758 0 3.737-1.596 7.582-4.167 10.534zM31.201 0H1.813A1.814 1.814 0 000 1.814v4.82C0 7.636.812 8.45 1.813 8.45h29.388a1.814 1.814 0 001.813-1.815v-4.82A1.814 1.814 0 0031.201 0z" fill="#86827A"/></svg>