<svg width="38" height="131" fill="none" xmlns="http://www.w3.org/2000/svg"><path d="M8.55 34.986c-1.028 0-2.083-.027-3.138-.054-.487 0-.974 0-1.056-.65-.08-.65.244-.92.84-1.029 1.109-.243 2.218-.541 3.3-.785.488-1.11.082-1.869-.784-2.437.352-.487.839-.867.866-1.3 0-.298-.568-.65-.974-1.056.243-.19.379-.325.54-.433.704-.46.732-.759 0-1.219-.567-.379-.54-.65 0-1.029.732-.514.732-.731 0-1.218a2.047 2.047 0 01-.378-.298s0-.082-.054-.244c.162-.135.379-.325.568-.487.514-.407.541-.732 0-1.165-.487-.397-.487-.758 0-1.083.541-.38.568-.758.081-1.137-.487-.38-.523-.731-.108-1.056.595-.488.595-.732 0-1.192-.622-.487-.622-.569.027-1.056.596-.46.596-.731 0-1.191-.19-.136-.325-.325-.568-.57.216-.189.352-.324.514-.432.73-.46.73-.732.054-1.219-.595-.433-.595-.596-.027-1.029.704-.515.73-.731.027-1.219-.487-.325-.622-.73-.081-.947.73-.298.622-.813.622-1.354V6.959c.055-1.868 1.435-1.597 3.572-1.597.569 0 .975.027 1.435.054.19-1.49.839-2.546 2.435-2.735.054-.894.081-1.68.135-2.681 1.705 0 3.329 0 5.088.027.027.92.054 1.706.081 2.437.596.38 1.272.65 1.705 1.138.406.433.541 1.11.839 1.84.785 0 1.705 0 2.625.055 1.921.054 2.246.38 2.219 2.248v.893c0 .406.027.704.514.894.541.19.541.569.054.948-.812.622-.812.704-.027 1.272.46.352.514.623 0 .975-.839.623-.812.731.081 1.327.108.054.162.19.298.352-.325.38-.785.677-.974 1.11-.298.731.893.542.866 1.246-.027.054-.055.217-.163.27-1.001.705-1.001.705-.08 1.463.35.298.324.569 0 .84-.578.523-.551 1.047.08 1.57 0 0 .108.217.163.433-.19.136-.406.244-.596.407-.54.406-.54.73 0 1.137.47.361.47.722 0 1.083-.54.406-.514.731 0 1.165.47.36.46.722-.027 1.083-.487.379-.514.73-.081 1.083.704.596.73.623.054 1.11-.487.325-.46.677-.162 1.056.758.894.785.867-.27 1.517v1.57c.946.244 1.84.46 2.732.704.298.081.569.163.866.217.569.108.785.46.73 1.002-.053.596-.432.65-.892.65h-3.274c-.244.623-.136.947.514 1.083 1.217.217 2.408.487 3.626.758 1.136.271 1.461.623 1.461 1.76 0 3.331 0 6.662-.081 9.965 0 1.354-.974 2.167-2.463 2.14-3.923 0-7.847-.054-11.744-.082-4.817-.027-9.634-.08-14.424-.108-.46 0-.947.027-1.38-.108-1.136-.352-1.596-1.056-1.596-2.33 0-3.141.027-6.31.054-9.45 0-1.409.352-1.815 1.705-2.086 1.136-.216 2.246-.46 3.382-.65.623-.108.785-.406.569-1.083l.08.054zm-.107 35.068c6.766.054 13.368.108 20.242.19-.054.297-.19.65-.216 1.028-.271 3.304-.488 6.635-.785 9.938-.054.759-.352 1.463-.515 2.22-.135.57-.243 1.165-.378 1.734-.109.514-.27 1.029-.38 1.57-.053.326-.162.705-.026.975.568 1.409.622 2.763-.054 4.17a1.125 1.125 0 000 .84c.568 1.435.622 2.843-.054 4.279-.109.19-.082.514 0 .73.622 1.436.622 2.844-.055 4.279-.108.217-.054.596.055.84.568 1.354.514 2.708 0 4.062-.109.297 0 .704.054 1.056.08.622.27 1.245.27 1.868 0 .758-.487 1.273-1.217 1.462-.65.163-1.462.109-1.76.84-.378.893-.73 1.814-.892 2.762-.136.866-.027 1.787-.027 2.681 0 .514.054 1.002-.569 1.3-.216.108-.352.568-.325.866.082 1.11.109 2.221.406 3.277.569 2.031 0 3.899-.568 5.768-.108.379-.676.758-1.11.893-1.677.461-3.355.406-5.06 0-.703-.162-1.082-.568-1.272-1.273-.514-2.085-.866-4.143-.108-6.282.27-.785.217-1.679.27-2.518 0-.244-.08-.596-.216-.677-.73-.379-.622-1.029-.622-1.679 0-.84.108-1.706 0-2.546a8.004 8.004 0 00-.704-2.41c-.216-.433-.784-.785-1.272-.92-1.677-.488-2.381-1.733-1.596-3.25.325-.623.216-1.029.027-1.625-.352-1.191-.406-2.41.081-3.601.135-.325.216-.758.081-1.056-.541-1.408-.568-2.79.054-4.17a1.125 1.125 0 000-.84c-.595-1.408-.568-2.79.027-4.17a1.126 1.126 0 000-.84c-.568-1.408-.595-2.789.055-4.17.08-.19.108-.433.08-.623-.351-1.516-.784-3.005-1.109-4.522-.162-.704-.162-1.435-.216-2.166l-.569-8.936c0-.407 0-.84-.027-1.3v-.054zM4.384 54.917l28.387.163c-.217 1.029.974 1.435 2.138 1.787 1.813.541 2.354 1.462 2.246 2.762-.163 2.085.135 1.922-2.652 2.897-.677.244-1.3.488-1.407 1.03-.298 1.543-2.436 2.41-4.763 2.41l-14.18-.082c-1.786 0-3.572-.054-5.358 0-2.327.027-4.546-.812-4.925-2.491-.081-.298-.541-.623-.947-.84-.542-.27-1.164-.46-1.786-.677C.379 61.606 0 61.2 0 60.631v-2.167c0-.568.379-.974 1.11-1.272.622-.244 1.217-.542 1.867-.731.947-.298 1.488-.732 1.407-1.517v-.027z" fill="#86827A"/></svg>