<svg width="130" height="130" fill="none" xmlns="http://www.w3.org/2000/svg"><path d="M129.458 74.054c.542-2.973.542-6.216.542-9.19v-.27l-1.083-.27v-2.702l1.083.27c-.271-3.514-.542-6.757-1.354-10h-1.084l-.541-2.703h1.083c-.812-3.243-1.896-6.216-2.979-9.189l-1.083.27-1.084-2.702 1.084-.27c-1.355-2.974-3.25-5.947-5.146-8.92l-1.084.54-1.624-2.431 1.083-.27c-1.896-2.703-4.063-4.866-6.229-7.298l-1.084.54-1.896-1.891.813-.541c-2.437-2.162-5.146-4.324-8.125-6.216l-.813.81L97.5 9.73l.813-.811c-2.709-1.622-5.688-2.973-8.667-4.324l-.542.81-2.708-1.08.541-.811c-3.25-1.082-6.5-1.892-9.75-2.703l-.541 1.08-2.709-.54.542-1.08C71.23.27 68.25 0 65 0h-.27l-.272 1.081H61.75V0c-3.52.27-6.77.54-10.02 1.351v1.081l-2.71.541V1.892c-3.25.81-6.228 1.892-9.208 2.973l.271 1.08-2.708 1.082-.27-1.081c-2.98 1.351-5.96 3.243-8.938 5.135l.541 1.081-2.437 1.622L26 12.703c-2.438 2.162-4.875 4.324-7.042 6.486l.542 1.081-2.167 1.892-.541-.81c-2.167 2.432-4.334 5.134-6.23 8.107l.813.811-1.625 2.162-.813-.81c-1.624 2.702-2.979 5.675-4.333 8.648l.813.54-1.084 2.703-.812-.54c-1.083 3.243-1.896 6.486-2.708 9.73l1.083.54-.542 2.703-1.083-.54C.27 58.648 0 61.621 0 64.864v.27l1.083.27v2.703H0c.27 3.514.542 6.757 1.354 10h1.083l.542 2.703H1.896c.812 3.243 1.896 6.216 2.979 9.189l1.083-.27 1.084 2.702-1.084.27c1.354 2.974 3.25 5.947 5.146 8.92l1.084-.541 1.624 2.433-1.083.27c1.896 2.702 4.063 4.865 6.23 7.297l1.083-.54 1.895 1.891-.812.541c2.438 2.162 5.146 4.324 8.125 6.216l.813-.811L32.5 120l-.813.811c2.709 1.621 5.688 2.973 8.667 4.324l.542-.811 2.708 1.081-.541.811c3.25 1.081 6.5 1.892 9.75 2.703l.541-1.081 2.709.54-.542 1.081c2.979.541 6.229.541 9.208.541H65l.27-1.081h2.71l.27.811c3.52-.271 6.77-.541 10.02-1.352v-1.081l2.71-.54v1.081c3.25-.811 6.228-1.892 9.207-2.973l-.27-1.081 2.708-1.081.27 1.081c2.98-1.352 5.96-3.243 8.938-5.135l-.541-1.081 2.437-1.622.271 1.081c2.708-1.892 4.875-4.054 7.312-6.216l-.541-1.081 1.896-1.892.541.811c2.167-2.433 4.334-5.135 6.229-8.108l-.812-.811 1.625-2.433.812.811c1.626-2.703 2.98-5.676 4.334-8.648l-.813-.541 1.084-2.703.812.54c1.083-3.243 1.896-6.486 2.709-9.729l-1.084-.54.542-2.703.812.27zM65 102.946c-21.125 0-38.16-17-38.16-38.081 0-21.081 17.035-38.081 38.16-38.081 21.125 0 38.16 17 38.16 38.08 0 21.082-17.035 38.082-38.16 38.082z" fill="#86827A"/></svg>