<svg xmlns="http://www.w3.org/2000/svg" width="65" height="55" viewBox="0 0 65 55" fill="none">
  <path
    d="M6.22 43.3H59.13C61.99 43.3 64.35 40.5 64.35 37.1V7.20001C64.35 3.80001 61.99 1 59.13 1H6.22C3.36 1 1 3.80001 1 7.20001V37C1 40.5 3.36 43.3 6.22 43.3Z"
    stroke="#1A1A1A" stroke-miterlimit="10" />
  <path d="M38.3605 43.3H26.9805V49.8801H38.3605V43.3Z" stroke="#1A1A1A" stroke-miterlimit="10" />
  <path d="M43.5498 49.8701H21.7998V54.0701H43.5498V49.8701Z" stroke="#1A1A1A"
    stroke-miterlimit="10" />
  <path d="M1 8.62012H64.34" stroke="#1A1A1A" stroke-miterlimit="10" />
  <path
    d="M6.35004 6.38C7.07353 6.38 7.66004 5.7935 7.66004 5.07001C7.66004 4.34651 7.07353 3.76001 6.35004 3.76001C5.62655 3.76001 5.04004 4.34651 5.04004 5.07001C5.04004 5.7935 5.62655 6.38 6.35004 6.38Z"
    stroke="#1A1A1A" stroke-miterlimit="10" />
  <path
    d="M11.4096 6.38C12.1331 6.38 12.7196 5.7935 12.7196 5.07001C12.7196 4.34651 12.1331 3.76001 11.4096 3.76001C10.6861 3.76001 10.0996 4.34651 10.0996 5.07001C10.0996 5.7935 10.6861 6.38 11.4096 6.38Z"
    stroke="#1A1A1A" stroke-miterlimit="10" />
  <path
    d="M16.4604 6.38C17.1839 6.38 17.7704 5.7935 17.7704 5.07001C17.7704 4.34651 17.1839 3.76001 16.4604 3.76001C15.7369 3.76001 15.1504 4.34651 15.1504 5.07001C15.1504 5.7935 15.7369 6.38 16.4604 6.38Z"
    stroke="#1A1A1A" stroke-miterlimit="10" />
  <path
    d="M17.5977 26.1982C17.5735 26.2787 17.5492 26.359 17.525 26.4392C17.2678 27.2917 17.0159 28.1268 16.8377 28.9109L16.7492 29.3001H16.3501H16.3001H15.8812L15.8078 28.8876C15.6913 28.2323 15.5325 27.5819 15.3624 26.8852C15.3042 26.6468 15.2447 26.4029 15.1851 26.1516L14.1124 22.0901H13.5434L15.8714 29.8001H16.5814L17.8653 26.0033C18.1625 25.082 18.4263 24.1913 18.6409 23.1766L18.7248 22.7801H19.1301H19.1701H19.5777L19.6598 23.1793C19.865 24.1756 20.1094 25.0273 20.4164 25.9879L21.6352 29.8001H22.346L24.8334 22.0901H24.3282L23.1914 26.1056L17.5977 26.1982ZM17.5977 26.1982L18.9054 22.1001H19.5015L20.7422 26.1071C20.7423 26.1073 20.7423 26.1074 20.7424 26.1076C21.0607 27.1423 21.3159 28.0464 21.5014 28.9056L21.5865 29.3001H21.9901H22.0401H22.4669L22.5339 28.8786C22.669 28.0298 22.9019 27.134 23.1912 26.1063L17.5977 26.1982Z"
    fill="#1A1A1A" stroke="#FBB81B" />
  <path
    d="M31.0577 26.1982C31.0334 26.2787 31.0092 26.359 30.985 26.4392C30.7278 27.2917 30.4759 28.1268 30.2976 28.9109L30.2092 29.3001H29.8101H29.7601H29.3411L29.2678 28.8876C29.1513 28.2323 28.9925 27.5819 28.8224 26.8852C28.7642 26.6468 28.7047 26.403 28.645 26.1516L27.5723 22.0901H27.0034L29.3314 29.8001H30.0413L31.3253 26.0033C31.6224 25.082 31.8863 24.1913 32.1009 23.1766L32.1848 22.7801H32.5901H32.6301H33.0376L33.1198 23.1793C33.3249 24.1756 33.5693 25.0273 33.8763 25.9879L35.0952 29.8001H35.806L38.2934 22.0901H37.7882L36.6514 26.1056L31.0577 26.1982ZM31.0577 26.1982L32.3654 22.1001H32.9615L34.2022 26.1071C34.2022 26.1073 34.2023 26.1074 34.2023 26.1076C34.5207 27.1423 34.7758 28.0464 34.9613 28.9056L35.0465 29.3001H35.4501H35.5001H35.9268L35.9939 28.8786C36.1289 28.0298 36.3618 27.134 36.6512 26.1063L31.0577 26.1982Z"
    fill="#1A1A1A" stroke="#FBB81B" />
  <path
    d="M44.5274 26.1982C44.5032 26.2787 44.4789 26.359 44.4547 26.4392C44.1975 27.2917 43.9456 28.1268 43.7674 28.9109L43.6789 29.3001H43.2798H43.2298H42.8109L42.7375 28.8876C42.621 28.2323 42.4622 27.5819 42.2921 26.8852C42.2339 26.6468 42.1744 26.403 42.1148 26.1516L41.0421 22.0901H40.4731L42.8011 29.8001H43.5111L44.795 26.0033C45.0921 25.082 45.356 24.1913 45.5706 23.1766L45.6545 22.7801H46.0598H46.0998H46.5073L46.5895 23.1793C46.7947 24.1756 47.0391 25.0273 47.3461 25.9879L48.5649 29.8001H49.2757L51.7631 22.0901H51.2579L50.1211 26.1056L44.5274 26.1982ZM44.5274 26.1982L45.8351 22.1001H46.4312L47.6719 26.1071C47.672 26.1073 47.672 26.1075 47.6721 26.1077C47.9904 27.1423 48.2456 28.0464 48.4311 28.9056L48.5162 29.3001H48.9198H48.9698H49.3965L49.4636 28.8786C49.5986 28.0298 49.8315 27.134 50.1209 26.1063L44.5274 26.1982Z"
    fill="#1A1A1A" stroke="#FBB81B" />
</svg>
