<svg xmlns="http://www.w3.org/2000/svg" width="63" height="42" viewBox="0 0 63 42" fill="none">
  <path
    d="M21.6702 25.5101H24.4302V24.2601H21.6702V20.0001H24.4302V8.89014H33.9502C35.4502 8.89014 36.7902 9.22014 37.8802 9.81014C39.0502 10.4801 39.8902 11.4001 40.5502 12.4801C41.2202 13.6501 41.4702 14.9901 41.4702 16.4901C41.4702 17.9901 41.1402 19.3301 40.5502 20.5001C39.8802 21.6701 39.0502 22.5901 37.8802 23.1701C36.7102 23.8401 35.4602 24.0901 33.9502 24.0901H28.8502V25.3401H33.5302V29.6001H28.8502V33.1101H24.4202V29.6001H21.6602V25.5101H21.6702Z"
    stroke="#FBB81B" stroke-miterlimit="10" />
  <path
    d="M36.2104 19.0801C36.7904 18.4101 37.0504 17.6601 37.0504 16.5701C37.0504 15.4801 36.8004 14.6501 36.2104 14.0601C35.7104 13.4801 34.9604 13.1401 34.1204 13.1401H28.8604V19.9901H34.1204C35.0404 19.9901 35.7104 19.6601 36.2104 19.0701V19.0801Z"
    stroke="#FBB81B" stroke-miterlimit="10" />
  <rect x="0.5" y="0.5" width="62" height="41" rx="5.5" stroke="#1A1A1A" />
</svg>
