<svg xmlns="http://www.w3.org/2000/svg" width="64" height="55" viewBox="0 0 64 55" fill="none">
  <path d="M38.3605 43H26.9805V49.58H38.3605V43Z" stroke="black" stroke-miterlimit="10" />
  <path d="M43.5498 49.5701H21.7998V53.7701H43.5498V49.5701Z" stroke="black" stroke-miterlimit="10" />
  <path d="M1 9H63" stroke="black" stroke-miterlimit="10" />
  <path
    d="M6.35004 6.38C7.07353 6.38 7.66004 5.7935 7.66004 5.07001C7.66004 4.34651 7.07353 3.76001 6.35004 3.76001C5.62655 3.76001 5.04004 4.34651 5.04004 5.07001C5.04004 5.7935 5.62655 6.38 6.35004 6.38Z"
    stroke="black" stroke-miterlimit="10" />
  <path
    d="M11.4096 6.38C12.1331 6.38 12.7196 5.7935 12.7196 5.07001C12.7196 4.34651 12.1331 3.76001 11.4096 3.76001C10.6861 3.76001 10.0996 4.34651 10.0996 5.07001C10.0996 5.7935 10.6861 6.38 11.4096 6.38Z"
    stroke="black" stroke-miterlimit="10" />
  <path
    d="M16.4604 6.38C17.1839 6.38 17.7704 5.7935 17.7704 5.07001C17.7704 4.34651 17.1839 3.76001 16.4604 3.76001C15.7369 3.76001 15.1504 4.34651 15.1504 5.07001C15.1504 5.7935 15.7369 6.38 16.4604 6.38Z"
    stroke="black" stroke-miterlimit="10" />
  <path
    d="M22.3584 29.7896H25.0475V28.6271H22.3584V24.6654H25.0475V14.3335H34.3232C35.7847 14.3335 37.0903 14.6404 38.1524 15.1891C39.2923 15.8121 40.1108 16.6677 40.7538 17.6721C41.4066 18.7601 41.6502 20.0063 41.6502 21.4012C41.6502 22.7962 41.3287 24.0424 40.7538 25.1304C40.101 26.2185 39.2923 27.0741 38.1524 27.6134C37.0124 28.2365 35.7945 28.469 34.3232 28.469H29.3541V29.6315H33.914V33.5931H29.3541V36.8573H25.0378V33.5931H22.3486V29.7896H22.3584Z"
    stroke="#FBB81B" stroke-miterlimit="10" />
  <path
    d="M36.7534 23.7555C37.3289 23.1547 37.5869 22.4821 37.5869 21.5046C37.5869 20.5271 37.3389 19.7828 36.7534 19.2537C36.2573 18.7336 35.513 18.4287 34.6795 18.4287H29.46V24.5716H34.6795C35.5924 24.5716 36.2573 24.2756 36.7534 23.7465V23.7555Z"
    stroke="#FBB81B" stroke-miterlimit="10" />
  <rect x="0.5" y="0.5" width="63" height="42" rx="5.5" stroke="#1A1A1A" />
</svg>
