<svg xmlns="http://www.w3.org/2000/svg" width="44" height="44" viewBox="0 0 44 44" fill="none">
  <path d="M28.9199 43.2899H36.8199C40.3999 43.2899 43.2899 40.3899 43.2899 36.8199V28.45"
    stroke="#1A1A1A" stroke-miterlimit="10" />
  <path d="M43.2997 15.84V7.47C43.2997 3.89 40.3997 1 36.8297 1H28.9297" stroke="#1A1A1A"
    stroke-miterlimit="10" />
  <path d="M1 28.45V36.8199C1 40.3999 3.9 43.2899 7.47 43.2899H15.37" stroke="#1A1A1A"
    stroke-miterlimit="10" />
  <path d="M1 15.84V7.47C1 3.89 3.9 1 7.47 1H15.37" stroke="#1A1A1A" stroke-miterlimit="10" />
  <path
    d="M17.5599 10.5901H12.5499C11.3514 10.5901 10.3799 11.5616 10.3799 12.7601V17.7701C10.3799 18.9685 11.3514 19.9401 12.5499 19.9401H17.5599C18.7583 19.9401 19.7299 18.9685 19.7299 17.7701V12.7601C19.7299 11.5616 18.7583 10.5901 17.5599 10.5901Z"
    stroke="#FBB81B" stroke-miterlimit="10" />
  <path
    d="M17.5599 24.3599H12.5499C11.3514 24.3599 10.3799 25.3314 10.3799 26.5299V31.5399C10.3799 32.7383 11.3514 33.7099 12.5499 33.7099H17.5599C18.7583 33.7099 19.7299 32.7383 19.7299 31.5399V26.5299C19.7299 25.3314 18.7583 24.3599 17.5599 24.3599Z"
    stroke="#1A1A1A" stroke-miterlimit="10" />
  <path
    d="M26.9097 24.3601H25.7297C25.0338 24.3601 24.4697 24.9242 24.4697 25.6201V26.4701C24.4697 27.166 25.0338 27.7301 25.7297 27.7301H26.9097C27.6056 27.7301 28.1697 27.166 28.1697 26.4701V25.6201C28.1697 24.9242 27.6056 24.3601 26.9097 24.3601Z"
    stroke="#1A1A1A" stroke-miterlimit="10" />
  <path
    d="M26.9097 30.3301H25.7297C25.0338 30.3301 24.4697 30.8942 24.4697 31.5901V32.4401C24.4697 33.136 25.0338 33.7001 25.7297 33.7001H26.9097C27.6056 33.7001 28.1697 33.136 28.1697 32.4401V31.5901C28.1697 30.8942 27.6056 30.3301 26.9097 30.3301Z"
    stroke="#1A1A1A" stroke-miterlimit="10" />
  <path
    d="M32.5601 24.3599H31.3801C30.6842 24.3599 30.1201 24.924 30.1201 25.6199V26.4699C30.1201 27.1657 30.6842 27.7299 31.3801 27.7299H32.5601C33.256 27.7299 33.8201 27.1657 33.8201 26.4699V25.6199C33.8201 24.924 33.256 24.3599 32.5601 24.3599Z"
    stroke="#1A1A1A" stroke-miterlimit="10" />
  <path
    d="M32.5601 30.3301H31.3801C30.6842 30.3301 30.1201 30.8942 30.1201 31.5901V32.4401C30.1201 33.136 30.6842 33.7001 31.3801 33.7001H32.5601C33.256 33.7001 33.8201 33.136 33.8201 32.4401V31.5901C33.8201 30.8942 33.256 30.3301 32.5601 30.3301Z"
    stroke="#1A1A1A" stroke-miterlimit="10" />
  <path
    d="M31.6497 10.5901H26.6397C25.4413 10.5901 24.4697 11.5616 24.4697 12.7601V17.7701C24.4697 18.9685 25.4413 19.9401 26.6397 19.9401H31.6497C32.8482 19.9401 33.8197 18.9685 33.8197 17.7701V12.7601C33.8197 11.5616 32.8482 10.5901 31.6497 10.5901Z"
    stroke="#1A1A1A" stroke-miterlimit="10" />
</svg>
