<svg width="24" height="24" viewBox="0 0 24 24" fill="none" xmlns="http://www.w3.org/2000/svg">
<g id="icon mob_call">
<path id="icon mob_call_2" d="M23.4219 16.5939L15.8952 15.4432C15.6451 15.4051 15.4011 15.5322 15.273 15.7547L13.9921 18.0878C10.6557 16.4922 7.89878 13.7967 6.16044 10.421L8.26475 8.84445C8.47213 8.69188 8.56362 8.42488 8.50263 8.17695L6.6362 0.491101C6.5752 0.230457 6.36172 0.0397408 6.10555 0.014312C6.05065 0.00795486 4.75757 -0.119189 3.3059 0.522887C1.82373 1.18404 0.731934 2.37283 0.0670939 4.05749C0.0365967 4.12742 0.0243978 4.19734 0.0182983 4.26727C0.00609945 4.54063 0 4.81399 0 5.08099C0 15.5131 8.14276 24 18.152 24C18.6277 24 19.1157 23.9809 19.5975 23.9428C20.3539 23.8792 21.0736 23.5868 21.6774 23.1036C22.5558 22.3916 23.2023 21.4953 23.5927 20.4463C24.227 18.7172 23.9342 17.166 23.922 17.0961C23.8732 16.8354 23.6659 16.632 23.4158 16.5939H23.4219Z" fill="#1A1A1A"/>
</g>
</svg>
