<svg width="40" height="40" viewBox="0 0 40 40" fill="none" xmlns="http://www.w3.org/2000/svg">
<path d="M13.5368 20.7335H35.7187C36.2718 20.7335 36.7524 20.3643 36.8974 19.8332L39.9575 8.43113C40.166 7.66139 39.5812 6.90965 38.7788 6.90965H11.057L8.91722 0H1.39176C0.621077 0 0 0.616692 0 1.38193C0 2.14717 0.621077 2.76386 1.39176 2.76386H6.85905L11.737 18.5053C10.59 19.1805 9.47029 20.5759 9.47029 23.1327V23.2542C9.6063 24.7397 10.1367 25.8471 11.0525 26.5448C11.8413 27.148 12.6981 27.2605 13.2194 27.2605C13.3464 27.2605 13.4552 27.256 13.5368 27.247H36.4668C37.2374 27.247 37.8585 26.6303 37.8585 25.8651C37.8585 25.0998 37.2374 24.4831 36.4668 24.4831H13.4552L13.4144 24.4606L13.2557 24.4966C13.2557 24.4966 12.952 24.5236 12.7298 24.3436C12.4805 24.141 12.3127 23.6909 12.2493 23.0742C12.2674 21.1071 13.2285 20.783 13.5322 20.7335H13.5368Z" fill="#1A1A1A"/>
<path d="M16.2389 40.0001C18.8027 40.0001 20.8811 37.9364 20.8811 35.3907C20.8811 32.845 18.8027 30.7812 16.2389 30.7812C13.6751 30.7812 11.5967 32.845 11.5967 35.3907C11.5967 37.9364 13.6751 40.0001 16.2389 40.0001Z" fill="#1A1A1A"/>
<path d="M32.944 40.0001C35.5078 40.0001 37.5862 37.9364 37.5862 35.3907C37.5862 32.845 35.5078 30.7812 32.944 30.7812C30.3801 30.7812 28.3018 32.845 28.3018 35.3907C28.3018 37.9364 30.3801 40.0001 32.944 40.0001Z" fill="#1A1A1A"/>
</svg>
