<svg xmlns="http://www.w3.org/2000/svg" width="205" height="69" viewBox="0 0 205 69" fill="none">
  <path
    d="M28.2782 21.0614L23.9765 10.1058L19.763 21.0614H8.51519L0 0H10.0313L14.7032 13.4137L19.7982 0H29.1597L34.1136 13.353L38.8737 0H48.0941L39.5436 21.0614H28.2958H28.2782Z"
    fill="#1A1A1A" />
  <path
    d="M126.142 0H101.778C95.2545 0 93.7031 1.36565 93.7031 4.97704V8.77051C93.7031 11.517 96.1008 13.1709 100.773 13.1709H113.131C113.977 13.1709 114.348 13.4592 114.348 14.2483V14.5669C114.348 15.4015 113.977 15.7202 113.131 15.7202H93.9147V21.0765H115.388C121.117 21.0765 123.057 19.4833 123.057 16.0388V12.913C123.057 9.72647 120.941 7.9056 115.952 7.9056H103.77C102.765 7.9056 102.43 7.58695 102.43 6.82826V6.5096C102.43 5.75091 102.765 5.35639 103.77 5.35639H132.277V21.0614H141.638V5.35639H150.489V0H126.142Z"
    fill="#1A1A1A" />
  <path
    d="M93.1905 40.6359V47.4793H83.8291V26.418H103.716C110.82 26.418 113.112 27.2829 113.112 31.4557V35.5982C113.112 39.8013 110.662 40.6359 103.716 40.6359H93.2081H93.1905ZM103.821 33.1855C103.821 32.2296 103.381 31.7895 101.97 31.7895H93.1905V35.4616H101.97C103.451 35.4616 103.821 35.0823 103.821 33.9897V33.1855Z"
    fill="#1A1A1A" />
  <path
    d="M131.976 44.4289H122.72L121.574 47.494H111.313L121.239 26.4326H133.157L143.082 47.494H133.157L131.976 44.4289ZM124.712 39.2697H129.931L127.304 32.5174L124.712 39.2697Z"
    fill="#1A1A1A" />
  <path
    d="M165.544 47.4789V41.7432C165.544 40.7872 165.103 40.3016 163.252 40.3016H154.843V47.4637H145.517V26.4023H166.214C173.178 26.4023 174.694 27.6466 174.694 31.4401V34.5962C174.694 36.4475 173.618 37.4641 172.067 37.8435C173.513 38.1318 174.835 39.1484 174.835 40.8631V47.4637H165.544V47.4789ZM165.544 33.0182C165.544 32.2139 165.28 31.7739 163.763 31.7739H154.843V35.4763H163.763C165.385 35.4763 165.544 35.0059 165.544 34.05V33.0333V33.0182Z"
    fill="#1A1A1A" />
  <path d="M185.906 47.4793V31.7744H177.021V26.418H204.117V31.7744H195.267V47.4793H185.906Z"
    fill="#1A1A1A" />
  <path
    d="M89.5254 13.0344V7.99665H59.6076V5.35639H89.5254V0H50.2109V21.0614H62.9925V49.6794V49.1179C62.9925 49.4366 62.9044 49.6794 62.7457 49.8463C59.8897 51.7278 58.0209 54.6564 58.0209 57.9795C58.0209 63.609 63.3275 68.1763 69.8681 68.1763C76.4088 68.1763 81.7154 63.609 81.7154 57.9795C81.7154 54.6564 79.8466 51.7127 76.9906 49.8614C76.8319 49.6794 76.7438 49.4517 76.7438 49.1331V21.0614H89.5254V15.705H59.6076V13.0344H89.5254ZM69.8681 62.3344C67.065 62.3344 64.8084 60.377 64.8084 57.9795C64.8084 55.582 67.0826 53.6246 69.8681 53.6246C72.6537 53.6246 74.9279 55.582 74.9279 57.9795C74.9279 60.377 72.6537 62.3344 69.8681 62.3344Z"
    fill="#FBB81B" />
</svg>
