<svg width="206" height="70" viewBox="0 0 206 70" fill="none" xmlns="http://www.w3.org/2000/svg">
<path d="M24.6917 21.3666L20.9356 10.2523L17.2565 21.3666H7.43521L0 0H8.75908L12.8384 13.6081L17.2873 0H25.4614L29.787 13.5466L33.9434 0H41.9943L34.5283 21.3666H24.7071H24.6917Z" fill="#1A1A1A"/>
<path d="M110.143 0H88.8687C83.173 0 81.8184 1.38544 81.8184 5.04917V8.89762C81.8184 11.6839 83.9119 13.3618 87.9913 13.3618H98.7823C99.5212 13.3618 99.8445 13.6543 99.8445 14.4548V14.7781C99.8445 15.6247 99.5212 15.948 98.7823 15.948H82.0031V21.382H100.753C105.756 21.382 107.449 19.7657 107.449 16.2713V13.1001C107.449 9.86743 105.602 8.02018 101.245 8.02018H90.6082C89.7308 8.02018 89.4383 7.69691 89.4383 6.92722V6.60395C89.4383 5.83425 89.7308 5.43402 90.6082 5.43402H115.5V21.3666H123.674V5.43402H131.402V0H110.143Z" fill="#1A1A1A"/>
<path d="M81.3714 41.2248V48.1674H73.1973V26.8008H90.5615C96.7652 26.8008 98.7664 27.6782 98.7664 31.9115V36.114C98.7664 40.3781 96.6266 41.2248 90.5615 41.2248H81.3868H81.3714ZM90.6538 33.6664C90.6538 32.6966 90.269 32.2502 89.0375 32.2502H81.3714V35.9755H89.0375C90.3306 35.9755 90.6538 35.5906 90.6538 34.4823V33.6664Z" fill="#1A1A1A"/>
<path d="M115.238 45.073H107.156L106.155 48.1825H97.1963L105.863 26.8159H116.269L124.936 48.1825H116.269L115.238 45.073ZM108.896 39.8391H113.452L111.158 32.9888L108.896 39.8391Z" fill="#1A1A1A"/>
<path d="M144.548 48.1672V42.3483C144.548 41.3785 144.163 40.8859 142.547 40.8859H135.204V48.1518H127.061V26.7852H145.133C151.213 26.7852 152.537 28.0474 152.537 31.8959V35.0978C152.537 36.9759 151.598 38.0072 150.244 38.3921C151.506 38.6846 152.66 39.716 152.66 41.4555V48.1518H144.548V48.1672ZM144.548 33.4969C144.548 32.681 144.317 32.2346 142.993 32.2346H135.204V35.9907H142.993C144.409 35.9907 144.548 35.5134 144.548 34.5436V33.5123V33.4969Z" fill="#1A1A1A"/>
<path d="M162.328 48.1674V32.2348H154.569V26.8008H178.23V32.2348H170.502V48.1674H162.328Z" fill="#1A1A1A"/>
<path d="M181.74 48.1672V42.7331H197.318C198.057 42.7331 198.381 42.4099 198.381 41.5632V41.2399C198.381 40.4241 198.057 40.147 197.318 40.147H186.527C182.448 40.147 180.354 38.4691 180.354 35.6828V31.8343C180.354 28.186 181.709 26.7852 187.405 26.7852H204.538V32.2192H189.16C188.282 32.2192 187.99 32.604 187.99 33.3891V33.7124C187.99 34.4821 188.282 34.8053 189.16 34.8053H199.797C204.153 34.8053 206.001 36.6526 206.001 39.8853V43.0564C206.001 46.5508 204.323 48.1672 199.304 48.1672H181.755H181.74Z" fill="#1A1A1A"/>
<path d="M78.171 13.2233V8.11254H52.0477V5.43402H78.171V0H43.8428V21.3666H55.0033V50.3993V49.8298C55.0033 50.153 54.9263 50.3993 54.7878 50.5687C52.294 52.4775 50.6622 55.4485 50.6622 58.8198C50.6622 64.5309 55.2958 69.1644 61.0069 69.1644C66.718 69.1644 71.3515 64.5309 71.3515 58.8198C71.3515 55.4485 69.7198 52.4621 67.226 50.5841C67.0874 50.3993 67.0105 50.1684 67.0105 49.8452V21.3666H78.171V15.9326H52.0477V13.2233H78.171ZM61.0069 63.2378C58.5593 63.2378 56.5888 61.252 56.5888 58.8198C56.5888 56.3875 58.5747 54.4017 61.0069 54.4017C63.4391 54.4017 65.4249 56.3875 65.4249 58.8198C65.4249 61.252 63.4391 63.2378 61.0069 63.2378Z" fill="#FBB81B"/>
</svg>
