<svg width="32" height="32" viewBox="0 0 32 32" fill="none" xmlns="http://www.w3.org/2000/svg">
<circle cx="16" cy="16" r="16" fill="#FBB81B"/>
<path d="M14.7836 20.6517C14.7351 20.9083 14.6433 21.17 14.7393 21.4356C14.7724 21.5271 14.8329 21.61 14.8605 21.7024C14.9516 22.0071 15.0955 22.2914 15.2182 22.5832C15.3787 22.9647 15.571 23.3336 15.7487 23.7081C15.7634 23.739 15.7569 23.7921 15.8062 23.7863C15.8498 23.7812 15.8689 23.7377 15.8856 23.6977C15.9304 23.5895 15.9764 23.4816 16.0257 23.3751C16.1681 23.0678 16.3191 22.7639 16.4542 22.4536C16.5996 22.1199 16.727 21.7789 16.8703 21.4444C16.9014 21.3718 16.9079 21.2959 16.937 21.2302C16.8825 21.0868 16.9099 20.9401 16.8781 20.798C16.7733 20.3313 16.7243 19.8551 16.6489 19.3836C16.5961 19.0532 16.5346 18.7238 16.4751 18.3945C16.4684 18.3573 16.4709 18.3246 16.4804 18.2885C16.556 17.9957 16.6197 17.6995 16.7076 17.4106C16.7486 17.2755 16.7165 17.2016 16.6013 17.1305C16.3619 16.9828 16.127 16.8283 15.8943 16.6706C15.8483 16.6393 15.8065 16.6235 15.7651 16.6505C15.4909 16.8292 15.2206 17.0133 14.9459 17.1914C14.8892 17.228 14.8849 17.2707 14.8981 17.3238C14.9352 17.4732 14.9748 17.6219 15.0113 17.7713C15.0589 17.9654 15.1271 18.158 15.1447 18.3547C15.1597 18.5206 15.1106 18.6938 15.0778 18.857C14.9576 19.452 14.8964 20.0557 14.7836 20.6517Z" fill="#F8F5F0"/>
<path d="M18.9084 12.5596C19.0883 12.2518 19.2536 11.9363 19.3962 11.6134C19.4808 11.4221 19.5592 11.2877 19.7821 11.2397C19.9807 11.197 20.0823 11.0041 20.2386 10.8918C20.6126 10.6228 20.7679 10.2541 20.7286 9.80711C20.7146 9.64993 20.7074 9.48208 20.5999 9.35571C20.4906 9.22716 20.3364 9.22594 20.1758 9.26184C20.0989 9.27906 20.1283 9.21721 20.1375 9.18058C20.2249 8.83567 20.2804 8.48687 20.3224 8.13322C20.3782 7.66363 20.3973 7.20132 20.3242 6.73003C20.2308 6.12994 19.975 5.62543 19.5079 5.22666C19.263 5.01782 19.0012 4.8279 18.7568 4.61857C18.1212 4.07379 17.4015 3.71286 16.5626 3.55156C15.9912 3.44169 15.4318 3.45891 14.8773 3.57679C14.3736 3.68376 13.8973 3.88096 13.4673 4.16766C13.0427 4.45072 12.6642 4.79103 12.262 5.10199C11.7397 5.5056 11.45 6.02953 11.3146 6.66697C11.18 7.30222 11.2728 7.91953 11.3579 8.54193C11.3903 8.7794 11.4647 9.01079 11.4906 9.26378C11.134 9.20387 11.0133 9.27348 10.9272 9.5956C10.8321 9.95167 10.8858 10.2862 11.0954 10.5964C11.233 10.8001 11.4547 10.9187 11.617 11.098C11.7285 11.2212 11.8773 11.2838 12.0453 11.2996C12.0771 11.3025 12.1068 11.3017 12.1214 11.3396C12.2494 11.6695 12.4032 11.9877 12.5699 12.3001C12.7862 12.7049 13.0395 13.0867 13.3304 13.4438C13.6288 13.8103 13.974 14.1283 14.3734 14.391C14.6374 14.5646 14.9241 14.7029 15.228 14.7679C15.717 14.8724 16.2048 14.8545 16.6888 14.6701C17.1191 14.5062 17.4879 14.2595 17.8139 13.959C18.2544 13.5532 18.6073 13.0746 18.9086 12.5589L18.9084 12.5596Z" fill="#F8F5F0"/>
<path d="M25.3526 25.8303C25.3444 25.7239 25.3556 25.2865 25.3526 25.1257C25.3481 24.9011 25.3399 24.6804 25.3043 24.4613C25.2242 23.9677 25.1796 23.47 25.103 22.9754C25.0258 22.478 24.939 21.9827 24.8367 21.4903C24.7817 21.2247 24.7155 20.9593 24.654 20.6949C24.5704 20.335 24.4763 19.9782 24.3706 19.6245C24.2837 19.3347 24.1934 19.0458 24.0819 18.7622C23.9448 18.4132 23.8159 18.0598 23.5984 17.7515C23.2086 17.1994 22.6253 16.8911 22.0114 16.6479C21.664 16.5101 21.2984 16.4094 20.936 16.3049C20.4878 16.1754 20.0304 16.0686 19.5992 15.887C19.5061 15.8477 19.4416 15.8886 19.4304 15.9675C19.4073 16.1278 19.3331 16.2719 19.2975 16.4264C19.2075 16.8169 19.1024 17.2036 18.9875 17.5878C18.9404 17.7452 18.9046 17.9053 18.8531 18.0622C18.7446 18.3933 18.6629 18.7329 18.5572 19.0649C18.4994 19.2461 18.4318 19.4266 18.379 19.6075C18.2366 20.0958 18.061 20.5724 17.8865 21.0493C17.733 21.4689 17.5481 21.8769 17.3704 22.2875C17.166 22.7596 16.9627 23.2318 16.7435 23.697C16.4854 24.2447 16.2127 24.7859 15.9382 25.3261C15.9008 25.3996 15.9038 25.5024 15.7976 25.5502C15.7403 25.4323 15.6863 25.3164 15.6281 25.2024C15.481 24.9147 15.3292 24.6292 15.1844 24.3403C15.049 24.0701 14.9188 23.7975 14.7894 23.5243C14.6555 23.2418 14.5174 22.9604 14.395 22.673C14.2163 22.2538 14.0488 21.8298 13.8791 21.4071C13.7815 21.1643 13.6815 20.9222 13.5961 20.6753C13.4637 20.2928 13.3508 19.9039 13.2151 19.5229C13.1101 19.2274 13.0282 18.9255 12.9307 18.6281C12.7662 18.1262 12.6296 17.6144 12.5039 17.1017C12.4539 16.8979 12.3735 16.7029 12.3439 16.4921C12.3185 16.3114 12.2495 16.1361 12.1943 15.96C12.1719 15.8884 12.1241 15.8428 12.0373 15.8799C11.6851 16.0313 11.3113 16.1171 10.945 16.2265C10.5282 16.351 10.1098 16.4713 9.7022 16.6263C9.22289 16.8087 8.77121 17.0313 8.38274 17.3627C7.97386 17.7112 7.75586 18.1803 7.5814 18.6628C7.40023 19.1644 7.23723 19.6725 7.10409 20.1909C7.00056 20.5943 6.89977 20.9993 6.81317 21.4054C6.69197 21.9739 6.60811 22.551 6.50682 23.1236C6.36298 23.9364 6.32192 24.7558 6.26294 25.5744C6.25647 25.6649 6.26443 25.7503 6.28509 25.8296H25.3521L25.3526 25.8303Z" fill="#F8F5F0"/>
<path fill-rule="evenodd" clip-rule="evenodd" d="M6.34473 25.8306C8.89389 27.9428 12.1977 29.2174 15.8072 29.2174C19.4168 29.2174 22.7206 27.9428 25.2697 25.8306H6.34473Z" fill="#F8F5F0"/>
</svg>
