<svg width="69" height="49" viewBox="0 0 69 49" fill="none" xmlns="http://www.w3.org/2000/svg">
<path fill-rule="evenodd" clip-rule="evenodd" d="M5 0C2.23858 0 0 2.23858 0 5V36.5254C0 39.2868 2.23857 41.5254 5 41.5254H42.4329L49.8308 49L57.2287 41.5254H63.1017C65.8631 41.5254 68.1017 39.2868 68.1017 36.5254V5C68.1017 2.23858 65.8631 0 63.1017 0H5Z" fill="#1A1A1A"/>
<path d="M13.5924 17.5606L12.5896 14.6681L11.6073 17.5606H8.98513L7 12H9.33859L10.4277 15.5415L11.6196 12H13.802L14.957 15.5255L16.0625 12H18.2121L16.2187 17.5606H13.5965H13.5924Z" fill="#F8F5F0"/>
<path d="M36.4071 12H30.7271C29.2064 12 28.8447 12.3606 28.8447 13.314V14.3156C28.8447 15.0407 29.4037 15.4774 30.4928 15.4774H33.3739C33.5712 15.4774 33.6575 15.5535 33.6575 15.7619V15.846C33.6575 16.0663 33.5712 16.1505 33.3739 16.1505H28.894V17.5647H33.9C35.2358 17.5647 35.6879 17.144 35.6879 16.2346V15.4093C35.6879 14.568 35.1947 14.0872 34.0315 14.0872H31.1915C30.9573 14.0872 30.8792 14.0031 30.8792 13.8028V13.7187C30.8792 13.5184 30.9573 13.4142 31.1915 13.4142H37.8374V17.5606H40.0198V13.4142H42.083V12H36.4071Z" fill="#F8F5F0"/>
<path d="M28.7254 22.7289V24.5357H26.543V18.9751H31.179C32.8354 18.9751 33.3697 19.2035 33.3697 20.3052V21.3989C33.3697 22.5086 32.7984 22.7289 31.179 22.7289H28.7295H28.7254ZM31.2037 20.7619C31.2037 20.5095 31.101 20.3933 30.7722 20.3933H28.7254V21.3588H30.7722C31.1174 21.3588 31.2037 21.2587 31.2037 20.9702V20.7579V20.7619Z" fill="#F8F5F0"/>
<path d="M37.7671 23.7304H35.6094L35.3422 24.5397H32.9502L35.2641 18.979H38.0425L40.3564 24.5397H38.0425L37.7671 23.7304ZM36.0738 22.3683H37.2904L36.678 20.5855L36.0738 22.3683Z" fill="#F8F5F0"/>
<path d="M45.5928 24.5398V23.0254C45.5928 22.773 45.49 22.6448 45.0585 22.6448H43.098V24.5357H40.9238V18.9751H45.749C47.3724 18.9751 47.7259 19.3036 47.7259 20.3052V21.1385C47.7259 21.6272 47.4752 21.8956 47.1135 21.9958C47.4505 22.0719 47.7588 22.3403 47.7588 22.793V24.5357H45.5928V24.5398ZM45.5928 20.7218C45.5928 20.5095 45.5311 20.3933 45.1777 20.3933H43.098V21.3708H45.1777C45.5558 21.3708 45.5928 21.2466 45.5928 20.9942V20.7258V20.7218Z" fill="#F8F5F0"/>
<path d="M50.34 24.5397V20.3932H48.2686V18.979H54.5856V20.3932H52.5224V24.5397H50.34Z" fill="#F8F5F0"/>
<path d="M55.5222 24.5398V23.1256H59.6816C59.8788 23.1256 59.9651 23.0414 59.9651 22.8211V22.7369C59.9651 22.5246 59.8788 22.4525 59.6816 22.4525H56.8005C55.7113 22.4525 55.1523 22.0158 55.1523 21.2907V20.2891C55.1523 19.3397 55.514 18.9751 57.0347 18.9751H61.6091V20.3893H57.5033C57.269 20.3893 57.1909 20.4895 57.1909 20.6938V20.7779C57.1909 20.9782 57.269 21.0623 57.5033 21.0623H60.3433C61.5064 21.0623 61.9996 21.5431 61.9996 22.3844V23.2097C61.9996 24.1191 61.5516 24.5398 60.2117 24.5398H55.5264H55.5222Z" fill="#F8F5F0"/>
<path d="M27.8704 15.4414V14.1113H20.8957V13.4142H27.8704V12H18.7051V17.5606H21.6848V25.1164V24.9682C21.6848 25.0523 21.6643 25.1164 21.6273 25.1605C20.9615 25.6572 20.5258 26.4304 20.5258 27.3078C20.5258 28.7941 21.7629 30 23.2877 30C24.8125 30 26.0496 28.7941 26.0496 27.3078C26.0496 26.4304 25.614 25.6532 24.9482 25.1645C24.9112 25.1164 24.8906 25.0563 24.8906 24.9722V17.5606H27.8704V16.1464H20.8957V15.4414H27.8704ZM23.2877 28.4576C22.6342 28.4576 22.1082 27.9408 22.1082 27.3078C22.1082 26.6748 22.6383 26.158 23.2877 26.158C23.9371 26.158 24.4673 26.6748 24.4673 27.3078C24.4673 27.9408 23.9371 28.4576 23.2877 28.4576Z" fill="#FBB81B"/>
</svg>
