<svg width="24" height="24" fill="none" xmlns="http://www.w3.org/2000/svg"><g id="icon mob_call"><path id="icon mob_call_2" d="M23.422 16.594l-7.527-1.15a.615.615 0 00-.622.31l-1.28 2.334c-3.337-1.596-6.094-4.291-7.833-7.667l2.105-1.577a.641.641 0 00.238-.667L6.636.49a.613.613 0 00-.53-.477c-.055-.006-1.348-.133-2.8.509C1.824 1.184.732 2.373.067 4.057a.655.655 0 00-.049.21C.006 4.541 0 4.814 0 5.081 0 15.513 8.143 24 18.152 24c.476 0 .964-.02 1.445-.057a3.841 3.841 0 002.08-.84 6.143 6.143 0 001.916-2.657c.634-1.729.341-3.28.329-3.35a.621.621 0 00-.506-.502h.006z" fill="#1A1A1A"/></g></svg>