<svg width="206" height="70" fill="none" xmlns="http://www.w3.org/2000/svg"><path d="M24.692 21.367l-3.756-11.115-3.68 11.115h-9.82L0 0h8.76l4.078 13.608L17.288 0h8.173l4.326 13.547L33.943 0h8.051l-7.466 21.367h-9.836zM110.143 0H88.869c-5.696 0-7.05 1.385-7.05 5.05v3.848c0 2.786 2.093 4.464 6.172 4.464h10.791c.74 0 1.063.292 1.063 1.093v.323c0 .847-.324 1.17-1.063 1.17H82.003v5.434h18.75c5.003 0 6.696-1.616 6.696-5.11V13.1c0-3.233-1.847-5.08-6.204-5.08H90.608c-.877 0-1.17-.323-1.17-1.093v-.323c0-.77.293-1.17 1.17-1.17H115.5v15.933h8.174V5.434h7.728V0h-21.259zM81.371 41.225v6.942h-8.174V26.801h17.364c6.204 0 8.205.877 8.205 5.11v4.203c0 4.264-2.14 5.11-8.205 5.11h-9.19zm9.283-7.559c0-.97-.385-1.416-1.617-1.416h-7.666v3.725h7.666c1.294 0 1.617-.384 1.617-1.493v-.816zm24.584 11.407h-8.082l-1.001 3.11h-8.959l8.667-21.367h10.406l8.667 21.366h-8.667l-1.031-3.109zm-6.342-5.234h4.556l-2.294-6.85-2.262 6.85zm35.652 8.328v-5.819c0-.97-.385-1.462-2.001-1.462h-7.343v7.266h-8.143V26.785h18.072c6.08 0 7.404 1.262 7.404 5.11v3.203c0 1.878-.939 2.91-2.293 3.294 1.262.293 2.416 1.324 2.416 3.063v6.697h-8.112v.015zm0-14.67c0-.816-.231-1.262-1.555-1.262h-7.789v3.756h7.789c1.416 0 1.555-.478 1.555-1.447v-1.047zm17.78 14.67V32.235h-7.759V26.8h23.661v5.434h-7.728v15.932h-8.174zm19.412 0v-5.434h15.578c.739 0 1.063-.323 1.063-1.17v-.323c0-.816-.324-1.093-1.063-1.093h-10.791c-4.079 0-6.173-1.678-6.173-4.464v-3.849c0-3.648 1.355-5.049 7.051-5.049h17.133v5.434H189.16c-.878 0-1.17.385-1.17 1.17v.323c0 .77.292 1.093 1.17 1.093h10.637c4.356 0 6.204 1.848 6.204 5.08v3.171c0 3.495-1.678 5.111-6.697 5.111H181.74z" fill="#1A1A1A"/><path d="M78.171 13.223v-5.11H52.048V5.434H78.17V0H43.843v21.367h11.16v29.032-.57c0 .324-.077.57-.215.74-2.494 1.908-4.126 4.88-4.126 8.25 0 5.712 4.634 10.345 10.345 10.345s10.345-4.633 10.345-10.344c0-3.371-1.632-6.358-4.126-8.236-.139-.185-.216-.416-.216-.739V21.367h11.161v-5.434H52.048v-2.71H78.17zM61.007 63.238a4.418 4.418 0 01-4.418-4.418 4.428 4.428 0 014.418-4.418 4.428 4.428 0 014.418 4.418 4.428 4.428 0 01-4.418 4.418z" fill="#FBB81B"/></svg>