<svg xmlns="http://www.w3.org/2000/svg" width="205" height="69" fill="none"><path d="M28.278 21.061l-4.301-10.955-4.214 10.955H8.515L0 0h10.031l4.672 13.414L19.798 0h9.362l4.954 13.353L38.874 0h9.22l-8.55 21.061H28.278zM126.142 0h-24.364c-6.524 0-8.075 1.366-8.075 4.977v3.794c0 2.746 2.398 4.4 7.07 4.4h12.358c.846 0 1.217.288 1.217 1.077v.319c0 .835-.371 1.153-1.217 1.153H93.915v5.356h21.473c5.729 0 7.669-1.593 7.669-5.037v-3.126c0-3.187-2.116-5.007-7.105-5.007H103.77c-1.005 0-1.34-.319-1.34-1.078V6.51c0-.76.335-1.154 1.34-1.154h28.507v15.705h9.361V5.356h8.851V0h-24.347zM93.19 40.636v6.843h-9.36V26.418h19.886c7.104 0 9.396.865 9.396 5.038v4.142c0 4.203-2.45 5.038-9.396 5.038H93.191zm10.631-7.45c0-.956-.44-1.396-1.851-1.396h-8.78v3.672h8.78c1.481 0 1.851-.38 1.851-1.472v-.805zm28.155 11.243h-9.256l-1.146 3.065h-10.261l9.926-21.061h11.918l9.925 21.061h-9.925l-1.181-3.065zm-7.264-5.16h5.219l-2.627-6.752-2.592 6.753zm40.832 8.21v-5.736c0-.956-.441-1.441-2.292-1.441h-8.409v7.162h-9.326V26.402h20.697c6.964 0 8.48 1.245 8.48 5.038v3.156c0 1.852-1.076 2.868-2.627 3.248 1.446.288 2.768 1.304 2.768 3.02v6.6h-9.291v.015zm0-14.46c0-.805-.264-1.245-1.781-1.245h-8.92v3.702h8.92c1.622 0 1.781-.47 1.781-1.426v-1.032zm20.362 14.461V31.773h-8.885v-5.356h27.096v5.356h-8.85V47.48h-9.361z" fill="#1A1A1A"/><path d="M89.525 13.034V7.997H59.608v-2.64h29.917V0H50.211v21.061h12.782V49.68v-.561c0 .319-.089.561-.247.728-2.856 1.882-4.725 4.81-4.725 8.134 0 5.629 5.306 10.196 11.847 10.196 6.54 0 11.847-4.567 11.847-10.197 0-3.323-1.868-6.266-4.724-8.118-.16-.182-.247-.41-.247-.728V21.061h12.781v-5.356H59.608v-2.67h29.917zm-19.657 49.3c-2.803 0-5.06-1.957-5.06-4.355 0-2.397 2.275-4.354 5.06-4.354 2.786 0 5.06 1.957 5.06 4.355 0 2.397-2.274 4.354-5.06 4.354z" fill="#FBB81B"/></svg>