<svg width="32" height="32" fill="none" xmlns="http://www.w3.org/2000/svg"><circle cx="16" cy="16" r="16" fill="#FBB81B"/><path d="M14.784 20.652c-.049.256-.14.518-.045.784.033.091.094.174.121.266.092.305.236.59.358.881.16.382.353.75.53 1.125.015.031.009.084.058.078.044-.005.063-.048.08-.088a7 7 0 01.14-.323c.142-.307.293-.611.428-.921.146-.334.273-.675.416-1.01.031-.072.038-.148.067-.214-.055-.143-.027-.29-.059-.432-.105-.467-.154-.943-.23-1.414-.052-.33-.113-.66-.173-.99a.234.234 0 01.005-.105c.076-.293.14-.59.228-.878.04-.136.009-.21-.107-.28-.24-.148-.474-.303-.707-.46-.046-.032-.088-.047-.129-.02-.274.178-.544.362-.82.54-.056.037-.06.08-.047.133.037.15.077.298.113.447.048.194.116.387.134.584.015.166-.034.339-.067.502-.12.595-.182 1.199-.294 1.795zm4.124-8.092c.18-.308.346-.624.488-.947.085-.19.163-.325.386-.373.199-.043.3-.236.457-.348.374-.27.529-.638.49-1.085-.014-.157-.022-.325-.13-.451-.108-.129-.263-.13-.423-.094-.077.017-.048-.045-.038-.081.087-.345.142-.694.184-1.048.056-.47.075-.932.002-1.403-.093-.6-.349-1.105-.816-1.503-.245-.21-.507-.4-.751-.608a4.656 4.656 0 00-2.194-1.067 4.196 4.196 0 00-1.686.025c-.503.107-.98.304-1.41.59-.424.284-.803.624-1.205.935-.522.404-.812.928-.947 1.565-.135.635-.042 1.253.043 1.875.032.237.107.469.133.722-.357-.06-.478.01-.564.332-.095.356-.041.69.168 1 .138.204.36.323.522.502a.64.64 0 00.428.202c.032.002.062.002.076.04.128.33.282.648.449.96.216.405.47.787.76 1.144.299.366.644.684 1.043.947.264.174.551.312.855.377a2.53 2.53 0 001.46-.098c.431-.164.8-.41 1.126-.711a5.97 5.97 0 001.095-1.4z" fill="#F8F5F0"/><path d="M25.353 25.83c-.009-.106.003-.543 0-.704a4.714 4.714 0 00-.049-.665c-.08-.493-.124-.991-.201-1.486a29.66 29.66 0 00-.266-1.485c-.055-.265-.122-.53-.183-.795-.084-.36-.178-.717-.283-1.07-.087-.29-.178-.58-.29-.863-.136-.349-.265-.702-.483-1.01-.39-.553-.973-.86-1.587-1.104-.347-.138-.713-.239-1.075-.343-.448-.13-.906-.236-1.337-.418-.093-.04-.157.002-.169.08-.023.16-.097.305-.133.46-.09.39-.195.777-.31 1.16-.047.158-.082.318-.134.475-.108.331-.19.67-.296 1.003-.058.181-.125.362-.178.543-.142.488-.318.964-.492 1.441-.154.42-.339.828-.517 1.239-.204.472-.407.944-.627 1.409-.258.548-.53 1.089-.805 1.63-.037.073-.034.175-.14.223-.058-.118-.112-.234-.17-.348-.147-.287-.299-.573-.444-.862-.135-.27-.265-.543-.395-.816-.133-.282-.272-.564-.394-.851-.179-.42-.346-.843-.516-1.266-.098-.243-.197-.485-.283-.732-.132-.382-.245-.771-.38-1.152-.106-.296-.188-.598-.285-.895a20.798 20.798 0 01-.427-1.526c-.05-.204-.13-.4-.16-.61-.025-.18-.095-.356-.15-.532-.022-.072-.07-.117-.157-.08-.352.151-.726.237-1.092.347-.417.124-.835.244-1.243.4-.48.182-.93.404-1.32.736-.408.348-.626.817-.8 1.3-.182.501-.345 1.01-.478 1.528a30.14 30.14 0 00-.29 1.214c-.122.569-.206 1.146-.307 1.719-.144.812-.185 1.632-.244 2.45a.786.786 0 00.022.256h19.067z" fill="#F8F5F0"/><path fill-rule="evenodd" clip-rule="evenodd" d="M6.345 25.83a14.786 14.786 0 009.462 3.387c3.61 0 6.914-1.274 9.463-3.386H6.345z" fill="#F8F5F0"/></svg>